<mxfile host="app.diagrams.net" modified="2024-06-25T00:02:33.697Z" agent="Mozilla/5.0 (X11; Ubuntu; Linux x86_64; rv:127.0) Gecko/20100101 Firefox/127.0" etag="pGaLPzGcMrVuixDJpNFk" version="24.6.0" type="device">
  <diagram name="Página-1" id="SP4rPPzXcwatXh1_7pQc">
    <mxGraphModel dx="-238" dy="1102" grid="1" gridSize="10" guides="1" tooltips="1" connect="1" arrows="1" fold="1" page="1" pageScale="1" pageWidth="827" pageHeight="1169" background="#ffffff" math="0" shadow="0">
      <root>
        <mxCell id="0" />
        <mxCell id="1" parent="0" />
        <mxCell id="f6QQn7eRvwNJcWND32Lu-1" value="libros" style="shape=table;startSize=30;container=1;collapsible=0;childLayout=tableLayout;" parent="1" vertex="1">
          <mxGeometry x="4350" y="2130" width="510.00000000000273" height="470" as="geometry" />
        </mxCell>
        <mxCell id="f6QQn7eRvwNJcWND32Lu-2" value="" style="shape=tableRow;horizontal=0;startSize=0;swimlaneHead=0;swimlaneBody=0;strokeColor=inherit;top=0;left=0;bottom=0;right=0;collapsible=0;dropTarget=0;fillColor=none;points=[[0,0.5],[1,0.5]];portConstraint=eastwest;" parent="f6QQn7eRvwNJcWND32Lu-1" vertex="1">
          <mxGeometry y="30" width="510.00000000000273" height="40" as="geometry" />
        </mxCell>
        <mxCell id="f6QQn7eRvwNJcWND32Lu-3" value="id_libro" style="shape=partialRectangle;html=1;whiteSpace=wrap;connectable=0;strokeColor=inherit;overflow=hidden;fillColor=none;top=0;left=0;bottom=0;right=0;pointerEvents=1;" parent="f6QQn7eRvwNJcWND32Lu-2" vertex="1">
          <mxGeometry width="60" height="40" as="geometry">
            <mxRectangle width="60" height="40" as="alternateBounds" />
          </mxGeometry>
        </mxCell>
        <mxCell id="f6QQn7eRvwNJcWND32Lu-4" value="titulo" style="shape=partialRectangle;html=1;whiteSpace=wrap;connectable=0;strokeColor=inherit;overflow=hidden;fillColor=none;top=0;left=0;bottom=0;right=0;pointerEvents=1;" parent="f6QQn7eRvwNJcWND32Lu-2" vertex="1">
          <mxGeometry x="60" width="160" height="40" as="geometry">
            <mxRectangle width="160" height="40" as="alternateBounds" />
          </mxGeometry>
        </mxCell>
        <mxCell id="f6QQn7eRvwNJcWND32Lu-5" value="autor" style="shape=partialRectangle;html=1;whiteSpace=wrap;connectable=0;strokeColor=inherit;overflow=hidden;fillColor=none;top=0;left=0;bottom=0;right=0;pointerEvents=1;" parent="f6QQn7eRvwNJcWND32Lu-2" vertex="1">
          <mxGeometry x="220" width="170" height="40" as="geometry">
            <mxRectangle width="170" height="40" as="alternateBounds" />
          </mxGeometry>
        </mxCell>
        <mxCell id="f6QQn7eRvwNJcWND32Lu-6" value="genero" style="shape=partialRectangle;html=1;whiteSpace=wrap;connectable=0;strokeColor=inherit;overflow=hidden;fillColor=none;top=0;left=0;bottom=0;right=0;pointerEvents=1;" parent="f6QQn7eRvwNJcWND32Lu-2" vertex="1">
          <mxGeometry x="390" width="120" height="40" as="geometry">
            <mxRectangle width="120" height="40" as="alternateBounds" />
          </mxGeometry>
        </mxCell>
        <mxCell id="f6QQn7eRvwNJcWND32Lu-7" value="" style="shape=tableRow;horizontal=0;startSize=0;swimlaneHead=0;swimlaneBody=0;strokeColor=inherit;top=0;left=0;bottom=0;right=0;collapsible=0;dropTarget=0;fillColor=none;points=[[0,0.5],[1,0.5]];portConstraint=eastwest;" parent="f6QQn7eRvwNJcWND32Lu-1" vertex="1">
          <mxGeometry y="70" width="510.00000000000273" height="40" as="geometry" />
        </mxCell>
        <mxCell id="f6QQn7eRvwNJcWND32Lu-8" value="1" style="shape=partialRectangle;html=1;whiteSpace=wrap;connectable=0;strokeColor=inherit;overflow=hidden;fillColor=none;top=0;left=0;bottom=0;right=0;pointerEvents=1;" parent="f6QQn7eRvwNJcWND32Lu-7" vertex="1">
          <mxGeometry width="60" height="40" as="geometry">
            <mxRectangle width="60" height="40" as="alternateBounds" />
          </mxGeometry>
        </mxCell>
        <mxCell id="f6QQn7eRvwNJcWND32Lu-9" value="&lt;pre class=&quot;notranslate&quot; lang=&quot;plaintext&quot;&gt;&lt;code&gt;Don Quijote&lt;/code&gt;&lt;/pre&gt;" style="shape=partialRectangle;html=1;whiteSpace=wrap;connectable=0;strokeColor=inherit;overflow=hidden;fillColor=none;top=0;left=0;bottom=0;right=0;pointerEvents=1;" parent="f6QQn7eRvwNJcWND32Lu-7" vertex="1">
          <mxGeometry x="60" width="160" height="40" as="geometry">
            <mxRectangle width="160" height="40" as="alternateBounds" />
          </mxGeometry>
        </mxCell>
        <mxCell id="f6QQn7eRvwNJcWND32Lu-10" value="&lt;pre class=&quot;notranslate&quot; lang=&quot;plaintext&quot;&gt;&lt;code&gt;Miguel de Cervantes&lt;/code&gt;&lt;/pre&gt;" style="shape=partialRectangle;html=1;whiteSpace=wrap;connectable=0;strokeColor=inherit;overflow=hidden;fillColor=none;top=0;left=0;bottom=0;right=0;pointerEvents=1;" parent="f6QQn7eRvwNJcWND32Lu-7" vertex="1">
          <mxGeometry x="220" width="170" height="40" as="geometry">
            <mxRectangle width="170" height="40" as="alternateBounds" />
          </mxGeometry>
        </mxCell>
        <mxCell id="f6QQn7eRvwNJcWND32Lu-11" value="&lt;pre class=&quot;notranslate&quot; lang=&quot;plaintext&quot;&gt;&lt;code&gt;Novela&lt;/code&gt;&lt;/pre&gt;" style="shape=partialRectangle;html=1;whiteSpace=wrap;connectable=0;strokeColor=inherit;overflow=hidden;fillColor=none;top=0;left=0;bottom=0;right=0;pointerEvents=1;" parent="f6QQn7eRvwNJcWND32Lu-7" vertex="1">
          <mxGeometry x="390" width="120" height="40" as="geometry">
            <mxRectangle width="120" height="40" as="alternateBounds" />
          </mxGeometry>
        </mxCell>
        <mxCell id="f6QQn7eRvwNJcWND32Lu-12" value="" style="shape=tableRow;horizontal=0;startSize=0;swimlaneHead=0;swimlaneBody=0;strokeColor=inherit;top=0;left=0;bottom=0;right=0;collapsible=0;dropTarget=0;fillColor=none;points=[[0,0.5],[1,0.5]];portConstraint=eastwest;" parent="f6QQn7eRvwNJcWND32Lu-1" vertex="1">
          <mxGeometry y="110" width="510.00000000000273" height="40" as="geometry" />
        </mxCell>
        <mxCell id="f6QQn7eRvwNJcWND32Lu-13" value="1" style="shape=partialRectangle;html=1;whiteSpace=wrap;connectable=0;strokeColor=inherit;overflow=hidden;fillColor=none;top=0;left=0;bottom=0;right=0;pointerEvents=1;" parent="f6QQn7eRvwNJcWND32Lu-12" vertex="1">
          <mxGeometry width="60" height="40" as="geometry">
            <mxRectangle width="60" height="40" as="alternateBounds" />
          </mxGeometry>
        </mxCell>
        <mxCell id="f6QQn7eRvwNJcWND32Lu-14" value="&lt;pre class=&quot;notranslate&quot; lang=&quot;plaintext&quot;&gt;&lt;code&gt;Don Quijote&lt;/code&gt;&lt;/pre&gt;" style="shape=partialRectangle;html=1;whiteSpace=wrap;connectable=0;strokeColor=inherit;overflow=hidden;fillColor=none;top=0;left=0;bottom=0;right=0;pointerEvents=1;" parent="f6QQn7eRvwNJcWND32Lu-12" vertex="1">
          <mxGeometry x="60" width="160" height="40" as="geometry">
            <mxRectangle width="160" height="40" as="alternateBounds" />
          </mxGeometry>
        </mxCell>
        <mxCell id="f6QQn7eRvwNJcWND32Lu-15" value="&lt;pre class=&quot;notranslate&quot; lang=&quot;plaintext&quot;&gt;&lt;code&gt;Miguel de Cervantes&lt;/code&gt;&lt;/pre&gt;" style="shape=partialRectangle;html=1;whiteSpace=wrap;connectable=0;strokeColor=inherit;overflow=hidden;fillColor=none;top=0;left=0;bottom=0;right=0;pointerEvents=1;" parent="f6QQn7eRvwNJcWND32Lu-12" vertex="1">
          <mxGeometry x="220" width="170" height="40" as="geometry">
            <mxRectangle width="170" height="40" as="alternateBounds" />
          </mxGeometry>
        </mxCell>
        <mxCell id="f6QQn7eRvwNJcWND32Lu-16" value="&lt;pre class=&quot;notranslate&quot; lang=&quot;plaintext&quot;&gt;&lt;code&gt;Clásico&lt;/code&gt;&lt;/pre&gt;" style="shape=partialRectangle;html=1;whiteSpace=wrap;connectable=0;strokeColor=inherit;overflow=hidden;fillColor=none;top=0;left=0;bottom=0;right=0;pointerEvents=1;" parent="f6QQn7eRvwNJcWND32Lu-12" vertex="1">
          <mxGeometry x="390" width="120" height="40" as="geometry">
            <mxRectangle width="120" height="40" as="alternateBounds" />
          </mxGeometry>
        </mxCell>
        <mxCell id="f6QQn7eRvwNJcWND32Lu-17" value="" style="shape=tableRow;horizontal=0;startSize=0;swimlaneHead=0;swimlaneBody=0;strokeColor=inherit;top=0;left=0;bottom=0;right=0;collapsible=0;dropTarget=0;fillColor=none;points=[[0,0.5],[1,0.5]];portConstraint=eastwest;" parent="f6QQn7eRvwNJcWND32Lu-1" vertex="1">
          <mxGeometry y="150" width="510.00000000000273" height="40" as="geometry" />
        </mxCell>
        <mxCell id="f6QQn7eRvwNJcWND32Lu-18" value="2" style="shape=partialRectangle;html=1;whiteSpace=wrap;connectable=0;strokeColor=inherit;overflow=hidden;fillColor=none;top=0;left=0;bottom=0;right=0;pointerEvents=1;" parent="f6QQn7eRvwNJcWND32Lu-17" vertex="1">
          <mxGeometry width="60" height="40" as="geometry">
            <mxRectangle width="60" height="40" as="alternateBounds" />
          </mxGeometry>
        </mxCell>
        <mxCell id="f6QQn7eRvwNJcWND32Lu-19" value="&lt;pre class=&quot;notranslate&quot; lang=&quot;plaintext&quot;&gt;&lt;code&gt;Cien Años de Soledad&lt;/code&gt;&lt;/pre&gt;" style="shape=partialRectangle;html=1;whiteSpace=wrap;connectable=0;strokeColor=inherit;overflow=hidden;fillColor=none;top=0;left=0;bottom=0;right=0;pointerEvents=1;" parent="f6QQn7eRvwNJcWND32Lu-17" vertex="1">
          <mxGeometry x="60" width="160" height="40" as="geometry">
            <mxRectangle width="160" height="40" as="alternateBounds" />
          </mxGeometry>
        </mxCell>
        <mxCell id="f6QQn7eRvwNJcWND32Lu-20" value="&lt;pre class=&quot;notranslate&quot; lang=&quot;plaintext&quot;&gt;&lt;code&gt;Gabriel García Márquez&lt;/code&gt;&lt;/pre&gt;" style="shape=partialRectangle;html=1;whiteSpace=wrap;connectable=0;strokeColor=inherit;overflow=hidden;fillColor=none;top=0;left=0;bottom=0;right=0;pointerEvents=1;" parent="f6QQn7eRvwNJcWND32Lu-17" vertex="1">
          <mxGeometry x="220" width="170" height="40" as="geometry">
            <mxRectangle width="170" height="40" as="alternateBounds" />
          </mxGeometry>
        </mxCell>
        <mxCell id="f6QQn7eRvwNJcWND32Lu-21" value="&lt;pre class=&quot;notranslate&quot; lang=&quot;plaintext&quot;&gt;&lt;code&gt;Realismo Mágico&lt;/code&gt;&lt;/pre&gt;" style="shape=partialRectangle;html=1;whiteSpace=wrap;connectable=0;strokeColor=inherit;overflow=hidden;fillColor=none;top=0;left=0;bottom=0;right=0;pointerEvents=1;" parent="f6QQn7eRvwNJcWND32Lu-17" vertex="1">
          <mxGeometry x="390" width="120" height="40" as="geometry">
            <mxRectangle width="120" height="40" as="alternateBounds" />
          </mxGeometry>
        </mxCell>
        <mxCell id="f6QQn7eRvwNJcWND32Lu-22" value="" style="shape=tableRow;horizontal=0;startSize=0;swimlaneHead=0;swimlaneBody=0;strokeColor=inherit;top=0;left=0;bottom=0;right=0;collapsible=0;dropTarget=0;fillColor=none;points=[[0,0.5],[1,0.5]];portConstraint=eastwest;" parent="f6QQn7eRvwNJcWND32Lu-1" vertex="1">
          <mxGeometry y="190" width="510.00000000000273" height="40" as="geometry" />
        </mxCell>
        <mxCell id="f6QQn7eRvwNJcWND32Lu-23" value="2" style="shape=partialRectangle;html=1;whiteSpace=wrap;connectable=0;strokeColor=inherit;overflow=hidden;fillColor=none;top=0;left=0;bottom=0;right=0;pointerEvents=1;" parent="f6QQn7eRvwNJcWND32Lu-22" vertex="1">
          <mxGeometry width="60" height="40" as="geometry">
            <mxRectangle width="60" height="40" as="alternateBounds" />
          </mxGeometry>
        </mxCell>
        <mxCell id="f6QQn7eRvwNJcWND32Lu-24" value="&lt;pre class=&quot;notranslate&quot; lang=&quot;plaintext&quot;&gt;&lt;code&gt;Cien Años de Soledad&lt;/code&gt;&lt;/pre&gt;" style="shape=partialRectangle;html=1;whiteSpace=wrap;connectable=0;strokeColor=inherit;overflow=hidden;fillColor=none;top=0;left=0;bottom=0;right=0;pointerEvents=1;" parent="f6QQn7eRvwNJcWND32Lu-22" vertex="1">
          <mxGeometry x="60" width="160" height="40" as="geometry">
            <mxRectangle width="160" height="40" as="alternateBounds" />
          </mxGeometry>
        </mxCell>
        <mxCell id="f6QQn7eRvwNJcWND32Lu-25" value="&lt;pre class=&quot;notranslate&quot; lang=&quot;plaintext&quot;&gt;&lt;code&gt;Gabriel García Márquez&lt;/code&gt;&lt;/pre&gt;" style="shape=partialRectangle;html=1;whiteSpace=wrap;connectable=0;strokeColor=inherit;overflow=hidden;fillColor=none;top=0;left=0;bottom=0;right=0;pointerEvents=1;" parent="f6QQn7eRvwNJcWND32Lu-22" vertex="1">
          <mxGeometry x="220" width="170" height="40" as="geometry">
            <mxRectangle width="170" height="40" as="alternateBounds" />
          </mxGeometry>
        </mxCell>
        <mxCell id="f6QQn7eRvwNJcWND32Lu-26" value="&lt;pre class=&quot;notranslate&quot; lang=&quot;plaintext&quot;&gt;&lt;code&gt;Novela&lt;/code&gt;&lt;/pre&gt;" style="shape=partialRectangle;html=1;whiteSpace=wrap;connectable=0;strokeColor=inherit;overflow=hidden;fillColor=none;top=0;left=0;bottom=0;right=0;pointerEvents=1;" parent="f6QQn7eRvwNJcWND32Lu-22" vertex="1">
          <mxGeometry x="390" width="120" height="40" as="geometry">
            <mxRectangle width="120" height="40" as="alternateBounds" />
          </mxGeometry>
        </mxCell>
        <mxCell id="f6QQn7eRvwNJcWND32Lu-27" value="" style="shape=tableRow;horizontal=0;startSize=0;swimlaneHead=0;swimlaneBody=0;strokeColor=inherit;top=0;left=0;bottom=0;right=0;collapsible=0;dropTarget=0;fillColor=none;points=[[0,0.5],[1,0.5]];portConstraint=eastwest;" parent="f6QQn7eRvwNJcWND32Lu-1" vertex="1">
          <mxGeometry y="230" width="510.00000000000273" height="40" as="geometry" />
        </mxCell>
        <mxCell id="f6QQn7eRvwNJcWND32Lu-28" value="3" style="shape=partialRectangle;html=1;whiteSpace=wrap;connectable=0;strokeColor=inherit;overflow=hidden;fillColor=none;top=0;left=0;bottom=0;right=0;pointerEvents=1;" parent="f6QQn7eRvwNJcWND32Lu-27" vertex="1">
          <mxGeometry width="60" height="40" as="geometry">
            <mxRectangle width="60" height="40" as="alternateBounds" />
          </mxGeometry>
        </mxCell>
        <mxCell id="f6QQn7eRvwNJcWND32Lu-29" value="&lt;pre class=&quot;notranslate&quot; lang=&quot;plaintext&quot;&gt;&lt;code&gt;La Odisea&lt;/code&gt;&lt;/pre&gt;" style="shape=partialRectangle;html=1;whiteSpace=wrap;connectable=0;strokeColor=inherit;overflow=hidden;fillColor=none;top=0;left=0;bottom=0;right=0;pointerEvents=1;" parent="f6QQn7eRvwNJcWND32Lu-27" vertex="1">
          <mxGeometry x="60" width="160" height="40" as="geometry">
            <mxRectangle width="160" height="40" as="alternateBounds" />
          </mxGeometry>
        </mxCell>
        <mxCell id="f6QQn7eRvwNJcWND32Lu-30" value="&lt;pre class=&quot;notranslate&quot; lang=&quot;plaintext&quot;&gt;&lt;code&gt;Homero&lt;/code&gt;&lt;/pre&gt;" style="shape=partialRectangle;html=1;whiteSpace=wrap;connectable=0;strokeColor=inherit;overflow=hidden;fillColor=none;top=0;left=0;bottom=0;right=0;pointerEvents=1;" parent="f6QQn7eRvwNJcWND32Lu-27" vertex="1">
          <mxGeometry x="220" width="170" height="40" as="geometry">
            <mxRectangle width="170" height="40" as="alternateBounds" />
          </mxGeometry>
        </mxCell>
        <mxCell id="f6QQn7eRvwNJcWND32Lu-31" value="&lt;pre class=&quot;notranslate&quot; lang=&quot;plaintext&quot;&gt;&lt;code&gt;Épica&lt;/code&gt;&lt;/pre&gt;" style="shape=partialRectangle;html=1;whiteSpace=wrap;connectable=0;strokeColor=inherit;overflow=hidden;fillColor=none;top=0;left=0;bottom=0;right=0;pointerEvents=1;" parent="f6QQn7eRvwNJcWND32Lu-27" vertex="1">
          <mxGeometry x="390" width="120" height="40" as="geometry">
            <mxRectangle width="120" height="40" as="alternateBounds" />
          </mxGeometry>
        </mxCell>
        <mxCell id="f6QQn7eRvwNJcWND32Lu-32" value="" style="shape=tableRow;horizontal=0;startSize=0;swimlaneHead=0;swimlaneBody=0;strokeColor=inherit;top=0;left=0;bottom=0;right=0;collapsible=0;dropTarget=0;fillColor=none;points=[[0,0.5],[1,0.5]];portConstraint=eastwest;" parent="f6QQn7eRvwNJcWND32Lu-1" vertex="1">
          <mxGeometry y="270" width="510.00000000000273" height="40" as="geometry" />
        </mxCell>
        <mxCell id="f6QQn7eRvwNJcWND32Lu-33" value="3" style="shape=partialRectangle;html=1;whiteSpace=wrap;connectable=0;strokeColor=inherit;overflow=hidden;fillColor=none;top=0;left=0;bottom=0;right=0;pointerEvents=1;" parent="f6QQn7eRvwNJcWND32Lu-32" vertex="1">
          <mxGeometry width="60" height="40" as="geometry">
            <mxRectangle width="60" height="40" as="alternateBounds" />
          </mxGeometry>
        </mxCell>
        <mxCell id="f6QQn7eRvwNJcWND32Lu-34" value="&lt;pre class=&quot;notranslate&quot; lang=&quot;plaintext&quot;&gt;&lt;code&gt;La Odisea&lt;/code&gt;&lt;/pre&gt;" style="shape=partialRectangle;html=1;whiteSpace=wrap;connectable=0;strokeColor=inherit;overflow=hidden;fillColor=none;top=0;left=0;bottom=0;right=0;pointerEvents=1;" parent="f6QQn7eRvwNJcWND32Lu-32" vertex="1">
          <mxGeometry x="60" width="160" height="40" as="geometry">
            <mxRectangle width="160" height="40" as="alternateBounds" />
          </mxGeometry>
        </mxCell>
        <mxCell id="f6QQn7eRvwNJcWND32Lu-35" value="&lt;pre class=&quot;notranslate&quot; lang=&quot;plaintext&quot;&gt;&lt;code&gt;Homero&lt;/code&gt;&lt;/pre&gt;" style="shape=partialRectangle;html=1;whiteSpace=wrap;connectable=0;strokeColor=inherit;overflow=hidden;fillColor=none;top=0;left=0;bottom=0;right=0;pointerEvents=1;" parent="f6QQn7eRvwNJcWND32Lu-32" vertex="1">
          <mxGeometry x="220" width="170" height="40" as="geometry">
            <mxRectangle width="170" height="40" as="alternateBounds" />
          </mxGeometry>
        </mxCell>
        <mxCell id="f6QQn7eRvwNJcWND32Lu-36" value="&lt;pre class=&quot;notranslate&quot; lang=&quot;plaintext&quot;&gt;&lt;code&gt;Clásico&lt;/code&gt;&lt;/pre&gt;" style="shape=partialRectangle;html=1;whiteSpace=wrap;connectable=0;strokeColor=inherit;overflow=hidden;fillColor=none;top=0;left=0;bottom=0;right=0;pointerEvents=1;" parent="f6QQn7eRvwNJcWND32Lu-32" vertex="1">
          <mxGeometry x="390" width="120" height="40" as="geometry">
            <mxRectangle width="120" height="40" as="alternateBounds" />
          </mxGeometry>
        </mxCell>
        <mxCell id="f6QQn7eRvwNJcWND32Lu-37" value="" style="shape=tableRow;horizontal=0;startSize=0;swimlaneHead=0;swimlaneBody=0;strokeColor=inherit;top=0;left=0;bottom=0;right=0;collapsible=0;dropTarget=0;fillColor=none;points=[[0,0.5],[1,0.5]];portConstraint=eastwest;" parent="f6QQn7eRvwNJcWND32Lu-1" vertex="1">
          <mxGeometry y="310" width="510.00000000000273" height="40" as="geometry" />
        </mxCell>
        <mxCell id="f6QQn7eRvwNJcWND32Lu-38" value="4" style="shape=partialRectangle;html=1;whiteSpace=wrap;connectable=0;strokeColor=inherit;overflow=hidden;fillColor=none;top=0;left=0;bottom=0;right=0;pointerEvents=1;" parent="f6QQn7eRvwNJcWND32Lu-37" vertex="1">
          <mxGeometry width="60" height="40" as="geometry">
            <mxRectangle width="60" height="40" as="alternateBounds" />
          </mxGeometry>
        </mxCell>
        <mxCell id="f6QQn7eRvwNJcWND32Lu-39" value="&lt;pre class=&quot;notranslate&quot; lang=&quot;plaintext&quot;&gt;&lt;code&gt;Good Omens&lt;/code&gt;&lt;/pre&gt;" style="shape=partialRectangle;html=1;whiteSpace=wrap;connectable=0;strokeColor=inherit;overflow=hidden;fillColor=none;top=0;left=0;bottom=0;right=0;pointerEvents=1;" parent="f6QQn7eRvwNJcWND32Lu-37" vertex="1">
          <mxGeometry x="60" width="160" height="40" as="geometry">
            <mxRectangle width="160" height="40" as="alternateBounds" />
          </mxGeometry>
        </mxCell>
        <mxCell id="f6QQn7eRvwNJcWND32Lu-40" value="&lt;pre class=&quot;notranslate&quot; lang=&quot;plaintext&quot;&gt;&lt;code&gt;Neil_Gaiman&lt;/code&gt;&lt;/pre&gt;" style="shape=partialRectangle;html=1;whiteSpace=wrap;connectable=0;strokeColor=inherit;overflow=hidden;fillColor=none;top=0;left=0;bottom=0;right=0;pointerEvents=1;" parent="f6QQn7eRvwNJcWND32Lu-37" vertex="1">
          <mxGeometry x="220" width="170" height="40" as="geometry">
            <mxRectangle width="170" height="40" as="alternateBounds" />
          </mxGeometry>
        </mxCell>
        <mxCell id="f6QQn7eRvwNJcWND32Lu-41" value="&lt;pre class=&quot;notranslate&quot; lang=&quot;plaintext&quot;&gt;&lt;code&gt;Fantasía&lt;/code&gt;&lt;/pre&gt;" style="shape=partialRectangle;html=1;whiteSpace=wrap;connectable=0;strokeColor=inherit;overflow=hidden;fillColor=none;top=0;left=0;bottom=0;right=0;pointerEvents=1;" parent="f6QQn7eRvwNJcWND32Lu-37" vertex="1">
          <mxGeometry x="390" width="120" height="40" as="geometry">
            <mxRectangle width="120" height="40" as="alternateBounds" />
          </mxGeometry>
        </mxCell>
        <mxCell id="f6QQn7eRvwNJcWND32Lu-42" value="" style="shape=tableRow;horizontal=0;startSize=0;swimlaneHead=0;swimlaneBody=0;strokeColor=inherit;top=0;left=0;bottom=0;right=0;collapsible=0;dropTarget=0;fillColor=none;points=[[0,0.5],[1,0.5]];portConstraint=eastwest;" parent="f6QQn7eRvwNJcWND32Lu-1" vertex="1">
          <mxGeometry y="350" width="510.00000000000273" height="40" as="geometry" />
        </mxCell>
        <mxCell id="f6QQn7eRvwNJcWND32Lu-43" value="4" style="shape=partialRectangle;html=1;whiteSpace=wrap;connectable=0;strokeColor=inherit;overflow=hidden;fillColor=none;top=0;left=0;bottom=0;right=0;pointerEvents=1;" parent="f6QQn7eRvwNJcWND32Lu-42" vertex="1">
          <mxGeometry width="60" height="40" as="geometry">
            <mxRectangle width="60" height="40" as="alternateBounds" />
          </mxGeometry>
        </mxCell>
        <mxCell id="f6QQn7eRvwNJcWND32Lu-44" value="&lt;pre class=&quot;notranslate&quot; lang=&quot;plaintext&quot;&gt;&lt;code&gt;Good Omens&lt;/code&gt;&lt;/pre&gt;" style="shape=partialRectangle;html=1;whiteSpace=wrap;connectable=0;strokeColor=inherit;overflow=hidden;fillColor=none;top=0;left=0;bottom=0;right=0;pointerEvents=1;" parent="f6QQn7eRvwNJcWND32Lu-42" vertex="1">
          <mxGeometry x="60" width="160" height="40" as="geometry">
            <mxRectangle width="160" height="40" as="alternateBounds" />
          </mxGeometry>
        </mxCell>
        <mxCell id="f6QQn7eRvwNJcWND32Lu-45" value="&lt;pre class=&quot;notranslate&quot; lang=&quot;plaintext&quot;&gt;&lt;code&gt;Neil_Gaiman&lt;/code&gt;&lt;/pre&gt;" style="shape=partialRectangle;html=1;whiteSpace=wrap;connectable=0;strokeColor=inherit;overflow=hidden;fillColor=none;top=0;left=0;bottom=0;right=0;pointerEvents=1;" parent="f6QQn7eRvwNJcWND32Lu-42" vertex="1">
          <mxGeometry x="220" width="170" height="40" as="geometry">
            <mxRectangle width="170" height="40" as="alternateBounds" />
          </mxGeometry>
        </mxCell>
        <mxCell id="f6QQn7eRvwNJcWND32Lu-46" value="&lt;pre class=&quot;notranslate&quot; lang=&quot;plaintext&quot;&gt;&lt;code&gt;Comedia&lt;/code&gt;&lt;/pre&gt;" style="shape=partialRectangle;html=1;whiteSpace=wrap;connectable=0;strokeColor=inherit;overflow=hidden;fillColor=none;top=0;left=0;bottom=0;right=0;pointerEvents=1;" parent="f6QQn7eRvwNJcWND32Lu-42" vertex="1">
          <mxGeometry x="390" width="120" height="40" as="geometry">
            <mxRectangle width="120" height="40" as="alternateBounds" />
          </mxGeometry>
        </mxCell>
        <mxCell id="f6QQn7eRvwNJcWND32Lu-47" value="" style="shape=tableRow;horizontal=0;startSize=0;swimlaneHead=0;swimlaneBody=0;strokeColor=inherit;top=0;left=0;bottom=0;right=0;collapsible=0;dropTarget=0;fillColor=none;points=[[0,0.5],[1,0.5]];portConstraint=eastwest;" parent="f6QQn7eRvwNJcWND32Lu-1" vertex="1">
          <mxGeometry y="390" width="510.00000000000273" height="40" as="geometry" />
        </mxCell>
        <mxCell id="f6QQn7eRvwNJcWND32Lu-48" value="4" style="shape=partialRectangle;html=1;whiteSpace=wrap;connectable=0;strokeColor=inherit;overflow=hidden;fillColor=none;top=0;left=0;bottom=0;right=0;pointerEvents=1;" parent="f6QQn7eRvwNJcWND32Lu-47" vertex="1">
          <mxGeometry width="60" height="40" as="geometry">
            <mxRectangle width="60" height="40" as="alternateBounds" />
          </mxGeometry>
        </mxCell>
        <mxCell id="f6QQn7eRvwNJcWND32Lu-49" value="&lt;pre class=&quot;notranslate&quot; lang=&quot;plaintext&quot;&gt;&lt;code&gt;Good Omens&lt;/code&gt;&lt;/pre&gt;" style="shape=partialRectangle;html=1;whiteSpace=wrap;connectable=0;strokeColor=inherit;overflow=hidden;fillColor=none;top=0;left=0;bottom=0;right=0;pointerEvents=1;" parent="f6QQn7eRvwNJcWND32Lu-47" vertex="1">
          <mxGeometry x="60" width="160" height="40" as="geometry">
            <mxRectangle width="160" height="40" as="alternateBounds" />
          </mxGeometry>
        </mxCell>
        <mxCell id="f6QQn7eRvwNJcWND32Lu-50" value="&lt;pre class=&quot;notranslate&quot; lang=&quot;plaintext&quot;&gt;&lt;code&gt;Terry Pratchett&lt;/code&gt;&lt;/pre&gt;" style="shape=partialRectangle;html=1;whiteSpace=wrap;connectable=0;strokeColor=inherit;overflow=hidden;fillColor=none;top=0;left=0;bottom=0;right=0;pointerEvents=1;" parent="f6QQn7eRvwNJcWND32Lu-47" vertex="1">
          <mxGeometry x="220" width="170" height="40" as="geometry">
            <mxRectangle width="170" height="40" as="alternateBounds" />
          </mxGeometry>
        </mxCell>
        <mxCell id="f6QQn7eRvwNJcWND32Lu-51" value="&lt;pre class=&quot;notranslate&quot; lang=&quot;plaintext&quot;&gt;&lt;code&gt;Fantasía&lt;/code&gt;&lt;/pre&gt;" style="shape=partialRectangle;html=1;whiteSpace=wrap;connectable=0;strokeColor=inherit;overflow=hidden;fillColor=none;top=0;left=0;bottom=0;right=0;pointerEvents=1;" parent="f6QQn7eRvwNJcWND32Lu-47" vertex="1">
          <mxGeometry x="390" width="120" height="40" as="geometry">
            <mxRectangle width="120" height="40" as="alternateBounds" />
          </mxGeometry>
        </mxCell>
        <mxCell id="f6QQn7eRvwNJcWND32Lu-52" value="" style="shape=tableRow;horizontal=0;startSize=0;swimlaneHead=0;swimlaneBody=0;strokeColor=inherit;top=0;left=0;bottom=0;right=0;collapsible=0;dropTarget=0;fillColor=none;points=[[0,0.5],[1,0.5]];portConstraint=eastwest;" parent="f6QQn7eRvwNJcWND32Lu-1" vertex="1">
          <mxGeometry y="430" width="510.00000000000273" height="40" as="geometry" />
        </mxCell>
        <mxCell id="f6QQn7eRvwNJcWND32Lu-53" value="4" style="shape=partialRectangle;html=1;whiteSpace=wrap;connectable=0;strokeColor=inherit;overflow=hidden;fillColor=none;top=0;left=0;bottom=0;right=0;pointerEvents=1;" parent="f6QQn7eRvwNJcWND32Lu-52" vertex="1">
          <mxGeometry width="60" height="40" as="geometry">
            <mxRectangle width="60" height="40" as="alternateBounds" />
          </mxGeometry>
        </mxCell>
        <mxCell id="f6QQn7eRvwNJcWND32Lu-54" value="&lt;pre class=&quot;notranslate&quot; lang=&quot;plaintext&quot;&gt;&lt;code&gt;Good Omens&lt;/code&gt;&lt;/pre&gt;" style="shape=partialRectangle;html=1;whiteSpace=wrap;connectable=0;strokeColor=inherit;overflow=hidden;fillColor=none;top=0;left=0;bottom=0;right=0;pointerEvents=1;" parent="f6QQn7eRvwNJcWND32Lu-52" vertex="1">
          <mxGeometry x="60" width="160" height="40" as="geometry">
            <mxRectangle width="160" height="40" as="alternateBounds" />
          </mxGeometry>
        </mxCell>
        <mxCell id="f6QQn7eRvwNJcWND32Lu-55" value="&lt;pre class=&quot;notranslate&quot; lang=&quot;plaintext&quot;&gt;&lt;code&gt;Terry Pratchett&lt;/code&gt;&lt;/pre&gt;" style="shape=partialRectangle;html=1;whiteSpace=wrap;connectable=0;strokeColor=inherit;overflow=hidden;fillColor=none;top=0;left=0;bottom=0;right=0;pointerEvents=1;" parent="f6QQn7eRvwNJcWND32Lu-52" vertex="1">
          <mxGeometry x="220" width="170" height="40" as="geometry">
            <mxRectangle width="170" height="40" as="alternateBounds" />
          </mxGeometry>
        </mxCell>
        <mxCell id="f6QQn7eRvwNJcWND32Lu-56" value="&lt;pre class=&quot;notranslate&quot; lang=&quot;plaintext&quot;&gt;&lt;code&gt;Comedia&lt;/code&gt;&lt;/pre&gt;" style="shape=partialRectangle;html=1;whiteSpace=wrap;connectable=0;strokeColor=inherit;overflow=hidden;fillColor=none;top=0;left=0;bottom=0;right=0;pointerEvents=1;" parent="f6QQn7eRvwNJcWND32Lu-52" vertex="1">
          <mxGeometry x="390" width="120" height="40" as="geometry">
            <mxRectangle width="120" height="40" as="alternateBounds" />
          </mxGeometry>
        </mxCell>
        <mxCell id="f6QQn7eRvwNJcWND32Lu-57" value="&lt;h2 tabindex=&quot;-1&quot; class=&quot;heading-element&quot; dir=&quot;auto&quot;&gt;Primera Forma Normal (1NF)&lt;/h2&gt;" style="text;whiteSpace=wrap;html=1;" parent="1" vertex="1">
          <mxGeometry x="4465" y="2060" width="280" height="70" as="geometry" />
        </mxCell>
        <mxCell id="f6QQn7eRvwNJcWND32Lu-58" value="clientes" style="shape=table;startSize=30;container=1;collapsible=0;childLayout=tableLayout;" parent="1" vertex="1">
          <mxGeometry x="5060" y="2130" width="300" height="150" as="geometry" />
        </mxCell>
        <mxCell id="f6QQn7eRvwNJcWND32Lu-59" value="" style="shape=tableRow;horizontal=0;startSize=0;swimlaneHead=0;swimlaneBody=0;strokeColor=inherit;top=0;left=0;bottom=0;right=0;collapsible=0;dropTarget=0;fillColor=none;points=[[0,0.5],[1,0.5]];portConstraint=eastwest;" parent="f6QQn7eRvwNJcWND32Lu-58" vertex="1">
          <mxGeometry y="30" width="300" height="40" as="geometry" />
        </mxCell>
        <mxCell id="f6QQn7eRvwNJcWND32Lu-60" value="id_cliente" style="shape=partialRectangle;html=1;whiteSpace=wrap;connectable=0;strokeColor=inherit;overflow=hidden;fillColor=none;top=0;left=0;bottom=0;right=0;pointerEvents=1;" parent="f6QQn7eRvwNJcWND32Lu-59" vertex="1">
          <mxGeometry width="60" height="40" as="geometry">
            <mxRectangle width="60" height="40" as="alternateBounds" />
          </mxGeometry>
        </mxCell>
        <mxCell id="f6QQn7eRvwNJcWND32Lu-61" value="nombre" style="shape=partialRectangle;html=1;whiteSpace=wrap;connectable=0;strokeColor=inherit;overflow=hidden;fillColor=none;top=0;left=0;bottom=0;right=0;pointerEvents=1;" parent="f6QQn7eRvwNJcWND32Lu-59" vertex="1">
          <mxGeometry x="60" width="80" height="40" as="geometry">
            <mxRectangle width="80" height="40" as="alternateBounds" />
          </mxGeometry>
        </mxCell>
        <mxCell id="f6QQn7eRvwNJcWND32Lu-62" value="direccion" style="shape=partialRectangle;html=1;whiteSpace=wrap;connectable=0;strokeColor=inherit;overflow=hidden;fillColor=none;top=0;left=0;bottom=0;right=0;pointerEvents=1;" parent="f6QQn7eRvwNJcWND32Lu-59" vertex="1">
          <mxGeometry x="140" width="160" height="40" as="geometry">
            <mxRectangle width="160" height="40" as="alternateBounds" />
          </mxGeometry>
        </mxCell>
        <mxCell id="f6QQn7eRvwNJcWND32Lu-63" value="" style="shape=tableRow;horizontal=0;startSize=0;swimlaneHead=0;swimlaneBody=0;strokeColor=inherit;top=0;left=0;bottom=0;right=0;collapsible=0;dropTarget=0;fillColor=none;points=[[0,0.5],[1,0.5]];portConstraint=eastwest;" parent="f6QQn7eRvwNJcWND32Lu-58" vertex="1">
          <mxGeometry y="70" width="300" height="40" as="geometry" />
        </mxCell>
        <mxCell id="f6QQn7eRvwNJcWND32Lu-64" value="1" style="shape=partialRectangle;html=1;whiteSpace=wrap;connectable=0;strokeColor=inherit;overflow=hidden;fillColor=none;top=0;left=0;bottom=0;right=0;pointerEvents=1;" parent="f6QQn7eRvwNJcWND32Lu-63" vertex="1">
          <mxGeometry width="60" height="40" as="geometry">
            <mxRectangle width="60" height="40" as="alternateBounds" />
          </mxGeometry>
        </mxCell>
        <mxCell id="f6QQn7eRvwNJcWND32Lu-65" value="&lt;pre class=&quot;notranslate&quot; lang=&quot;plaintext&quot;&gt;&lt;code&gt;Juan_Pérez&lt;/code&gt;&lt;/pre&gt;" style="shape=partialRectangle;html=1;whiteSpace=wrap;connectable=0;strokeColor=inherit;overflow=hidden;fillColor=none;top=0;left=0;bottom=0;right=0;pointerEvents=1;" parent="f6QQn7eRvwNJcWND32Lu-63" vertex="1">
          <mxGeometry x="60" width="80" height="40" as="geometry">
            <mxRectangle width="80" height="40" as="alternateBounds" />
          </mxGeometry>
        </mxCell>
        <mxCell id="f6QQn7eRvwNJcWND32Lu-66" value="&lt;pre class=&quot;notranslate&quot; lang=&quot;plaintext&quot;&gt;&lt;code&gt;Calle 123, Ciudad A&lt;/code&gt;&lt;/pre&gt;" style="shape=partialRectangle;html=1;whiteSpace=wrap;connectable=0;strokeColor=inherit;overflow=hidden;fillColor=none;top=0;left=0;bottom=0;right=0;pointerEvents=1;" parent="f6QQn7eRvwNJcWND32Lu-63" vertex="1">
          <mxGeometry x="140" width="160" height="40" as="geometry">
            <mxRectangle width="160" height="40" as="alternateBounds" />
          </mxGeometry>
        </mxCell>
        <mxCell id="f6QQn7eRvwNJcWND32Lu-67" value="" style="shape=tableRow;horizontal=0;startSize=0;swimlaneHead=0;swimlaneBody=0;strokeColor=inherit;top=0;left=0;bottom=0;right=0;collapsible=0;dropTarget=0;fillColor=none;points=[[0,0.5],[1,0.5]];portConstraint=eastwest;" parent="f6QQn7eRvwNJcWND32Lu-58" vertex="1">
          <mxGeometry y="110" width="300" height="40" as="geometry" />
        </mxCell>
        <mxCell id="f6QQn7eRvwNJcWND32Lu-68" value="2" style="shape=partialRectangle;html=1;whiteSpace=wrap;connectable=0;strokeColor=inherit;overflow=hidden;fillColor=none;top=0;left=0;bottom=0;right=0;pointerEvents=1;" parent="f6QQn7eRvwNJcWND32Lu-67" vertex="1">
          <mxGeometry width="60" height="40" as="geometry">
            <mxRectangle width="60" height="40" as="alternateBounds" />
          </mxGeometry>
        </mxCell>
        <mxCell id="f6QQn7eRvwNJcWND32Lu-69" value="&lt;pre class=&quot;notranslate&quot; lang=&quot;plaintext&quot;&gt;&lt;code&gt;Ana_Gómez&lt;/code&gt;&lt;/pre&gt;" style="shape=partialRectangle;html=1;whiteSpace=wrap;connectable=0;strokeColor=inherit;overflow=hidden;fillColor=none;top=0;left=0;bottom=0;right=0;pointerEvents=1;" parent="f6QQn7eRvwNJcWND32Lu-67" vertex="1">
          <mxGeometry x="60" width="80" height="40" as="geometry">
            <mxRectangle width="80" height="40" as="alternateBounds" />
          </mxGeometry>
        </mxCell>
        <mxCell id="f6QQn7eRvwNJcWND32Lu-70" value="&lt;pre class=&quot;notranslate&quot; lang=&quot;plaintext&quot;&gt;&lt;code&gt;Avenida 456, Ciudad B&lt;/code&gt;&lt;/pre&gt;" style="shape=partialRectangle;html=1;whiteSpace=wrap;connectable=0;strokeColor=inherit;overflow=hidden;fillColor=none;top=0;left=0;bottom=0;right=0;pointerEvents=1;" parent="f6QQn7eRvwNJcWND32Lu-67" vertex="1">
          <mxGeometry x="140" width="160" height="40" as="geometry">
            <mxRectangle width="160" height="40" as="alternateBounds" />
          </mxGeometry>
        </mxCell>
        <mxCell id="f6QQn7eRvwNJcWND32Lu-71" value="productos" style="shape=table;startSize=30;container=1;collapsible=0;childLayout=tableLayout;" parent="1" vertex="1">
          <mxGeometry x="5050" y="2320" width="210" height="190" as="geometry" />
        </mxCell>
        <mxCell id="f6QQn7eRvwNJcWND32Lu-72" value="" style="shape=tableRow;horizontal=0;startSize=0;swimlaneHead=0;swimlaneBody=0;strokeColor=inherit;top=0;left=0;bottom=0;right=0;collapsible=0;dropTarget=0;fillColor=none;points=[[0,0.5],[1,0.5]];portConstraint=eastwest;" parent="f6QQn7eRvwNJcWND32Lu-71" vertex="1">
          <mxGeometry y="30" width="210" height="40" as="geometry" />
        </mxCell>
        <mxCell id="f6QQn7eRvwNJcWND32Lu-73" value="id_producto" style="shape=partialRectangle;html=1;whiteSpace=wrap;connectable=0;strokeColor=inherit;overflow=hidden;fillColor=none;top=0;left=0;bottom=0;right=0;pointerEvents=1;" parent="f6QQn7eRvwNJcWND32Lu-72" vertex="1">
          <mxGeometry width="70" height="40" as="geometry">
            <mxRectangle width="70" height="40" as="alternateBounds" />
          </mxGeometry>
        </mxCell>
        <mxCell id="f6QQn7eRvwNJcWND32Lu-74" value="nombre" style="shape=partialRectangle;html=1;whiteSpace=wrap;connectable=0;strokeColor=inherit;overflow=hidden;fillColor=none;top=0;left=0;bottom=0;right=0;pointerEvents=1;" parent="f6QQn7eRvwNJcWND32Lu-72" vertex="1">
          <mxGeometry x="70" width="80" height="40" as="geometry">
            <mxRectangle width="80" height="40" as="alternateBounds" />
          </mxGeometry>
        </mxCell>
        <mxCell id="f6QQn7eRvwNJcWND32Lu-75" value="precio" style="shape=partialRectangle;html=1;whiteSpace=wrap;connectable=0;strokeColor=inherit;overflow=hidden;fillColor=none;top=0;left=0;bottom=0;right=0;pointerEvents=1;" parent="f6QQn7eRvwNJcWND32Lu-72" vertex="1">
          <mxGeometry x="150" width="60" height="40" as="geometry">
            <mxRectangle width="60" height="40" as="alternateBounds" />
          </mxGeometry>
        </mxCell>
        <mxCell id="f6QQn7eRvwNJcWND32Lu-76" value="" style="shape=tableRow;horizontal=0;startSize=0;swimlaneHead=0;swimlaneBody=0;strokeColor=inherit;top=0;left=0;bottom=0;right=0;collapsible=0;dropTarget=0;fillColor=none;points=[[0,0.5],[1,0.5]];portConstraint=eastwest;" parent="f6QQn7eRvwNJcWND32Lu-71" vertex="1">
          <mxGeometry y="70" width="210" height="40" as="geometry" />
        </mxCell>
        <mxCell id="f6QQn7eRvwNJcWND32Lu-77" value="101" style="shape=partialRectangle;html=1;whiteSpace=wrap;connectable=0;strokeColor=inherit;overflow=hidden;fillColor=none;top=0;left=0;bottom=0;right=0;pointerEvents=1;" parent="f6QQn7eRvwNJcWND32Lu-76" vertex="1">
          <mxGeometry width="70" height="40" as="geometry">
            <mxRectangle width="70" height="40" as="alternateBounds" />
          </mxGeometry>
        </mxCell>
        <mxCell id="f6QQn7eRvwNJcWND32Lu-78" value="&lt;pre class=&quot;notranslate&quot; lang=&quot;plaintext&quot;&gt;&lt;code&gt;Camiseta&lt;/code&gt;&lt;/pre&gt;" style="shape=partialRectangle;html=1;whiteSpace=wrap;connectable=0;strokeColor=inherit;overflow=hidden;fillColor=none;top=0;left=0;bottom=0;right=0;pointerEvents=1;" parent="f6QQn7eRvwNJcWND32Lu-76" vertex="1">
          <mxGeometry x="70" width="80" height="40" as="geometry">
            <mxRectangle width="80" height="40" as="alternateBounds" />
          </mxGeometry>
        </mxCell>
        <mxCell id="f6QQn7eRvwNJcWND32Lu-79" value="&lt;pre class=&quot;notranslate&quot; lang=&quot;plaintext&quot;&gt;2&lt;code&gt;0.00&lt;/code&gt;&lt;/pre&gt;" style="shape=partialRectangle;html=1;whiteSpace=wrap;connectable=0;strokeColor=inherit;overflow=hidden;fillColor=none;top=0;left=0;bottom=0;right=0;pointerEvents=1;" parent="f6QQn7eRvwNJcWND32Lu-76" vertex="1">
          <mxGeometry x="150" width="60" height="40" as="geometry">
            <mxRectangle width="60" height="40" as="alternateBounds" />
          </mxGeometry>
        </mxCell>
        <mxCell id="f6QQn7eRvwNJcWND32Lu-80" value="" style="shape=tableRow;horizontal=0;startSize=0;swimlaneHead=0;swimlaneBody=0;strokeColor=inherit;top=0;left=0;bottom=0;right=0;collapsible=0;dropTarget=0;fillColor=none;points=[[0,0.5],[1,0.5]];portConstraint=eastwest;" parent="f6QQn7eRvwNJcWND32Lu-71" vertex="1">
          <mxGeometry y="110" width="210" height="40" as="geometry" />
        </mxCell>
        <mxCell id="f6QQn7eRvwNJcWND32Lu-81" value="102" style="shape=partialRectangle;html=1;whiteSpace=wrap;connectable=0;strokeColor=inherit;overflow=hidden;fillColor=none;top=0;left=0;bottom=0;right=0;pointerEvents=1;" parent="f6QQn7eRvwNJcWND32Lu-80" vertex="1">
          <mxGeometry width="70" height="40" as="geometry">
            <mxRectangle width="70" height="40" as="alternateBounds" />
          </mxGeometry>
        </mxCell>
        <mxCell id="f6QQn7eRvwNJcWND32Lu-82" value="&lt;pre class=&quot;notranslate&quot; lang=&quot;plaintext&quot;&gt;&lt;code&gt;Pantalones&lt;/code&gt;&lt;/pre&gt;" style="shape=partialRectangle;html=1;whiteSpace=wrap;connectable=0;strokeColor=inherit;overflow=hidden;fillColor=none;top=0;left=0;bottom=0;right=0;pointerEvents=1;" parent="f6QQn7eRvwNJcWND32Lu-80" vertex="1">
          <mxGeometry x="70" width="80" height="40" as="geometry">
            <mxRectangle width="80" height="40" as="alternateBounds" />
          </mxGeometry>
        </mxCell>
        <mxCell id="f6QQn7eRvwNJcWND32Lu-83" value="&lt;pre class=&quot;notranslate&quot; lang=&quot;plaintext&quot;&gt;&lt;code&gt;25.00&lt;/code&gt;&lt;/pre&gt;" style="shape=partialRectangle;html=1;whiteSpace=wrap;connectable=0;strokeColor=inherit;overflow=hidden;fillColor=none;top=0;left=0;bottom=0;right=0;pointerEvents=1;" parent="f6QQn7eRvwNJcWND32Lu-80" vertex="1">
          <mxGeometry x="150" width="60" height="40" as="geometry">
            <mxRectangle width="60" height="40" as="alternateBounds" />
          </mxGeometry>
        </mxCell>
        <mxCell id="f6QQn7eRvwNJcWND32Lu-84" value="" style="shape=tableRow;horizontal=0;startSize=0;swimlaneHead=0;swimlaneBody=0;strokeColor=inherit;top=0;left=0;bottom=0;right=0;collapsible=0;dropTarget=0;fillColor=none;points=[[0,0.5],[1,0.5]];portConstraint=eastwest;" parent="f6QQn7eRvwNJcWND32Lu-71" vertex="1">
          <mxGeometry y="150" width="210" height="40" as="geometry" />
        </mxCell>
        <mxCell id="f6QQn7eRvwNJcWND32Lu-85" value="103" style="shape=partialRectangle;html=1;whiteSpace=wrap;connectable=0;strokeColor=inherit;overflow=hidden;fillColor=none;top=0;left=0;bottom=0;right=0;pointerEvents=1;" parent="f6QQn7eRvwNJcWND32Lu-84" vertex="1">
          <mxGeometry width="70" height="40" as="geometry">
            <mxRectangle width="70" height="40" as="alternateBounds" />
          </mxGeometry>
        </mxCell>
        <mxCell id="f6QQn7eRvwNJcWND32Lu-86" value="&lt;pre class=&quot;notranslate&quot; lang=&quot;plaintext&quot;&gt;&lt;code&gt;Zapatos&lt;/code&gt;&lt;/pre&gt;" style="shape=partialRectangle;html=1;whiteSpace=wrap;connectable=0;strokeColor=inherit;overflow=hidden;fillColor=none;top=0;left=0;bottom=0;right=0;pointerEvents=1;" parent="f6QQn7eRvwNJcWND32Lu-84" vertex="1">
          <mxGeometry x="70" width="80" height="40" as="geometry">
            <mxRectangle width="80" height="40" as="alternateBounds" />
          </mxGeometry>
        </mxCell>
        <mxCell id="f6QQn7eRvwNJcWND32Lu-87" value="&lt;pre class=&quot;notranslate&quot; lang=&quot;plaintext&quot;&gt;&lt;code&gt;50.00&lt;/code&gt;&lt;/pre&gt;" style="shape=partialRectangle;html=1;whiteSpace=wrap;connectable=0;strokeColor=inherit;overflow=hidden;fillColor=none;top=0;left=0;bottom=0;right=0;pointerEvents=1;" parent="f6QQn7eRvwNJcWND32Lu-84" vertex="1">
          <mxGeometry x="150" width="60" height="40" as="geometry">
            <mxRectangle width="60" height="40" as="alternateBounds" />
          </mxGeometry>
        </mxCell>
        <mxCell id="f6QQn7eRvwNJcWND32Lu-88" value="detalles_de_pedidos" style="shape=table;startSize=30;container=1;collapsible=0;childLayout=tableLayout;" parent="1" vertex="1">
          <mxGeometry x="5050" y="2545" width="310" height="230" as="geometry" />
        </mxCell>
        <mxCell id="f6QQn7eRvwNJcWND32Lu-89" value="" style="shape=tableRow;horizontal=0;startSize=0;swimlaneHead=0;swimlaneBody=0;strokeColor=inherit;top=0;left=0;bottom=0;right=0;collapsible=0;dropTarget=0;fillColor=none;points=[[0,0.5],[1,0.5]];portConstraint=eastwest;" parent="f6QQn7eRvwNJcWND32Lu-88" vertex="1">
          <mxGeometry y="30" width="310" height="40" as="geometry" />
        </mxCell>
        <mxCell id="f6QQn7eRvwNJcWND32Lu-90" value="id_pedido" style="shape=partialRectangle;html=1;whiteSpace=wrap;connectable=0;strokeColor=inherit;overflow=hidden;fillColor=none;top=0;left=0;bottom=0;right=0;pointerEvents=1;" parent="f6QQn7eRvwNJcWND32Lu-89" vertex="1">
          <mxGeometry width="70" height="40" as="geometry">
            <mxRectangle width="70" height="40" as="alternateBounds" />
          </mxGeometry>
        </mxCell>
        <mxCell id="f6QQn7eRvwNJcWND32Lu-91" value="id_cliente" style="shape=partialRectangle;html=1;whiteSpace=wrap;connectable=0;strokeColor=inherit;overflow=hidden;fillColor=none;top=0;left=0;bottom=0;right=0;pointerEvents=1;" parent="f6QQn7eRvwNJcWND32Lu-89" vertex="1">
          <mxGeometry x="70" width="80" height="40" as="geometry">
            <mxRectangle width="80" height="40" as="alternateBounds" />
          </mxGeometry>
        </mxCell>
        <mxCell id="f6QQn7eRvwNJcWND32Lu-92" value="id_producto" style="shape=partialRectangle;html=1;whiteSpace=wrap;connectable=0;strokeColor=inherit;overflow=hidden;fillColor=none;top=0;left=0;bottom=0;right=0;pointerEvents=1;" parent="f6QQn7eRvwNJcWND32Lu-89" vertex="1">
          <mxGeometry x="150" width="80" height="40" as="geometry">
            <mxRectangle width="80" height="40" as="alternateBounds" />
          </mxGeometry>
        </mxCell>
        <mxCell id="f6QQn7eRvwNJcWND32Lu-105" value="cantidad" style="shape=partialRectangle;html=1;whiteSpace=wrap;connectable=0;strokeColor=inherit;overflow=hidden;fillColor=none;top=0;left=0;bottom=0;right=0;pointerEvents=1;" parent="f6QQn7eRvwNJcWND32Lu-89" vertex="1">
          <mxGeometry x="230" width="80" height="40" as="geometry">
            <mxRectangle width="80" height="40" as="alternateBounds" />
          </mxGeometry>
        </mxCell>
        <mxCell id="f6QQn7eRvwNJcWND32Lu-93" value="" style="shape=tableRow;horizontal=0;startSize=0;swimlaneHead=0;swimlaneBody=0;strokeColor=inherit;top=0;left=0;bottom=0;right=0;collapsible=0;dropTarget=0;fillColor=none;points=[[0,0.5],[1,0.5]];portConstraint=eastwest;" parent="f6QQn7eRvwNJcWND32Lu-88" vertex="1">
          <mxGeometry y="70" width="310" height="40" as="geometry" />
        </mxCell>
        <mxCell id="f6QQn7eRvwNJcWND32Lu-94" value="1" style="shape=partialRectangle;html=1;whiteSpace=wrap;connectable=0;strokeColor=inherit;overflow=hidden;fillColor=none;top=0;left=0;bottom=0;right=0;pointerEvents=1;" parent="f6QQn7eRvwNJcWND32Lu-93" vertex="1">
          <mxGeometry width="70" height="40" as="geometry">
            <mxRectangle width="70" height="40" as="alternateBounds" />
          </mxGeometry>
        </mxCell>
        <mxCell id="f6QQn7eRvwNJcWND32Lu-95" value="1" style="shape=partialRectangle;html=1;whiteSpace=wrap;connectable=0;strokeColor=inherit;overflow=hidden;fillColor=none;top=0;left=0;bottom=0;right=0;pointerEvents=1;" parent="f6QQn7eRvwNJcWND32Lu-93" vertex="1">
          <mxGeometry x="70" width="80" height="40" as="geometry">
            <mxRectangle width="80" height="40" as="alternateBounds" />
          </mxGeometry>
        </mxCell>
        <mxCell id="f6QQn7eRvwNJcWND32Lu-96" value="101" style="shape=partialRectangle;html=1;whiteSpace=wrap;connectable=0;strokeColor=inherit;overflow=hidden;fillColor=none;top=0;left=0;bottom=0;right=0;pointerEvents=1;" parent="f6QQn7eRvwNJcWND32Lu-93" vertex="1">
          <mxGeometry x="150" width="80" height="40" as="geometry">
            <mxRectangle width="80" height="40" as="alternateBounds" />
          </mxGeometry>
        </mxCell>
        <mxCell id="f6QQn7eRvwNJcWND32Lu-106" value="1" style="shape=partialRectangle;html=1;whiteSpace=wrap;connectable=0;strokeColor=inherit;overflow=hidden;fillColor=none;top=0;left=0;bottom=0;right=0;pointerEvents=1;" parent="f6QQn7eRvwNJcWND32Lu-93" vertex="1">
          <mxGeometry x="230" width="80" height="40" as="geometry">
            <mxRectangle width="80" height="40" as="alternateBounds" />
          </mxGeometry>
        </mxCell>
        <mxCell id="f6QQn7eRvwNJcWND32Lu-97" value="" style="shape=tableRow;horizontal=0;startSize=0;swimlaneHead=0;swimlaneBody=0;strokeColor=inherit;top=0;left=0;bottom=0;right=0;collapsible=0;dropTarget=0;fillColor=none;points=[[0,0.5],[1,0.5]];portConstraint=eastwest;" parent="f6QQn7eRvwNJcWND32Lu-88" vertex="1">
          <mxGeometry y="110" width="310" height="40" as="geometry" />
        </mxCell>
        <mxCell id="f6QQn7eRvwNJcWND32Lu-98" value="1" style="shape=partialRectangle;html=1;whiteSpace=wrap;connectable=0;strokeColor=inherit;overflow=hidden;fillColor=none;top=0;left=0;bottom=0;right=0;pointerEvents=1;" parent="f6QQn7eRvwNJcWND32Lu-97" vertex="1">
          <mxGeometry width="70" height="40" as="geometry">
            <mxRectangle width="70" height="40" as="alternateBounds" />
          </mxGeometry>
        </mxCell>
        <mxCell id="f6QQn7eRvwNJcWND32Lu-99" value="1" style="shape=partialRectangle;html=1;whiteSpace=wrap;connectable=0;strokeColor=inherit;overflow=hidden;fillColor=none;top=0;left=0;bottom=0;right=0;pointerEvents=1;" parent="f6QQn7eRvwNJcWND32Lu-97" vertex="1">
          <mxGeometry x="70" width="80" height="40" as="geometry">
            <mxRectangle width="80" height="40" as="alternateBounds" />
          </mxGeometry>
        </mxCell>
        <mxCell id="f6QQn7eRvwNJcWND32Lu-100" value="102" style="shape=partialRectangle;html=1;whiteSpace=wrap;connectable=0;strokeColor=inherit;overflow=hidden;fillColor=none;top=0;left=0;bottom=0;right=0;pointerEvents=1;" parent="f6QQn7eRvwNJcWND32Lu-97" vertex="1">
          <mxGeometry x="150" width="80" height="40" as="geometry">
            <mxRectangle width="80" height="40" as="alternateBounds" />
          </mxGeometry>
        </mxCell>
        <mxCell id="f6QQn7eRvwNJcWND32Lu-107" value="1" style="shape=partialRectangle;html=1;whiteSpace=wrap;connectable=0;strokeColor=inherit;overflow=hidden;fillColor=none;top=0;left=0;bottom=0;right=0;pointerEvents=1;" parent="f6QQn7eRvwNJcWND32Lu-97" vertex="1">
          <mxGeometry x="230" width="80" height="40" as="geometry">
            <mxRectangle width="80" height="40" as="alternateBounds" />
          </mxGeometry>
        </mxCell>
        <mxCell id="f6QQn7eRvwNJcWND32Lu-101" value="" style="shape=tableRow;horizontal=0;startSize=0;swimlaneHead=0;swimlaneBody=0;strokeColor=inherit;top=0;left=0;bottom=0;right=0;collapsible=0;dropTarget=0;fillColor=none;points=[[0,0.5],[1,0.5]];portConstraint=eastwest;" parent="f6QQn7eRvwNJcWND32Lu-88" vertex="1">
          <mxGeometry y="150" width="310" height="40" as="geometry" />
        </mxCell>
        <mxCell id="f6QQn7eRvwNJcWND32Lu-102" value="2" style="shape=partialRectangle;html=1;whiteSpace=wrap;connectable=0;strokeColor=inherit;overflow=hidden;fillColor=none;top=0;left=0;bottom=0;right=0;pointerEvents=1;" parent="f6QQn7eRvwNJcWND32Lu-101" vertex="1">
          <mxGeometry width="70" height="40" as="geometry">
            <mxRectangle width="70" height="40" as="alternateBounds" />
          </mxGeometry>
        </mxCell>
        <mxCell id="f6QQn7eRvwNJcWND32Lu-103" value="2" style="shape=partialRectangle;html=1;whiteSpace=wrap;connectable=0;strokeColor=inherit;overflow=hidden;fillColor=none;top=0;left=0;bottom=0;right=0;pointerEvents=1;" parent="f6QQn7eRvwNJcWND32Lu-101" vertex="1">
          <mxGeometry x="70" width="80" height="40" as="geometry">
            <mxRectangle width="80" height="40" as="alternateBounds" />
          </mxGeometry>
        </mxCell>
        <mxCell id="f6QQn7eRvwNJcWND32Lu-104" value="101" style="shape=partialRectangle;html=1;whiteSpace=wrap;connectable=0;strokeColor=inherit;overflow=hidden;fillColor=none;top=0;left=0;bottom=0;right=0;pointerEvents=1;" parent="f6QQn7eRvwNJcWND32Lu-101" vertex="1">
          <mxGeometry x="150" width="80" height="40" as="geometry">
            <mxRectangle width="80" height="40" as="alternateBounds" />
          </mxGeometry>
        </mxCell>
        <mxCell id="f6QQn7eRvwNJcWND32Lu-108" value="1" style="shape=partialRectangle;html=1;whiteSpace=wrap;connectable=0;strokeColor=inherit;overflow=hidden;fillColor=none;top=0;left=0;bottom=0;right=0;pointerEvents=1;" parent="f6QQn7eRvwNJcWND32Lu-101" vertex="1">
          <mxGeometry x="230" width="80" height="40" as="geometry">
            <mxRectangle width="80" height="40" as="alternateBounds" />
          </mxGeometry>
        </mxCell>
        <mxCell id="f6QQn7eRvwNJcWND32Lu-109" value="" style="shape=tableRow;horizontal=0;startSize=0;swimlaneHead=0;swimlaneBody=0;strokeColor=inherit;top=0;left=0;bottom=0;right=0;collapsible=0;dropTarget=0;fillColor=none;points=[[0,0.5],[1,0.5]];portConstraint=eastwest;" parent="f6QQn7eRvwNJcWND32Lu-88" vertex="1">
          <mxGeometry y="190" width="310" height="40" as="geometry" />
        </mxCell>
        <mxCell id="f6QQn7eRvwNJcWND32Lu-110" value="2" style="shape=partialRectangle;html=1;whiteSpace=wrap;connectable=0;strokeColor=inherit;overflow=hidden;fillColor=none;top=0;left=0;bottom=0;right=0;pointerEvents=1;" parent="f6QQn7eRvwNJcWND32Lu-109" vertex="1">
          <mxGeometry width="70" height="40" as="geometry">
            <mxRectangle width="70" height="40" as="alternateBounds" />
          </mxGeometry>
        </mxCell>
        <mxCell id="f6QQn7eRvwNJcWND32Lu-111" value="2" style="shape=partialRectangle;html=1;whiteSpace=wrap;connectable=0;strokeColor=inherit;overflow=hidden;fillColor=none;top=0;left=0;bottom=0;right=0;pointerEvents=1;" parent="f6QQn7eRvwNJcWND32Lu-109" vertex="1">
          <mxGeometry x="70" width="80" height="40" as="geometry">
            <mxRectangle width="80" height="40" as="alternateBounds" />
          </mxGeometry>
        </mxCell>
        <mxCell id="f6QQn7eRvwNJcWND32Lu-112" value="103" style="shape=partialRectangle;html=1;whiteSpace=wrap;connectable=0;strokeColor=inherit;overflow=hidden;fillColor=none;top=0;left=0;bottom=0;right=0;pointerEvents=1;" parent="f6QQn7eRvwNJcWND32Lu-109" vertex="1">
          <mxGeometry x="150" width="80" height="40" as="geometry">
            <mxRectangle width="80" height="40" as="alternateBounds" />
          </mxGeometry>
        </mxCell>
        <mxCell id="f6QQn7eRvwNJcWND32Lu-113" value="1" style="shape=partialRectangle;html=1;whiteSpace=wrap;connectable=0;strokeColor=inherit;overflow=hidden;fillColor=none;top=0;left=0;bottom=0;right=0;pointerEvents=1;" parent="f6QQn7eRvwNJcWND32Lu-109" vertex="1">
          <mxGeometry x="230" width="80" height="40" as="geometry">
            <mxRectangle width="80" height="40" as="alternateBounds" />
          </mxGeometry>
        </mxCell>
        <mxCell id="f6QQn7eRvwNJcWND32Lu-114" value="&lt;h2 tabindex=&quot;-1&quot; class=&quot;heading-element&quot; dir=&quot;auto&quot;&gt;Segunda Forma Normal (2NF)&lt;/h2&gt;" style="text;whiteSpace=wrap;html=1;" parent="1" vertex="1">
          <mxGeometry x="5060" y="2060" width="280" height="70" as="geometry" />
        </mxCell>
        <mxCell id="f6QQn7eRvwNJcWND32Lu-116" value="&lt;h2 tabindex=&quot;-1&quot; class=&quot;heading-element&quot; dir=&quot;auto&quot;&gt;Tercera Forma Normal (3NF)&lt;/h2&gt;" style="text;whiteSpace=wrap;html=1;" parent="1" vertex="1">
          <mxGeometry x="5610" y="2060" width="280" height="70" as="geometry" />
        </mxCell>
        <mxCell id="f6QQn7eRvwNJcWND32Lu-118" value="pacientes" style="shape=table;startSize=30;container=1;collapsible=0;childLayout=tableLayout;" parent="1" vertex="1">
          <mxGeometry x="5610" y="2170" width="200" height="190" as="geometry" />
        </mxCell>
        <mxCell id="f6QQn7eRvwNJcWND32Lu-119" value="" style="shape=tableRow;horizontal=0;startSize=0;swimlaneHead=0;swimlaneBody=0;strokeColor=inherit;top=0;left=0;bottom=0;right=0;collapsible=0;dropTarget=0;fillColor=none;points=[[0,0.5],[1,0.5]];portConstraint=eastwest;" parent="f6QQn7eRvwNJcWND32Lu-118" vertex="1">
          <mxGeometry y="30" width="200" height="40" as="geometry" />
        </mxCell>
        <mxCell id="f6QQn7eRvwNJcWND32Lu-120" value="id_paciente" style="shape=partialRectangle;html=1;whiteSpace=wrap;connectable=0;strokeColor=inherit;overflow=hidden;fillColor=none;top=0;left=0;bottom=0;right=0;pointerEvents=1;" parent="f6QQn7eRvwNJcWND32Lu-119" vertex="1">
          <mxGeometry width="80" height="40" as="geometry">
            <mxRectangle width="80" height="40" as="alternateBounds" />
          </mxGeometry>
        </mxCell>
        <mxCell id="f6QQn7eRvwNJcWND32Lu-121" value="nombre" style="shape=partialRectangle;html=1;whiteSpace=wrap;connectable=0;strokeColor=inherit;overflow=hidden;fillColor=none;top=0;left=0;bottom=0;right=0;pointerEvents=1;" parent="f6QQn7eRvwNJcWND32Lu-119" vertex="1">
          <mxGeometry x="80" width="120" height="40" as="geometry">
            <mxRectangle width="120" height="40" as="alternateBounds" />
          </mxGeometry>
        </mxCell>
        <mxCell id="f6QQn7eRvwNJcWND32Lu-124" value="" style="shape=tableRow;horizontal=0;startSize=0;swimlaneHead=0;swimlaneBody=0;strokeColor=inherit;top=0;left=0;bottom=0;right=0;collapsible=0;dropTarget=0;fillColor=none;points=[[0,0.5],[1,0.5]];portConstraint=eastwest;" parent="f6QQn7eRvwNJcWND32Lu-118" vertex="1">
          <mxGeometry y="70" width="200" height="40" as="geometry" />
        </mxCell>
        <mxCell id="f6QQn7eRvwNJcWND32Lu-125" value="100" style="shape=partialRectangle;html=1;whiteSpace=wrap;connectable=0;strokeColor=inherit;overflow=hidden;fillColor=none;top=0;left=0;bottom=0;right=0;pointerEvents=1;" parent="f6QQn7eRvwNJcWND32Lu-124" vertex="1">
          <mxGeometry width="80" height="40" as="geometry">
            <mxRectangle width="80" height="40" as="alternateBounds" />
          </mxGeometry>
        </mxCell>
        <mxCell id="f6QQn7eRvwNJcWND32Lu-126" value="&lt;pre class=&quot;notranslate&quot; lang=&quot;plaintext&quot;&gt;&lt;code&gt;Juan_Pérez&lt;/code&gt;&lt;/pre&gt;" style="shape=partialRectangle;html=1;whiteSpace=wrap;connectable=0;strokeColor=inherit;overflow=hidden;fillColor=none;top=0;left=0;bottom=0;right=0;pointerEvents=1;" parent="f6QQn7eRvwNJcWND32Lu-124" vertex="1">
          <mxGeometry x="80" width="120" height="40" as="geometry">
            <mxRectangle width="120" height="40" as="alternateBounds" />
          </mxGeometry>
        </mxCell>
        <mxCell id="f6QQn7eRvwNJcWND32Lu-129" value="" style="shape=tableRow;horizontal=0;startSize=0;swimlaneHead=0;swimlaneBody=0;strokeColor=inherit;top=0;left=0;bottom=0;right=0;collapsible=0;dropTarget=0;fillColor=none;points=[[0,0.5],[1,0.5]];portConstraint=eastwest;" parent="f6QQn7eRvwNJcWND32Lu-118" vertex="1">
          <mxGeometry y="110" width="200" height="40" as="geometry" />
        </mxCell>
        <mxCell id="f6QQn7eRvwNJcWND32Lu-130" value="101" style="shape=partialRectangle;html=1;whiteSpace=wrap;connectable=0;strokeColor=inherit;overflow=hidden;fillColor=none;top=0;left=0;bottom=0;right=0;pointerEvents=1;" parent="f6QQn7eRvwNJcWND32Lu-129" vertex="1">
          <mxGeometry width="80" height="40" as="geometry">
            <mxRectangle width="80" height="40" as="alternateBounds" />
          </mxGeometry>
        </mxCell>
        <mxCell id="f6QQn7eRvwNJcWND32Lu-131" value="&lt;pre class=&quot;notranslate&quot; lang=&quot;plaintext&quot;&gt;&lt;code&gt;Ana Gómez&lt;/code&gt;&lt;/pre&gt;" style="shape=partialRectangle;html=1;whiteSpace=wrap;connectable=0;strokeColor=inherit;overflow=hidden;fillColor=none;top=0;left=0;bottom=0;right=0;pointerEvents=1;" parent="f6QQn7eRvwNJcWND32Lu-129" vertex="1">
          <mxGeometry x="80" width="120" height="40" as="geometry">
            <mxRectangle width="120" height="40" as="alternateBounds" />
          </mxGeometry>
        </mxCell>
        <mxCell id="f6QQn7eRvwNJcWND32Lu-134" value="" style="shape=tableRow;horizontal=0;startSize=0;swimlaneHead=0;swimlaneBody=0;strokeColor=inherit;top=0;left=0;bottom=0;right=0;collapsible=0;dropTarget=0;fillColor=none;points=[[0,0.5],[1,0.5]];portConstraint=eastwest;" parent="f6QQn7eRvwNJcWND32Lu-118" vertex="1">
          <mxGeometry y="150" width="200" height="40" as="geometry" />
        </mxCell>
        <mxCell id="f6QQn7eRvwNJcWND32Lu-135" value="102" style="shape=partialRectangle;html=1;whiteSpace=wrap;connectable=0;strokeColor=inherit;overflow=hidden;fillColor=none;top=0;left=0;bottom=0;right=0;pointerEvents=1;" parent="f6QQn7eRvwNJcWND32Lu-134" vertex="1">
          <mxGeometry width="80" height="40" as="geometry">
            <mxRectangle width="80" height="40" as="alternateBounds" />
          </mxGeometry>
        </mxCell>
        <mxCell id="f6QQn7eRvwNJcWND32Lu-136" value="&lt;pre class=&quot;notranslate&quot; lang=&quot;plaintext&quot;&gt;&lt;code&gt;Maria López&lt;/code&gt;&lt;/pre&gt;" style="shape=partialRectangle;html=1;whiteSpace=wrap;connectable=0;strokeColor=inherit;overflow=hidden;fillColor=none;top=0;left=0;bottom=0;right=0;pointerEvents=1;" parent="f6QQn7eRvwNJcWND32Lu-134" vertex="1">
          <mxGeometry x="80" width="120" height="40" as="geometry">
            <mxRectangle width="120" height="40" as="alternateBounds" />
          </mxGeometry>
        </mxCell>
        <mxCell id="f6QQn7eRvwNJcWND32Lu-139" value="doctores" style="shape=table;startSize=30;container=1;collapsible=0;childLayout=tableLayout;" parent="1" vertex="1">
          <mxGeometry x="5610" y="2410" width="320" height="190" as="geometry" />
        </mxCell>
        <mxCell id="f6QQn7eRvwNJcWND32Lu-140" value="" style="shape=tableRow;horizontal=0;startSize=0;swimlaneHead=0;swimlaneBody=0;strokeColor=inherit;top=0;left=0;bottom=0;right=0;collapsible=0;dropTarget=0;fillColor=none;points=[[0,0.5],[1,0.5]];portConstraint=eastwest;" parent="f6QQn7eRvwNJcWND32Lu-139" vertex="1">
          <mxGeometry y="30" width="320" height="40" as="geometry" />
        </mxCell>
        <mxCell id="f6QQn7eRvwNJcWND32Lu-141" value="id_doctor" style="shape=partialRectangle;html=1;whiteSpace=wrap;connectable=0;strokeColor=inherit;overflow=hidden;fillColor=none;top=0;left=0;bottom=0;right=0;pointerEvents=1;" parent="f6QQn7eRvwNJcWND32Lu-140" vertex="1">
          <mxGeometry width="80" height="40" as="geometry">
            <mxRectangle width="80" height="40" as="alternateBounds" />
          </mxGeometry>
        </mxCell>
        <mxCell id="f6QQn7eRvwNJcWND32Lu-142" value="nombre" style="shape=partialRectangle;html=1;whiteSpace=wrap;connectable=0;strokeColor=inherit;overflow=hidden;fillColor=none;top=0;left=0;bottom=0;right=0;pointerEvents=1;" parent="f6QQn7eRvwNJcWND32Lu-140" vertex="1">
          <mxGeometry x="80" width="120" height="40" as="geometry">
            <mxRectangle width="120" height="40" as="alternateBounds" />
          </mxGeometry>
        </mxCell>
        <mxCell id="f6QQn7eRvwNJcWND32Lu-152" value="especialidad" style="shape=partialRectangle;html=1;whiteSpace=wrap;connectable=0;strokeColor=inherit;overflow=hidden;fillColor=none;top=0;left=0;bottom=0;right=0;pointerEvents=1;" parent="f6QQn7eRvwNJcWND32Lu-140" vertex="1">
          <mxGeometry x="200" width="120" height="40" as="geometry">
            <mxRectangle width="120" height="40" as="alternateBounds" />
          </mxGeometry>
        </mxCell>
        <mxCell id="f6QQn7eRvwNJcWND32Lu-143" value="" style="shape=tableRow;horizontal=0;startSize=0;swimlaneHead=0;swimlaneBody=0;strokeColor=inherit;top=0;left=0;bottom=0;right=0;collapsible=0;dropTarget=0;fillColor=none;points=[[0,0.5],[1,0.5]];portConstraint=eastwest;" parent="f6QQn7eRvwNJcWND32Lu-139" vertex="1">
          <mxGeometry y="70" width="320" height="40" as="geometry" />
        </mxCell>
        <mxCell id="f6QQn7eRvwNJcWND32Lu-144" value="1" style="shape=partialRectangle;html=1;whiteSpace=wrap;connectable=0;strokeColor=inherit;overflow=hidden;fillColor=none;top=0;left=0;bottom=0;right=0;pointerEvents=1;" parent="f6QQn7eRvwNJcWND32Lu-143" vertex="1">
          <mxGeometry width="80" height="40" as="geometry">
            <mxRectangle width="80" height="40" as="alternateBounds" />
          </mxGeometry>
        </mxCell>
        <mxCell id="f6QQn7eRvwNJcWND32Lu-145" value="&lt;pre class=&quot;notranslate&quot; lang=&quot;plaintext&quot;&gt;&lt;code&gt;Dr. Smith&lt;/code&gt;&lt;/pre&gt;" style="shape=partialRectangle;html=1;whiteSpace=wrap;connectable=0;strokeColor=inherit;overflow=hidden;fillColor=none;top=0;left=0;bottom=0;right=0;pointerEvents=1;" parent="f6QQn7eRvwNJcWND32Lu-143" vertex="1">
          <mxGeometry x="80" width="120" height="40" as="geometry">
            <mxRectangle width="120" height="40" as="alternateBounds" />
          </mxGeometry>
        </mxCell>
        <mxCell id="f6QQn7eRvwNJcWND32Lu-153" value="&lt;pre class=&quot;notranslate&quot; lang=&quot;plaintext&quot;&gt;&lt;code&gt;Cardiología&lt;/code&gt;&lt;/pre&gt;" style="shape=partialRectangle;html=1;whiteSpace=wrap;connectable=0;strokeColor=inherit;overflow=hidden;fillColor=none;top=0;left=0;bottom=0;right=0;pointerEvents=1;" parent="f6QQn7eRvwNJcWND32Lu-143" vertex="1">
          <mxGeometry x="200" width="120" height="40" as="geometry">
            <mxRectangle width="120" height="40" as="alternateBounds" />
          </mxGeometry>
        </mxCell>
        <mxCell id="f6QQn7eRvwNJcWND32Lu-146" value="" style="shape=tableRow;horizontal=0;startSize=0;swimlaneHead=0;swimlaneBody=0;strokeColor=inherit;top=0;left=0;bottom=0;right=0;collapsible=0;dropTarget=0;fillColor=none;points=[[0,0.5],[1,0.5]];portConstraint=eastwest;" parent="f6QQn7eRvwNJcWND32Lu-139" vertex="1">
          <mxGeometry y="110" width="320" height="40" as="geometry" />
        </mxCell>
        <mxCell id="f6QQn7eRvwNJcWND32Lu-147" value="2" style="shape=partialRectangle;html=1;whiteSpace=wrap;connectable=0;strokeColor=inherit;overflow=hidden;fillColor=none;top=0;left=0;bottom=0;right=0;pointerEvents=1;" parent="f6QQn7eRvwNJcWND32Lu-146" vertex="1">
          <mxGeometry width="80" height="40" as="geometry">
            <mxRectangle width="80" height="40" as="alternateBounds" />
          </mxGeometry>
        </mxCell>
        <mxCell id="f6QQn7eRvwNJcWND32Lu-148" value="&lt;pre class=&quot;notranslate&quot; lang=&quot;plaintext&quot;&gt;&lt;code&gt;Dr. Johnson&lt;/code&gt;&lt;/pre&gt;" style="shape=partialRectangle;html=1;whiteSpace=wrap;connectable=0;strokeColor=inherit;overflow=hidden;fillColor=none;top=0;left=0;bottom=0;right=0;pointerEvents=1;" parent="f6QQn7eRvwNJcWND32Lu-146" vertex="1">
          <mxGeometry x="80" width="120" height="40" as="geometry">
            <mxRectangle width="120" height="40" as="alternateBounds" />
          </mxGeometry>
        </mxCell>
        <mxCell id="f6QQn7eRvwNJcWND32Lu-154" value="&lt;pre class=&quot;notranslate&quot; lang=&quot;plaintext&quot;&gt;&lt;code&gt;Neurología&lt;/code&gt;&lt;/pre&gt;" style="shape=partialRectangle;html=1;whiteSpace=wrap;connectable=0;strokeColor=inherit;overflow=hidden;fillColor=none;top=0;left=0;bottom=0;right=0;pointerEvents=1;" parent="f6QQn7eRvwNJcWND32Lu-146" vertex="1">
          <mxGeometry x="200" width="120" height="40" as="geometry">
            <mxRectangle width="120" height="40" as="alternateBounds" />
          </mxGeometry>
        </mxCell>
        <mxCell id="f6QQn7eRvwNJcWND32Lu-149" value="" style="shape=tableRow;horizontal=0;startSize=0;swimlaneHead=0;swimlaneBody=0;strokeColor=inherit;top=0;left=0;bottom=0;right=0;collapsible=0;dropTarget=0;fillColor=none;points=[[0,0.5],[1,0.5]];portConstraint=eastwest;" parent="f6QQn7eRvwNJcWND32Lu-139" vertex="1">
          <mxGeometry y="150" width="320" height="40" as="geometry" />
        </mxCell>
        <mxCell id="f6QQn7eRvwNJcWND32Lu-150" value="3" style="shape=partialRectangle;html=1;whiteSpace=wrap;connectable=0;strokeColor=inherit;overflow=hidden;fillColor=none;top=0;left=0;bottom=0;right=0;pointerEvents=1;" parent="f6QQn7eRvwNJcWND32Lu-149" vertex="1">
          <mxGeometry width="80" height="40" as="geometry">
            <mxRectangle width="80" height="40" as="alternateBounds" />
          </mxGeometry>
        </mxCell>
        <mxCell id="f6QQn7eRvwNJcWND32Lu-151" value="&lt;pre class=&quot;notranslate&quot; lang=&quot;plaintext&quot;&gt;&lt;code&gt;Dr. Lee&lt;/code&gt;&lt;/pre&gt;" style="shape=partialRectangle;html=1;whiteSpace=wrap;connectable=0;strokeColor=inherit;overflow=hidden;fillColor=none;top=0;left=0;bottom=0;right=0;pointerEvents=1;" parent="f6QQn7eRvwNJcWND32Lu-149" vertex="1">
          <mxGeometry x="80" width="120" height="40" as="geometry">
            <mxRectangle width="120" height="40" as="alternateBounds" />
          </mxGeometry>
        </mxCell>
        <mxCell id="f6QQn7eRvwNJcWND32Lu-155" value="&lt;pre class=&quot;notranslate&quot; lang=&quot;plaintext&quot;&gt;&lt;code&gt;Pediatría&lt;/code&gt;&lt;/pre&gt;" style="shape=partialRectangle;html=1;whiteSpace=wrap;connectable=0;strokeColor=inherit;overflow=hidden;fillColor=none;top=0;left=0;bottom=0;right=0;pointerEvents=1;" parent="f6QQn7eRvwNJcWND32Lu-149" vertex="1">
          <mxGeometry x="200" width="120" height="40" as="geometry">
            <mxRectangle width="120" height="40" as="alternateBounds" />
          </mxGeometry>
        </mxCell>
        <mxCell id="f6QQn7eRvwNJcWND32Lu-156" value="consultas" style="shape=table;startSize=30;container=1;collapsible=0;childLayout=tableLayout;" parent="1" vertex="1">
          <mxGeometry x="5610" y="2650" width="560" height="230" as="geometry" />
        </mxCell>
        <mxCell id="f6QQn7eRvwNJcWND32Lu-157" value="" style="shape=tableRow;horizontal=0;startSize=0;swimlaneHead=0;swimlaneBody=0;strokeColor=inherit;top=0;left=0;bottom=0;right=0;collapsible=0;dropTarget=0;fillColor=none;points=[[0,0.5],[1,0.5]];portConstraint=eastwest;" parent="f6QQn7eRvwNJcWND32Lu-156" vertex="1">
          <mxGeometry y="30" width="560" height="40" as="geometry" />
        </mxCell>
        <mxCell id="f6QQn7eRvwNJcWND32Lu-158" value="id_consulta" style="shape=partialRectangle;html=1;whiteSpace=wrap;connectable=0;strokeColor=inherit;overflow=hidden;fillColor=none;top=0;left=0;bottom=0;right=0;pointerEvents=1;" parent="f6QQn7eRvwNJcWND32Lu-157" vertex="1">
          <mxGeometry width="80" height="40" as="geometry">
            <mxRectangle width="80" height="40" as="alternateBounds" />
          </mxGeometry>
        </mxCell>
        <mxCell id="f6QQn7eRvwNJcWND32Lu-159" value="id_paciente" style="shape=partialRectangle;html=1;whiteSpace=wrap;connectable=0;strokeColor=inherit;overflow=hidden;fillColor=none;top=0;left=0;bottom=0;right=0;pointerEvents=1;" parent="f6QQn7eRvwNJcWND32Lu-157" vertex="1">
          <mxGeometry x="80" width="120" height="40" as="geometry">
            <mxRectangle width="120" height="40" as="alternateBounds" />
          </mxGeometry>
        </mxCell>
        <mxCell id="f6QQn7eRvwNJcWND32Lu-160" value="id_doctor" style="shape=partialRectangle;html=1;whiteSpace=wrap;connectable=0;strokeColor=inherit;overflow=hidden;fillColor=none;top=0;left=0;bottom=0;right=0;pointerEvents=1;" parent="f6QQn7eRvwNJcWND32Lu-157" vertex="1">
          <mxGeometry x="200" width="120" height="40" as="geometry">
            <mxRectangle width="120" height="40" as="alternateBounds" />
          </mxGeometry>
        </mxCell>
        <mxCell id="f6QQn7eRvwNJcWND32Lu-178" value="fecha" style="shape=partialRectangle;html=1;whiteSpace=wrap;connectable=0;strokeColor=inherit;overflow=hidden;fillColor=none;top=0;left=0;bottom=0;right=0;pointerEvents=1;" parent="f6QQn7eRvwNJcWND32Lu-157" vertex="1">
          <mxGeometry x="320" width="120" height="40" as="geometry">
            <mxRectangle width="120" height="40" as="alternateBounds" />
          </mxGeometry>
        </mxCell>
        <mxCell id="f6QQn7eRvwNJcWND32Lu-174" value="hora" style="shape=partialRectangle;html=1;whiteSpace=wrap;connectable=0;strokeColor=inherit;overflow=hidden;fillColor=none;top=0;left=0;bottom=0;right=0;pointerEvents=1;" parent="f6QQn7eRvwNJcWND32Lu-157" vertex="1">
          <mxGeometry x="440" width="120" height="40" as="geometry">
            <mxRectangle width="120" height="40" as="alternateBounds" />
          </mxGeometry>
        </mxCell>
        <mxCell id="f6QQn7eRvwNJcWND32Lu-161" value="" style="shape=tableRow;horizontal=0;startSize=0;swimlaneHead=0;swimlaneBody=0;strokeColor=inherit;top=0;left=0;bottom=0;right=0;collapsible=0;dropTarget=0;fillColor=none;points=[[0,0.5],[1,0.5]];portConstraint=eastwest;" parent="f6QQn7eRvwNJcWND32Lu-156" vertex="1">
          <mxGeometry y="70" width="560" height="40" as="geometry" />
        </mxCell>
        <mxCell id="f6QQn7eRvwNJcWND32Lu-162" value="1" style="shape=partialRectangle;html=1;whiteSpace=wrap;connectable=0;strokeColor=inherit;overflow=hidden;fillColor=none;top=0;left=0;bottom=0;right=0;pointerEvents=1;" parent="f6QQn7eRvwNJcWND32Lu-161" vertex="1">
          <mxGeometry width="80" height="40" as="geometry">
            <mxRectangle width="80" height="40" as="alternateBounds" />
          </mxGeometry>
        </mxCell>
        <mxCell id="f6QQn7eRvwNJcWND32Lu-163" value="100" style="shape=partialRectangle;html=1;whiteSpace=wrap;connectable=0;strokeColor=inherit;overflow=hidden;fillColor=none;top=0;left=0;bottom=0;right=0;pointerEvents=1;" parent="f6QQn7eRvwNJcWND32Lu-161" vertex="1">
          <mxGeometry x="80" width="120" height="40" as="geometry">
            <mxRectangle width="120" height="40" as="alternateBounds" />
          </mxGeometry>
        </mxCell>
        <mxCell id="f6QQn7eRvwNJcWND32Lu-164" value="1" style="shape=partialRectangle;html=1;whiteSpace=wrap;connectable=0;strokeColor=inherit;overflow=hidden;fillColor=none;top=0;left=0;bottom=0;right=0;pointerEvents=1;" parent="f6QQn7eRvwNJcWND32Lu-161" vertex="1">
          <mxGeometry x="200" width="120" height="40" as="geometry">
            <mxRectangle width="120" height="40" as="alternateBounds" />
          </mxGeometry>
        </mxCell>
        <mxCell id="f6QQn7eRvwNJcWND32Lu-179" value="21-01-2024" style="shape=partialRectangle;html=1;whiteSpace=wrap;connectable=0;strokeColor=inherit;overflow=hidden;fillColor=none;top=0;left=0;bottom=0;right=0;pointerEvents=1;" parent="f6QQn7eRvwNJcWND32Lu-161" vertex="1">
          <mxGeometry x="320" width="120" height="40" as="geometry">
            <mxRectangle width="120" height="40" as="alternateBounds" />
          </mxGeometry>
        </mxCell>
        <mxCell id="f6QQn7eRvwNJcWND32Lu-175" value="11:00" style="shape=partialRectangle;html=1;whiteSpace=wrap;connectable=0;strokeColor=inherit;overflow=hidden;fillColor=none;top=0;left=0;bottom=0;right=0;pointerEvents=1;" parent="f6QQn7eRvwNJcWND32Lu-161" vertex="1">
          <mxGeometry x="440" width="120" height="40" as="geometry">
            <mxRectangle width="120" height="40" as="alternateBounds" />
          </mxGeometry>
        </mxCell>
        <mxCell id="f6QQn7eRvwNJcWND32Lu-165" value="" style="shape=tableRow;horizontal=0;startSize=0;swimlaneHead=0;swimlaneBody=0;strokeColor=inherit;top=0;left=0;bottom=0;right=0;collapsible=0;dropTarget=0;fillColor=none;points=[[0,0.5],[1,0.5]];portConstraint=eastwest;" parent="f6QQn7eRvwNJcWND32Lu-156" vertex="1">
          <mxGeometry y="110" width="560" height="40" as="geometry" />
        </mxCell>
        <mxCell id="f6QQn7eRvwNJcWND32Lu-166" value="2" style="shape=partialRectangle;html=1;whiteSpace=wrap;connectable=0;strokeColor=inherit;overflow=hidden;fillColor=none;top=0;left=0;bottom=0;right=0;pointerEvents=1;" parent="f6QQn7eRvwNJcWND32Lu-165" vertex="1">
          <mxGeometry width="80" height="40" as="geometry">
            <mxRectangle width="80" height="40" as="alternateBounds" />
          </mxGeometry>
        </mxCell>
        <mxCell id="f6QQn7eRvwNJcWND32Lu-167" value="101" style="shape=partialRectangle;html=1;whiteSpace=wrap;connectable=0;strokeColor=inherit;overflow=hidden;fillColor=none;top=0;left=0;bottom=0;right=0;pointerEvents=1;" parent="f6QQn7eRvwNJcWND32Lu-165" vertex="1">
          <mxGeometry x="80" width="120" height="40" as="geometry">
            <mxRectangle width="120" height="40" as="alternateBounds" />
          </mxGeometry>
        </mxCell>
        <mxCell id="f6QQn7eRvwNJcWND32Lu-168" value="2" style="shape=partialRectangle;html=1;whiteSpace=wrap;connectable=0;strokeColor=inherit;overflow=hidden;fillColor=none;top=0;left=0;bottom=0;right=0;pointerEvents=1;" parent="f6QQn7eRvwNJcWND32Lu-165" vertex="1">
          <mxGeometry x="200" width="120" height="40" as="geometry">
            <mxRectangle width="120" height="40" as="alternateBounds" />
          </mxGeometry>
        </mxCell>
        <mxCell id="f6QQn7eRvwNJcWND32Lu-180" value="06-02-2024" style="shape=partialRectangle;html=1;whiteSpace=wrap;connectable=0;strokeColor=inherit;overflow=hidden;fillColor=none;top=0;left=0;bottom=0;right=0;pointerEvents=1;" parent="f6QQn7eRvwNJcWND32Lu-165" vertex="1">
          <mxGeometry x="320" width="120" height="40" as="geometry">
            <mxRectangle width="120" height="40" as="alternateBounds" />
          </mxGeometry>
        </mxCell>
        <mxCell id="f6QQn7eRvwNJcWND32Lu-176" value="13:00" style="shape=partialRectangle;html=1;whiteSpace=wrap;connectable=0;strokeColor=inherit;overflow=hidden;fillColor=none;top=0;left=0;bottom=0;right=0;pointerEvents=1;" parent="f6QQn7eRvwNJcWND32Lu-165" vertex="1">
          <mxGeometry x="440" width="120" height="40" as="geometry">
            <mxRectangle width="120" height="40" as="alternateBounds" />
          </mxGeometry>
        </mxCell>
        <mxCell id="f6QQn7eRvwNJcWND32Lu-446" value="" style="shape=tableRow;horizontal=0;startSize=0;swimlaneHead=0;swimlaneBody=0;strokeColor=inherit;top=0;left=0;bottom=0;right=0;collapsible=0;dropTarget=0;fillColor=none;points=[[0,0.5],[1,0.5]];portConstraint=eastwest;" parent="f6QQn7eRvwNJcWND32Lu-156" vertex="1">
          <mxGeometry y="150" width="560" height="40" as="geometry" />
        </mxCell>
        <mxCell id="f6QQn7eRvwNJcWND32Lu-447" value="3" style="shape=partialRectangle;html=1;whiteSpace=wrap;connectable=0;strokeColor=inherit;overflow=hidden;fillColor=none;top=0;left=0;bottom=0;right=0;pointerEvents=1;" parent="f6QQn7eRvwNJcWND32Lu-446" vertex="1">
          <mxGeometry width="80" height="40" as="geometry">
            <mxRectangle width="80" height="40" as="alternateBounds" />
          </mxGeometry>
        </mxCell>
        <mxCell id="f6QQn7eRvwNJcWND32Lu-448" value="100" style="shape=partialRectangle;html=1;whiteSpace=wrap;connectable=0;strokeColor=inherit;overflow=hidden;fillColor=none;top=0;left=0;bottom=0;right=0;pointerEvents=1;" parent="f6QQn7eRvwNJcWND32Lu-446" vertex="1">
          <mxGeometry x="80" width="120" height="40" as="geometry">
            <mxRectangle width="120" height="40" as="alternateBounds" />
          </mxGeometry>
        </mxCell>
        <mxCell id="f6QQn7eRvwNJcWND32Lu-449" value="1" style="shape=partialRectangle;html=1;whiteSpace=wrap;connectable=0;strokeColor=inherit;overflow=hidden;fillColor=none;top=0;left=0;bottom=0;right=0;pointerEvents=1;" parent="f6QQn7eRvwNJcWND32Lu-446" vertex="1">
          <mxGeometry x="200" width="120" height="40" as="geometry">
            <mxRectangle width="120" height="40" as="alternateBounds" />
          </mxGeometry>
        </mxCell>
        <mxCell id="f6QQn7eRvwNJcWND32Lu-450" value="06-02-2024" style="shape=partialRectangle;html=1;whiteSpace=wrap;connectable=0;strokeColor=inherit;overflow=hidden;fillColor=none;top=0;left=0;bottom=0;right=0;pointerEvents=1;" parent="f6QQn7eRvwNJcWND32Lu-446" vertex="1">
          <mxGeometry x="320" width="120" height="40" as="geometry">
            <mxRectangle width="120" height="40" as="alternateBounds" />
          </mxGeometry>
        </mxCell>
        <mxCell id="f6QQn7eRvwNJcWND32Lu-451" value="12:00" style="shape=partialRectangle;html=1;whiteSpace=wrap;connectable=0;strokeColor=inherit;overflow=hidden;fillColor=none;top=0;left=0;bottom=0;right=0;pointerEvents=1;" parent="f6QQn7eRvwNJcWND32Lu-446" vertex="1">
          <mxGeometry x="440" width="120" height="40" as="geometry">
            <mxRectangle width="120" height="40" as="alternateBounds" />
          </mxGeometry>
        </mxCell>
        <mxCell id="f6QQn7eRvwNJcWND32Lu-169" value="" style="shape=tableRow;horizontal=0;startSize=0;swimlaneHead=0;swimlaneBody=0;strokeColor=inherit;top=0;left=0;bottom=0;right=0;collapsible=0;dropTarget=0;fillColor=none;points=[[0,0.5],[1,0.5]];portConstraint=eastwest;" parent="f6QQn7eRvwNJcWND32Lu-156" vertex="1">
          <mxGeometry y="190" width="560" height="40" as="geometry" />
        </mxCell>
        <mxCell id="f6QQn7eRvwNJcWND32Lu-170" value="4" style="shape=partialRectangle;html=1;whiteSpace=wrap;connectable=0;strokeColor=inherit;overflow=hidden;fillColor=none;top=0;left=0;bottom=0;right=0;pointerEvents=1;" parent="f6QQn7eRvwNJcWND32Lu-169" vertex="1">
          <mxGeometry width="80" height="40" as="geometry">
            <mxRectangle width="80" height="40" as="alternateBounds" />
          </mxGeometry>
        </mxCell>
        <mxCell id="f6QQn7eRvwNJcWND32Lu-171" value="102" style="shape=partialRectangle;html=1;whiteSpace=wrap;connectable=0;strokeColor=inherit;overflow=hidden;fillColor=none;top=0;left=0;bottom=0;right=0;pointerEvents=1;" parent="f6QQn7eRvwNJcWND32Lu-169" vertex="1">
          <mxGeometry x="80" width="120" height="40" as="geometry">
            <mxRectangle width="120" height="40" as="alternateBounds" />
          </mxGeometry>
        </mxCell>
        <mxCell id="f6QQn7eRvwNJcWND32Lu-172" value="3" style="shape=partialRectangle;html=1;whiteSpace=wrap;connectable=0;strokeColor=inherit;overflow=hidden;fillColor=none;top=0;left=0;bottom=0;right=0;pointerEvents=1;" parent="f6QQn7eRvwNJcWND32Lu-169" vertex="1">
          <mxGeometry x="200" width="120" height="40" as="geometry">
            <mxRectangle width="120" height="40" as="alternateBounds" />
          </mxGeometry>
        </mxCell>
        <mxCell id="f6QQn7eRvwNJcWND32Lu-181" value="06-03-2024" style="shape=partialRectangle;html=1;whiteSpace=wrap;connectable=0;strokeColor=inherit;overflow=hidden;fillColor=none;top=0;left=0;bottom=0;right=0;pointerEvents=1;" parent="f6QQn7eRvwNJcWND32Lu-169" vertex="1">
          <mxGeometry x="320" width="120" height="40" as="geometry">
            <mxRectangle width="120" height="40" as="alternateBounds" />
          </mxGeometry>
        </mxCell>
        <mxCell id="f6QQn7eRvwNJcWND32Lu-177" value="15:00" style="shape=partialRectangle;html=1;whiteSpace=wrap;connectable=0;strokeColor=inherit;overflow=hidden;fillColor=none;top=0;left=0;bottom=0;right=0;pointerEvents=1;" parent="f6QQn7eRvwNJcWND32Lu-169" vertex="1">
          <mxGeometry x="440" width="120" height="40" as="geometry">
            <mxRectangle width="120" height="40" as="alternateBounds" />
          </mxGeometry>
        </mxCell>
        <mxCell id="f6QQn7eRvwNJcWND32Lu-183" value="&amp;nbsp;" style="text;whiteSpace=wrap;html=1;" parent="1" vertex="1">
          <mxGeometry x="4690" y="1620" width="40" height="40" as="geometry" />
        </mxCell>
        <mxCell id="f6QQn7eRvwNJcWND32Lu-184" value="&lt;h2 tabindex=&quot;-1&quot; class=&quot;heading-element&quot; dir=&quot;auto&quot;&gt;Forma Normal de Boyce-Codd (BCNF)&lt;/h2&gt;" style="text;whiteSpace=wrap;html=1;" parent="1" vertex="1">
          <mxGeometry x="6280" y="2060" width="360" height="70" as="geometry" />
        </mxCell>
        <mxCell id="f6QQn7eRvwNJcWND32Lu-185" value="proyectos" style="shape=table;startSize=30;container=1;collapsible=0;childLayout=tableLayout;" parent="1" vertex="1">
          <mxGeometry x="6300" y="2160" width="340" height="230" as="geometry" />
        </mxCell>
        <mxCell id="f6QQn7eRvwNJcWND32Lu-186" value="" style="shape=tableRow;horizontal=0;startSize=0;swimlaneHead=0;swimlaneBody=0;strokeColor=inherit;top=0;left=0;bottom=0;right=0;collapsible=0;dropTarget=0;fillColor=none;points=[[0,0.5],[1,0.5]];portConstraint=eastwest;" parent="f6QQn7eRvwNJcWND32Lu-185" vertex="1">
          <mxGeometry y="30" width="340" height="40" as="geometry" />
        </mxCell>
        <mxCell id="f6QQn7eRvwNJcWND32Lu-187" value="id_proyecto" style="shape=partialRectangle;html=1;whiteSpace=wrap;connectable=0;strokeColor=inherit;overflow=hidden;fillColor=none;top=0;left=0;bottom=0;right=0;pointerEvents=1;" parent="f6QQn7eRvwNJcWND32Lu-186" vertex="1">
          <mxGeometry width="80" height="40" as="geometry">
            <mxRectangle width="80" height="40" as="alternateBounds" />
          </mxGeometry>
        </mxCell>
        <mxCell id="f6QQn7eRvwNJcWND32Lu-188" value="nombre" style="shape=partialRectangle;html=1;whiteSpace=wrap;connectable=0;strokeColor=inherit;overflow=hidden;fillColor=none;top=0;left=0;bottom=0;right=0;pointerEvents=1;" parent="f6QQn7eRvwNJcWND32Lu-186" vertex="1">
          <mxGeometry x="80" width="130" height="40" as="geometry">
            <mxRectangle width="130" height="40" as="alternateBounds" />
          </mxGeometry>
        </mxCell>
        <mxCell id="f6QQn7eRvwNJcWND32Lu-453" value="id_proyecto" style="shape=partialRectangle;html=1;whiteSpace=wrap;connectable=0;strokeColor=inherit;overflow=hidden;fillColor=none;top=0;left=0;bottom=0;right=0;pointerEvents=1;" parent="f6QQn7eRvwNJcWND32Lu-186" vertex="1">
          <mxGeometry x="210" width="130" height="40" as="geometry">
            <mxRectangle width="130" height="40" as="alternateBounds" />
          </mxGeometry>
        </mxCell>
        <mxCell id="f6QQn7eRvwNJcWND32Lu-189" value="" style="shape=tableRow;horizontal=0;startSize=0;swimlaneHead=0;swimlaneBody=0;strokeColor=inherit;top=0;left=0;bottom=0;right=0;collapsible=0;dropTarget=0;fillColor=none;points=[[0,0.5],[1,0.5]];portConstraint=eastwest;" parent="f6QQn7eRvwNJcWND32Lu-185" vertex="1">
          <mxGeometry y="70" width="340" height="40" as="geometry" />
        </mxCell>
        <mxCell id="f6QQn7eRvwNJcWND32Lu-190" value="1" style="shape=partialRectangle;html=1;whiteSpace=wrap;connectable=0;strokeColor=inherit;overflow=hidden;fillColor=none;top=0;left=0;bottom=0;right=0;pointerEvents=1;" parent="f6QQn7eRvwNJcWND32Lu-189" vertex="1">
          <mxGeometry width="80" height="40" as="geometry">
            <mxRectangle width="80" height="40" as="alternateBounds" />
          </mxGeometry>
        </mxCell>
        <mxCell id="f6QQn7eRvwNJcWND32Lu-191" value="&lt;pre class=&quot;notranslate&quot; lang=&quot;plaintext&quot;&gt;&lt;code&gt;IA_Avanzada&lt;/code&gt;&lt;/pre&gt;" style="shape=partialRectangle;html=1;whiteSpace=wrap;connectable=0;strokeColor=inherit;overflow=hidden;fillColor=none;top=0;left=0;bottom=0;right=0;pointerEvents=1;" parent="f6QQn7eRvwNJcWND32Lu-189" vertex="1">
          <mxGeometry x="80" width="130" height="40" as="geometry">
            <mxRectangle width="130" height="40" as="alternateBounds" />
          </mxGeometry>
        </mxCell>
        <mxCell id="f6QQn7eRvwNJcWND32Lu-454" value="101" style="shape=partialRectangle;html=1;whiteSpace=wrap;connectable=0;strokeColor=inherit;overflow=hidden;fillColor=none;top=0;left=0;bottom=0;right=0;pointerEvents=1;" parent="f6QQn7eRvwNJcWND32Lu-189" vertex="1">
          <mxGeometry x="210" width="130" height="40" as="geometry">
            <mxRectangle width="130" height="40" as="alternateBounds" />
          </mxGeometry>
        </mxCell>
        <mxCell id="f6QQn7eRvwNJcWND32Lu-192" value="" style="shape=tableRow;horizontal=0;startSize=0;swimlaneHead=0;swimlaneBody=0;strokeColor=inherit;top=0;left=0;bottom=0;right=0;collapsible=0;dropTarget=0;fillColor=none;points=[[0,0.5],[1,0.5]];portConstraint=eastwest;" parent="f6QQn7eRvwNJcWND32Lu-185" vertex="1">
          <mxGeometry y="110" width="340" height="40" as="geometry" />
        </mxCell>
        <mxCell id="f6QQn7eRvwNJcWND32Lu-193" value="2" style="shape=partialRectangle;html=1;whiteSpace=wrap;connectable=0;strokeColor=inherit;overflow=hidden;fillColor=none;top=0;left=0;bottom=0;right=0;pointerEvents=1;" parent="f6QQn7eRvwNJcWND32Lu-192" vertex="1">
          <mxGeometry width="80" height="40" as="geometry">
            <mxRectangle width="80" height="40" as="alternateBounds" />
          </mxGeometry>
        </mxCell>
        <mxCell id="f6QQn7eRvwNJcWND32Lu-194" value="&lt;pre class=&quot;notranslate&quot; lang=&quot;plaintext&quot;&gt;&lt;code&gt;Robótica&lt;/code&gt;&lt;/pre&gt;" style="shape=partialRectangle;html=1;whiteSpace=wrap;connectable=0;strokeColor=inherit;overflow=hidden;fillColor=none;top=0;left=0;bottom=0;right=0;pointerEvents=1;" parent="f6QQn7eRvwNJcWND32Lu-192" vertex="1">
          <mxGeometry x="80" width="130" height="40" as="geometry">
            <mxRectangle width="130" height="40" as="alternateBounds" />
          </mxGeometry>
        </mxCell>
        <mxCell id="f6QQn7eRvwNJcWND32Lu-455" value="102" style="shape=partialRectangle;html=1;whiteSpace=wrap;connectable=0;strokeColor=inherit;overflow=hidden;fillColor=none;top=0;left=0;bottom=0;right=0;pointerEvents=1;" parent="f6QQn7eRvwNJcWND32Lu-192" vertex="1">
          <mxGeometry x="210" width="130" height="40" as="geometry">
            <mxRectangle width="130" height="40" as="alternateBounds" />
          </mxGeometry>
        </mxCell>
        <mxCell id="f6QQn7eRvwNJcWND32Lu-195" value="" style="shape=tableRow;horizontal=0;startSize=0;swimlaneHead=0;swimlaneBody=0;strokeColor=inherit;top=0;left=0;bottom=0;right=0;collapsible=0;dropTarget=0;fillColor=none;points=[[0,0.5],[1,0.5]];portConstraint=eastwest;" parent="f6QQn7eRvwNJcWND32Lu-185" vertex="1">
          <mxGeometry y="150" width="340" height="40" as="geometry" />
        </mxCell>
        <mxCell id="f6QQn7eRvwNJcWND32Lu-196" value="3" style="shape=partialRectangle;html=1;whiteSpace=wrap;connectable=0;strokeColor=inherit;overflow=hidden;fillColor=none;top=0;left=0;bottom=0;right=0;pointerEvents=1;" parent="f6QQn7eRvwNJcWND32Lu-195" vertex="1">
          <mxGeometry width="80" height="40" as="geometry">
            <mxRectangle width="80" height="40" as="alternateBounds" />
          </mxGeometry>
        </mxCell>
        <mxCell id="f6QQn7eRvwNJcWND32Lu-197" value="&lt;pre class=&quot;notranslate&quot; lang=&quot;plaintext&quot;&gt;&lt;code&gt;IA_Aplicada&lt;/code&gt;&lt;/pre&gt;" style="shape=partialRectangle;html=1;whiteSpace=wrap;connectable=0;strokeColor=inherit;overflow=hidden;fillColor=none;top=0;left=0;bottom=0;right=0;pointerEvents=1;" parent="f6QQn7eRvwNJcWND32Lu-195" vertex="1">
          <mxGeometry x="80" width="130" height="40" as="geometry">
            <mxRectangle width="130" height="40" as="alternateBounds" />
          </mxGeometry>
        </mxCell>
        <mxCell id="f6QQn7eRvwNJcWND32Lu-456" value="101" style="shape=partialRectangle;html=1;whiteSpace=wrap;connectable=0;strokeColor=inherit;overflow=hidden;fillColor=none;top=0;left=0;bottom=0;right=0;pointerEvents=1;" parent="f6QQn7eRvwNJcWND32Lu-195" vertex="1">
          <mxGeometry x="210" width="130" height="40" as="geometry">
            <mxRectangle width="130" height="40" as="alternateBounds" />
          </mxGeometry>
        </mxCell>
        <mxCell id="f6QQn7eRvwNJcWND32Lu-198" value="" style="shape=tableRow;horizontal=0;startSize=0;swimlaneHead=0;swimlaneBody=0;strokeColor=inherit;top=0;left=0;bottom=0;right=0;collapsible=0;dropTarget=0;fillColor=none;points=[[0,0.5],[1,0.5]];portConstraint=eastwest;" parent="f6QQn7eRvwNJcWND32Lu-185" vertex="1">
          <mxGeometry y="190" width="340" height="40" as="geometry" />
        </mxCell>
        <mxCell id="f6QQn7eRvwNJcWND32Lu-199" value="4" style="shape=partialRectangle;html=1;whiteSpace=wrap;connectable=0;strokeColor=inherit;overflow=hidden;fillColor=none;top=0;left=0;bottom=0;right=0;pointerEvents=1;" parent="f6QQn7eRvwNJcWND32Lu-198" vertex="1">
          <mxGeometry width="80" height="40" as="geometry">
            <mxRectangle width="80" height="40" as="alternateBounds" />
          </mxGeometry>
        </mxCell>
        <mxCell id="f6QQn7eRvwNJcWND32Lu-200" value="&lt;pre class=&quot;notranslate&quot; lang=&quot;plaintext&quot;&gt;&lt;code&gt;Redes_de_Computo&lt;/code&gt;&lt;/pre&gt;" style="shape=partialRectangle;html=1;whiteSpace=wrap;connectable=0;strokeColor=inherit;overflow=hidden;fillColor=none;top=0;left=0;bottom=0;right=0;pointerEvents=1;" parent="f6QQn7eRvwNJcWND32Lu-198" vertex="1">
          <mxGeometry x="80" width="130" height="40" as="geometry">
            <mxRectangle width="130" height="40" as="alternateBounds" />
          </mxGeometry>
        </mxCell>
        <mxCell id="f6QQn7eRvwNJcWND32Lu-457" value="103" style="shape=partialRectangle;html=1;whiteSpace=wrap;connectable=0;strokeColor=inherit;overflow=hidden;fillColor=none;top=0;left=0;bottom=0;right=0;pointerEvents=1;" parent="f6QQn7eRvwNJcWND32Lu-198" vertex="1">
          <mxGeometry x="210" width="130" height="40" as="geometry">
            <mxRectangle width="130" height="40" as="alternateBounds" />
          </mxGeometry>
        </mxCell>
        <mxCell id="f6QQn7eRvwNJcWND32Lu-201" value="profesores" style="shape=table;startSize=30;container=1;collapsible=0;childLayout=tableLayout;" parent="1" vertex="1">
          <mxGeometry x="6300" y="2420" width="210" height="190" as="geometry" />
        </mxCell>
        <mxCell id="f6QQn7eRvwNJcWND32Lu-202" value="" style="shape=tableRow;horizontal=0;startSize=0;swimlaneHead=0;swimlaneBody=0;strokeColor=inherit;top=0;left=0;bottom=0;right=0;collapsible=0;dropTarget=0;fillColor=none;points=[[0,0.5],[1,0.5]];portConstraint=eastwest;" parent="f6QQn7eRvwNJcWND32Lu-201" vertex="1">
          <mxGeometry y="30" width="210" height="40" as="geometry" />
        </mxCell>
        <mxCell id="f6QQn7eRvwNJcWND32Lu-203" value="id_profesores" style="shape=partialRectangle;html=1;whiteSpace=wrap;connectable=0;strokeColor=inherit;overflow=hidden;fillColor=none;top=0;left=0;bottom=0;right=0;pointerEvents=1;" parent="f6QQn7eRvwNJcWND32Lu-202" vertex="1">
          <mxGeometry width="80" height="40" as="geometry">
            <mxRectangle width="80" height="40" as="alternateBounds" />
          </mxGeometry>
        </mxCell>
        <mxCell id="f6QQn7eRvwNJcWND32Lu-204" value="nombre" style="shape=partialRectangle;html=1;whiteSpace=wrap;connectable=0;strokeColor=inherit;overflow=hidden;fillColor=none;top=0;left=0;bottom=0;right=0;pointerEvents=1;" parent="f6QQn7eRvwNJcWND32Lu-202" vertex="1">
          <mxGeometry x="80" width="130" height="40" as="geometry">
            <mxRectangle width="130" height="40" as="alternateBounds" />
          </mxGeometry>
        </mxCell>
        <mxCell id="f6QQn7eRvwNJcWND32Lu-205" value="" style="shape=tableRow;horizontal=0;startSize=0;swimlaneHead=0;swimlaneBody=0;strokeColor=inherit;top=0;left=0;bottom=0;right=0;collapsible=0;dropTarget=0;fillColor=none;points=[[0,0.5],[1,0.5]];portConstraint=eastwest;" parent="f6QQn7eRvwNJcWND32Lu-201" vertex="1">
          <mxGeometry y="70" width="210" height="40" as="geometry" />
        </mxCell>
        <mxCell id="f6QQn7eRvwNJcWND32Lu-206" value="101" style="shape=partialRectangle;html=1;whiteSpace=wrap;connectable=0;strokeColor=inherit;overflow=hidden;fillColor=none;top=0;left=0;bottom=0;right=0;pointerEvents=1;" parent="f6QQn7eRvwNJcWND32Lu-205" vertex="1">
          <mxGeometry width="80" height="40" as="geometry">
            <mxRectangle width="80" height="40" as="alternateBounds" />
          </mxGeometry>
        </mxCell>
        <mxCell id="f6QQn7eRvwNJcWND32Lu-207" value="&lt;pre class=&quot;notranslate&quot; lang=&quot;plaintext&quot;&gt;&lt;code&gt;Dr. Smith&lt;/code&gt;&lt;/pre&gt;" style="shape=partialRectangle;html=1;whiteSpace=wrap;connectable=0;strokeColor=inherit;overflow=hidden;fillColor=none;top=0;left=0;bottom=0;right=0;pointerEvents=1;" parent="f6QQn7eRvwNJcWND32Lu-205" vertex="1">
          <mxGeometry x="80" width="130" height="40" as="geometry">
            <mxRectangle width="130" height="40" as="alternateBounds" />
          </mxGeometry>
        </mxCell>
        <mxCell id="f6QQn7eRvwNJcWND32Lu-208" value="" style="shape=tableRow;horizontal=0;startSize=0;swimlaneHead=0;swimlaneBody=0;strokeColor=inherit;top=0;left=0;bottom=0;right=0;collapsible=0;dropTarget=0;fillColor=none;points=[[0,0.5],[1,0.5]];portConstraint=eastwest;" parent="f6QQn7eRvwNJcWND32Lu-201" vertex="1">
          <mxGeometry y="110" width="210" height="40" as="geometry" />
        </mxCell>
        <mxCell id="f6QQn7eRvwNJcWND32Lu-209" value="102" style="shape=partialRectangle;html=1;whiteSpace=wrap;connectable=0;strokeColor=inherit;overflow=hidden;fillColor=none;top=0;left=0;bottom=0;right=0;pointerEvents=1;" parent="f6QQn7eRvwNJcWND32Lu-208" vertex="1">
          <mxGeometry width="80" height="40" as="geometry">
            <mxRectangle width="80" height="40" as="alternateBounds" />
          </mxGeometry>
        </mxCell>
        <mxCell id="f6QQn7eRvwNJcWND32Lu-210" value="&lt;pre class=&quot;notranslate&quot; lang=&quot;plaintext&quot;&gt;&lt;code&gt;Dr. Johnson&lt;/code&gt;&lt;/pre&gt;" style="shape=partialRectangle;html=1;whiteSpace=wrap;connectable=0;strokeColor=inherit;overflow=hidden;fillColor=none;top=0;left=0;bottom=0;right=0;pointerEvents=1;" parent="f6QQn7eRvwNJcWND32Lu-208" vertex="1">
          <mxGeometry x="80" width="130" height="40" as="geometry">
            <mxRectangle width="130" height="40" as="alternateBounds" />
          </mxGeometry>
        </mxCell>
        <mxCell id="f6QQn7eRvwNJcWND32Lu-211" value="" style="shape=tableRow;horizontal=0;startSize=0;swimlaneHead=0;swimlaneBody=0;strokeColor=inherit;top=0;left=0;bottom=0;right=0;collapsible=0;dropTarget=0;fillColor=none;points=[[0,0.5],[1,0.5]];portConstraint=eastwest;" parent="f6QQn7eRvwNJcWND32Lu-201" vertex="1">
          <mxGeometry y="150" width="210" height="40" as="geometry" />
        </mxCell>
        <mxCell id="f6QQn7eRvwNJcWND32Lu-212" value="103" style="shape=partialRectangle;html=1;whiteSpace=wrap;connectable=0;strokeColor=inherit;overflow=hidden;fillColor=none;top=0;left=0;bottom=0;right=0;pointerEvents=1;" parent="f6QQn7eRvwNJcWND32Lu-211" vertex="1">
          <mxGeometry width="80" height="40" as="geometry">
            <mxRectangle width="80" height="40" as="alternateBounds" />
          </mxGeometry>
        </mxCell>
        <mxCell id="f6QQn7eRvwNJcWND32Lu-213" value="&lt;pre class=&quot;notranslate&quot; lang=&quot;plaintext&quot;&gt;&lt;code&gt;Dr. Lee&lt;/code&gt;&lt;/pre&gt;" style="shape=partialRectangle;html=1;whiteSpace=wrap;connectable=0;strokeColor=inherit;overflow=hidden;fillColor=none;top=0;left=0;bottom=0;right=0;pointerEvents=1;" parent="f6QQn7eRvwNJcWND32Lu-211" vertex="1">
          <mxGeometry x="80" width="130" height="40" as="geometry">
            <mxRectangle width="130" height="40" as="alternateBounds" />
          </mxGeometry>
        </mxCell>
        <mxCell id="f6QQn7eRvwNJcWND32Lu-217" value="&lt;h2 tabindex=&quot;-1&quot; class=&quot;heading-element&quot; dir=&quot;auto&quot;&gt;Cuarta Forma Normal (4NF )&lt;/h2&gt;" style="text;whiteSpace=wrap;html=1;" parent="1" vertex="1">
          <mxGeometry x="6780" y="2060" width="400" height="70" as="geometry" />
        </mxCell>
        <mxCell id="f6QQn7eRvwNJcWND32Lu-218" value="&amp;nbsp;" style="text;whiteSpace=wrap;html=1;" parent="1" vertex="1">
          <mxGeometry x="4980" y="1880" width="40" height="40" as="geometry" />
        </mxCell>
        <mxCell id="f6QQn7eRvwNJcWND32Lu-219" value="empleados" style="shape=table;startSize=30;container=1;collapsible=0;childLayout=tableLayout;" parent="1" vertex="1">
          <mxGeometry x="6780" y="2160" width="210" height="150" as="geometry" />
        </mxCell>
        <mxCell id="f6QQn7eRvwNJcWND32Lu-220" value="" style="shape=tableRow;horizontal=0;startSize=0;swimlaneHead=0;swimlaneBody=0;strokeColor=inherit;top=0;left=0;bottom=0;right=0;collapsible=0;dropTarget=0;fillColor=none;points=[[0,0.5],[1,0.5]];portConstraint=eastwest;" parent="f6QQn7eRvwNJcWND32Lu-219" vertex="1">
          <mxGeometry y="30" width="210" height="40" as="geometry" />
        </mxCell>
        <mxCell id="f6QQn7eRvwNJcWND32Lu-221" value="id_empleado" style="shape=partialRectangle;html=1;whiteSpace=wrap;connectable=0;strokeColor=inherit;overflow=hidden;fillColor=none;top=0;left=0;bottom=0;right=0;pointerEvents=1;" parent="f6QQn7eRvwNJcWND32Lu-220" vertex="1">
          <mxGeometry width="90" height="40" as="geometry">
            <mxRectangle width="90" height="40" as="alternateBounds" />
          </mxGeometry>
        </mxCell>
        <mxCell id="f6QQn7eRvwNJcWND32Lu-222" value="nombre" style="shape=partialRectangle;html=1;whiteSpace=wrap;connectable=0;strokeColor=inherit;overflow=hidden;fillColor=none;top=0;left=0;bottom=0;right=0;pointerEvents=1;" parent="f6QQn7eRvwNJcWND32Lu-220" vertex="1">
          <mxGeometry x="90" width="120" height="40" as="geometry">
            <mxRectangle width="120" height="40" as="alternateBounds" />
          </mxGeometry>
        </mxCell>
        <mxCell id="f6QQn7eRvwNJcWND32Lu-223" value="" style="shape=tableRow;horizontal=0;startSize=0;swimlaneHead=0;swimlaneBody=0;strokeColor=inherit;top=0;left=0;bottom=0;right=0;collapsible=0;dropTarget=0;fillColor=none;points=[[0,0.5],[1,0.5]];portConstraint=eastwest;" parent="f6QQn7eRvwNJcWND32Lu-219" vertex="1">
          <mxGeometry y="70" width="210" height="40" as="geometry" />
        </mxCell>
        <mxCell id="f6QQn7eRvwNJcWND32Lu-224" value="1" style="shape=partialRectangle;html=1;whiteSpace=wrap;connectable=0;strokeColor=inherit;overflow=hidden;fillColor=none;top=0;left=0;bottom=0;right=0;pointerEvents=1;" parent="f6QQn7eRvwNJcWND32Lu-223" vertex="1">
          <mxGeometry width="90" height="40" as="geometry">
            <mxRectangle width="90" height="40" as="alternateBounds" />
          </mxGeometry>
        </mxCell>
        <mxCell id="f6QQn7eRvwNJcWND32Lu-225" value="&lt;pre class=&quot;notranslate&quot; lang=&quot;plaintext&quot;&gt;&lt;code&gt;Juan_Pérez&lt;/code&gt;&lt;/pre&gt;" style="shape=partialRectangle;html=1;whiteSpace=wrap;connectable=0;strokeColor=inherit;overflow=hidden;fillColor=none;top=0;left=0;bottom=0;right=0;pointerEvents=1;" parent="f6QQn7eRvwNJcWND32Lu-223" vertex="1">
          <mxGeometry x="90" width="120" height="40" as="geometry">
            <mxRectangle width="120" height="40" as="alternateBounds" />
          </mxGeometry>
        </mxCell>
        <mxCell id="f6QQn7eRvwNJcWND32Lu-226" value="" style="shape=tableRow;horizontal=0;startSize=0;swimlaneHead=0;swimlaneBody=0;strokeColor=inherit;top=0;left=0;bottom=0;right=0;collapsible=0;dropTarget=0;fillColor=none;points=[[0,0.5],[1,0.5]];portConstraint=eastwest;" parent="f6QQn7eRvwNJcWND32Lu-219" vertex="1">
          <mxGeometry y="110" width="210" height="40" as="geometry" />
        </mxCell>
        <mxCell id="f6QQn7eRvwNJcWND32Lu-227" value="2" style="shape=partialRectangle;html=1;whiteSpace=wrap;connectable=0;strokeColor=inherit;overflow=hidden;fillColor=none;top=0;left=0;bottom=0;right=0;pointerEvents=1;" parent="f6QQn7eRvwNJcWND32Lu-226" vertex="1">
          <mxGeometry width="90" height="40" as="geometry">
            <mxRectangle width="90" height="40" as="alternateBounds" />
          </mxGeometry>
        </mxCell>
        <mxCell id="f6QQn7eRvwNJcWND32Lu-228" value="&lt;pre class=&quot;notranslate&quot; lang=&quot;plaintext&quot;&gt;&lt;code&gt;Ana_Gómez&lt;/code&gt;&lt;/pre&gt;" style="shape=partialRectangle;html=1;whiteSpace=wrap;connectable=0;strokeColor=inherit;overflow=hidden;fillColor=none;top=0;left=0;bottom=0;right=0;pointerEvents=1;" parent="f6QQn7eRvwNJcWND32Lu-226" vertex="1">
          <mxGeometry x="90" width="120" height="40" as="geometry">
            <mxRectangle width="120" height="40" as="alternateBounds" />
          </mxGeometry>
        </mxCell>
        <mxCell id="f6QQn7eRvwNJcWND32Lu-232" value="habilidades" style="shape=table;startSize=30;container=1;collapsible=0;childLayout=tableLayout;" parent="1" vertex="1">
          <mxGeometry x="6780" y="2360" width="290" height="190" as="geometry" />
        </mxCell>
        <mxCell id="f6QQn7eRvwNJcWND32Lu-233" value="" style="shape=tableRow;horizontal=0;startSize=0;swimlaneHead=0;swimlaneBody=0;strokeColor=inherit;top=0;left=0;bottom=0;right=0;collapsible=0;dropTarget=0;fillColor=none;points=[[0,0.5],[1,0.5]];portConstraint=eastwest;" parent="f6QQn7eRvwNJcWND32Lu-232" vertex="1">
          <mxGeometry y="30" width="290" height="40" as="geometry" />
        </mxCell>
        <mxCell id="f6QQn7eRvwNJcWND32Lu-234" value="id_habilidad" style="shape=partialRectangle;html=1;whiteSpace=wrap;connectable=0;strokeColor=inherit;overflow=hidden;fillColor=none;top=0;left=0;bottom=0;right=0;pointerEvents=1;" parent="f6QQn7eRvwNJcWND32Lu-233" vertex="1">
          <mxGeometry width="90" height="40" as="geometry">
            <mxRectangle width="90" height="40" as="alternateBounds" />
          </mxGeometry>
        </mxCell>
        <mxCell id="f6QQn7eRvwNJcWND32Lu-235" value="nombre" style="shape=partialRectangle;html=1;whiteSpace=wrap;connectable=0;strokeColor=inherit;overflow=hidden;fillColor=none;top=0;left=0;bottom=0;right=0;pointerEvents=1;" parent="f6QQn7eRvwNJcWND32Lu-233" vertex="1">
          <mxGeometry x="90" width="200" height="40" as="geometry">
            <mxRectangle width="200" height="40" as="alternateBounds" />
          </mxGeometry>
        </mxCell>
        <mxCell id="f6QQn7eRvwNJcWND32Lu-236" value="" style="shape=tableRow;horizontal=0;startSize=0;swimlaneHead=0;swimlaneBody=0;strokeColor=inherit;top=0;left=0;bottom=0;right=0;collapsible=0;dropTarget=0;fillColor=none;points=[[0,0.5],[1,0.5]];portConstraint=eastwest;" parent="f6QQn7eRvwNJcWND32Lu-232" vertex="1">
          <mxGeometry y="70" width="290" height="40" as="geometry" />
        </mxCell>
        <mxCell id="f6QQn7eRvwNJcWND32Lu-237" value="1" style="shape=partialRectangle;html=1;whiteSpace=wrap;connectable=0;strokeColor=inherit;overflow=hidden;fillColor=none;top=0;left=0;bottom=0;right=0;pointerEvents=1;" parent="f6QQn7eRvwNJcWND32Lu-236" vertex="1">
          <mxGeometry width="90" height="40" as="geometry">
            <mxRectangle width="90" height="40" as="alternateBounds" />
          </mxGeometry>
        </mxCell>
        <mxCell id="f6QQn7eRvwNJcWND32Lu-238" value="&lt;pre class=&quot;notranslate&quot; lang=&quot;plaintext&quot;&gt;&lt;code&gt;Programación&lt;/code&gt;&lt;/pre&gt;" style="shape=partialRectangle;html=1;whiteSpace=wrap;connectable=0;strokeColor=inherit;overflow=hidden;fillColor=none;top=0;left=0;bottom=0;right=0;pointerEvents=1;" parent="f6QQn7eRvwNJcWND32Lu-236" vertex="1">
          <mxGeometry x="90" width="200" height="40" as="geometry">
            <mxRectangle width="200" height="40" as="alternateBounds" />
          </mxGeometry>
        </mxCell>
        <mxCell id="f6QQn7eRvwNJcWND32Lu-239" value="" style="shape=tableRow;horizontal=0;startSize=0;swimlaneHead=0;swimlaneBody=0;strokeColor=inherit;top=0;left=0;bottom=0;right=0;collapsible=0;dropTarget=0;fillColor=none;points=[[0,0.5],[1,0.5]];portConstraint=eastwest;" parent="f6QQn7eRvwNJcWND32Lu-232" vertex="1">
          <mxGeometry y="110" width="290" height="40" as="geometry" />
        </mxCell>
        <mxCell id="f6QQn7eRvwNJcWND32Lu-240" value="2" style="shape=partialRectangle;html=1;whiteSpace=wrap;connectable=0;strokeColor=inherit;overflow=hidden;fillColor=none;top=0;left=0;bottom=0;right=0;pointerEvents=1;" parent="f6QQn7eRvwNJcWND32Lu-239" vertex="1">
          <mxGeometry width="90" height="40" as="geometry">
            <mxRectangle width="90" height="40" as="alternateBounds" />
          </mxGeometry>
        </mxCell>
        <mxCell id="f6QQn7eRvwNJcWND32Lu-241" value="&lt;pre class=&quot;notranslate&quot; lang=&quot;plaintext&quot;&gt;&lt;code&gt;Diseño_de_Bases_de_Datos&lt;/code&gt;&lt;/pre&gt;" style="shape=partialRectangle;html=1;whiteSpace=wrap;connectable=0;strokeColor=inherit;overflow=hidden;fillColor=none;top=0;left=0;bottom=0;right=0;pointerEvents=1;" parent="f6QQn7eRvwNJcWND32Lu-239" vertex="1">
          <mxGeometry x="90" width="200" height="40" as="geometry">
            <mxRectangle width="200" height="40" as="alternateBounds" />
          </mxGeometry>
        </mxCell>
        <mxCell id="f6QQn7eRvwNJcWND32Lu-257" value="" style="shape=tableRow;horizontal=0;startSize=0;swimlaneHead=0;swimlaneBody=0;strokeColor=inherit;top=0;left=0;bottom=0;right=0;collapsible=0;dropTarget=0;fillColor=none;points=[[0,0.5],[1,0.5]];portConstraint=eastwest;" parent="f6QQn7eRvwNJcWND32Lu-232" vertex="1">
          <mxGeometry y="150" width="290" height="40" as="geometry" />
        </mxCell>
        <mxCell id="f6QQn7eRvwNJcWND32Lu-258" value="3" style="shape=partialRectangle;html=1;whiteSpace=wrap;connectable=0;strokeColor=inherit;overflow=hidden;fillColor=none;top=0;left=0;bottom=0;right=0;pointerEvents=1;" parent="f6QQn7eRvwNJcWND32Lu-257" vertex="1">
          <mxGeometry width="90" height="40" as="geometry">
            <mxRectangle width="90" height="40" as="alternateBounds" />
          </mxGeometry>
        </mxCell>
        <mxCell id="f6QQn7eRvwNJcWND32Lu-259" value="&lt;pre class=&quot;notranslate&quot; lang=&quot;plaintext&quot;&gt;&lt;code&gt;Análisis_de_Datos&lt;/code&gt;&lt;/pre&gt;" style="shape=partialRectangle;html=1;whiteSpace=wrap;connectable=0;strokeColor=inherit;overflow=hidden;fillColor=none;top=0;left=0;bottom=0;right=0;pointerEvents=1;" parent="f6QQn7eRvwNJcWND32Lu-257" vertex="1">
          <mxGeometry x="90" width="200" height="40" as="geometry">
            <mxRectangle width="200" height="40" as="alternateBounds" />
          </mxGeometry>
        </mxCell>
        <mxCell id="f6QQn7eRvwNJcWND32Lu-260" value="&lt;h2 tabindex=&quot;-1&quot; class=&quot;heading-element&quot; dir=&quot;auto&quot;&gt;Quinta Forma Normal (5NF )&lt;/h2&gt;" style="text;whiteSpace=wrap;html=1;" parent="1" vertex="1">
          <mxGeometry x="7200" y="2060" width="280" height="70" as="geometry" />
        </mxCell>
        <mxCell id="f6QQn7eRvwNJcWND32Lu-261" value="proyectos" style="shape=table;startSize=30;container=1;collapsible=0;childLayout=tableLayout;" parent="1" vertex="1">
          <mxGeometry x="7210" y="2150" width="150" height="150" as="geometry" />
        </mxCell>
        <mxCell id="f6QQn7eRvwNJcWND32Lu-262" value="" style="shape=tableRow;horizontal=0;startSize=0;swimlaneHead=0;swimlaneBody=0;strokeColor=inherit;top=0;left=0;bottom=0;right=0;collapsible=0;dropTarget=0;fillColor=none;points=[[0,0.5],[1,0.5]];portConstraint=eastwest;" parent="f6QQn7eRvwNJcWND32Lu-261" vertex="1">
          <mxGeometry y="30" width="150" height="40" as="geometry" />
        </mxCell>
        <mxCell id="f6QQn7eRvwNJcWND32Lu-263" value="id_proyecto" style="shape=partialRectangle;html=1;whiteSpace=wrap;connectable=0;strokeColor=inherit;overflow=hidden;fillColor=none;top=0;left=0;bottom=0;right=0;pointerEvents=1;" parent="f6QQn7eRvwNJcWND32Lu-262" vertex="1">
          <mxGeometry width="70" height="40" as="geometry">
            <mxRectangle width="70" height="40" as="alternateBounds" />
          </mxGeometry>
        </mxCell>
        <mxCell id="f6QQn7eRvwNJcWND32Lu-264" value="nombre" style="shape=partialRectangle;html=1;whiteSpace=wrap;connectable=0;strokeColor=inherit;overflow=hidden;fillColor=none;top=0;left=0;bottom=0;right=0;pointerEvents=1;" parent="f6QQn7eRvwNJcWND32Lu-262" vertex="1">
          <mxGeometry x="70" width="80" height="40" as="geometry">
            <mxRectangle width="80" height="40" as="alternateBounds" />
          </mxGeometry>
        </mxCell>
        <mxCell id="f6QQn7eRvwNJcWND32Lu-266" value="" style="shape=tableRow;horizontal=0;startSize=0;swimlaneHead=0;swimlaneBody=0;strokeColor=inherit;top=0;left=0;bottom=0;right=0;collapsible=0;dropTarget=0;fillColor=none;points=[[0,0.5],[1,0.5]];portConstraint=eastwest;" parent="f6QQn7eRvwNJcWND32Lu-261" vertex="1">
          <mxGeometry y="70" width="150" height="40" as="geometry" />
        </mxCell>
        <mxCell id="f6QQn7eRvwNJcWND32Lu-267" value="1" style="shape=partialRectangle;html=1;whiteSpace=wrap;connectable=0;strokeColor=inherit;overflow=hidden;fillColor=none;top=0;left=0;bottom=0;right=0;pointerEvents=1;" parent="f6QQn7eRvwNJcWND32Lu-266" vertex="1">
          <mxGeometry width="70" height="40" as="geometry">
            <mxRectangle width="70" height="40" as="alternateBounds" />
          </mxGeometry>
        </mxCell>
        <mxCell id="f6QQn7eRvwNJcWND32Lu-268" value="proyecto_1" style="shape=partialRectangle;html=1;whiteSpace=wrap;connectable=0;strokeColor=inherit;overflow=hidden;fillColor=none;top=0;left=0;bottom=0;right=0;pointerEvents=1;" parent="f6QQn7eRvwNJcWND32Lu-266" vertex="1">
          <mxGeometry x="70" width="80" height="40" as="geometry">
            <mxRectangle width="80" height="40" as="alternateBounds" />
          </mxGeometry>
        </mxCell>
        <mxCell id="f6QQn7eRvwNJcWND32Lu-270" value="" style="shape=tableRow;horizontal=0;startSize=0;swimlaneHead=0;swimlaneBody=0;strokeColor=inherit;top=0;left=0;bottom=0;right=0;collapsible=0;dropTarget=0;fillColor=none;points=[[0,0.5],[1,0.5]];portConstraint=eastwest;" parent="f6QQn7eRvwNJcWND32Lu-261" vertex="1">
          <mxGeometry y="110" width="150" height="40" as="geometry" />
        </mxCell>
        <mxCell id="f6QQn7eRvwNJcWND32Lu-271" value="2" style="shape=partialRectangle;html=1;whiteSpace=wrap;connectable=0;strokeColor=inherit;overflow=hidden;fillColor=none;top=0;left=0;bottom=0;right=0;pointerEvents=1;" parent="f6QQn7eRvwNJcWND32Lu-270" vertex="1">
          <mxGeometry width="70" height="40" as="geometry">
            <mxRectangle width="70" height="40" as="alternateBounds" />
          </mxGeometry>
        </mxCell>
        <mxCell id="f6QQn7eRvwNJcWND32Lu-272" value="proyecto_2" style="shape=partialRectangle;html=1;whiteSpace=wrap;connectable=0;strokeColor=inherit;overflow=hidden;fillColor=none;top=0;left=0;bottom=0;right=0;pointerEvents=1;" parent="f6QQn7eRvwNJcWND32Lu-270" vertex="1">
          <mxGeometry x="70" width="80" height="40" as="geometry">
            <mxRectangle width="80" height="40" as="alternateBounds" />
          </mxGeometry>
        </mxCell>
        <mxCell id="f6QQn7eRvwNJcWND32Lu-317" value="empleados" style="shape=table;startSize=30;container=1;collapsible=0;childLayout=tableLayout;" parent="1" vertex="1">
          <mxGeometry x="7210" y="2340" width="170" height="150" as="geometry" />
        </mxCell>
        <mxCell id="f6QQn7eRvwNJcWND32Lu-318" value="" style="shape=tableRow;horizontal=0;startSize=0;swimlaneHead=0;swimlaneBody=0;strokeColor=inherit;top=0;left=0;bottom=0;right=0;collapsible=0;dropTarget=0;fillColor=none;points=[[0,0.5],[1,0.5]];portConstraint=eastwest;" parent="f6QQn7eRvwNJcWND32Lu-317" vertex="1">
          <mxGeometry y="30" width="170" height="40" as="geometry" />
        </mxCell>
        <mxCell id="f6QQn7eRvwNJcWND32Lu-319" value="id_empleado" style="shape=partialRectangle;html=1;whiteSpace=wrap;connectable=0;strokeColor=inherit;overflow=hidden;fillColor=none;top=0;left=0;bottom=0;right=0;pointerEvents=1;" parent="f6QQn7eRvwNJcWND32Lu-318" vertex="1">
          <mxGeometry width="80" height="40" as="geometry">
            <mxRectangle width="80" height="40" as="alternateBounds" />
          </mxGeometry>
        </mxCell>
        <mxCell id="f6QQn7eRvwNJcWND32Lu-320" value="nombre" style="shape=partialRectangle;html=1;whiteSpace=wrap;connectable=0;strokeColor=inherit;overflow=hidden;fillColor=none;top=0;left=0;bottom=0;right=0;pointerEvents=1;" parent="f6QQn7eRvwNJcWND32Lu-318" vertex="1">
          <mxGeometry x="80" width="90" height="40" as="geometry">
            <mxRectangle width="90" height="40" as="alternateBounds" />
          </mxGeometry>
        </mxCell>
        <mxCell id="f6QQn7eRvwNJcWND32Lu-321" value="" style="shape=tableRow;horizontal=0;startSize=0;swimlaneHead=0;swimlaneBody=0;strokeColor=inherit;top=0;left=0;bottom=0;right=0;collapsible=0;dropTarget=0;fillColor=none;points=[[0,0.5],[1,0.5]];portConstraint=eastwest;" parent="f6QQn7eRvwNJcWND32Lu-317" vertex="1">
          <mxGeometry y="70" width="170" height="40" as="geometry" />
        </mxCell>
        <mxCell id="f6QQn7eRvwNJcWND32Lu-322" value="1" style="shape=partialRectangle;html=1;whiteSpace=wrap;connectable=0;strokeColor=inherit;overflow=hidden;fillColor=none;top=0;left=0;bottom=0;right=0;pointerEvents=1;" parent="f6QQn7eRvwNJcWND32Lu-321" vertex="1">
          <mxGeometry width="80" height="40" as="geometry">
            <mxRectangle width="80" height="40" as="alternateBounds" />
          </mxGeometry>
        </mxCell>
        <mxCell id="f6QQn7eRvwNJcWND32Lu-323" value="empleado_1" style="shape=partialRectangle;html=1;whiteSpace=wrap;connectable=0;strokeColor=inherit;overflow=hidden;fillColor=none;top=0;left=0;bottom=0;right=0;pointerEvents=1;" parent="f6QQn7eRvwNJcWND32Lu-321" vertex="1">
          <mxGeometry x="80" width="90" height="40" as="geometry">
            <mxRectangle width="90" height="40" as="alternateBounds" />
          </mxGeometry>
        </mxCell>
        <mxCell id="f6QQn7eRvwNJcWND32Lu-324" value="" style="shape=tableRow;horizontal=0;startSize=0;swimlaneHead=0;swimlaneBody=0;strokeColor=inherit;top=0;left=0;bottom=0;right=0;collapsible=0;dropTarget=0;fillColor=none;points=[[0,0.5],[1,0.5]];portConstraint=eastwest;" parent="f6QQn7eRvwNJcWND32Lu-317" vertex="1">
          <mxGeometry y="110" width="170" height="40" as="geometry" />
        </mxCell>
        <mxCell id="f6QQn7eRvwNJcWND32Lu-325" value="2" style="shape=partialRectangle;html=1;whiteSpace=wrap;connectable=0;strokeColor=inherit;overflow=hidden;fillColor=none;top=0;left=0;bottom=0;right=0;pointerEvents=1;" parent="f6QQn7eRvwNJcWND32Lu-324" vertex="1">
          <mxGeometry width="80" height="40" as="geometry">
            <mxRectangle width="80" height="40" as="alternateBounds" />
          </mxGeometry>
        </mxCell>
        <mxCell id="f6QQn7eRvwNJcWND32Lu-326" value="empleado_2" style="shape=partialRectangle;html=1;whiteSpace=wrap;connectable=0;strokeColor=inherit;overflow=hidden;fillColor=none;top=0;left=0;bottom=0;right=0;pointerEvents=1;" parent="f6QQn7eRvwNJcWND32Lu-324" vertex="1">
          <mxGeometry x="80" width="90" height="40" as="geometry">
            <mxRectangle width="90" height="40" as="alternateBounds" />
          </mxGeometry>
        </mxCell>
        <mxCell id="f6QQn7eRvwNJcWND32Lu-327" value="proveedores" style="shape=table;startSize=30;container=1;collapsible=0;childLayout=tableLayout;" parent="1" vertex="1">
          <mxGeometry x="7210" y="2530" width="170" height="150" as="geometry" />
        </mxCell>
        <mxCell id="f6QQn7eRvwNJcWND32Lu-328" value="" style="shape=tableRow;horizontal=0;startSize=0;swimlaneHead=0;swimlaneBody=0;strokeColor=inherit;top=0;left=0;bottom=0;right=0;collapsible=0;dropTarget=0;fillColor=none;points=[[0,0.5],[1,0.5]];portConstraint=eastwest;" parent="f6QQn7eRvwNJcWND32Lu-327" vertex="1">
          <mxGeometry y="30" width="170" height="40" as="geometry" />
        </mxCell>
        <mxCell id="f6QQn7eRvwNJcWND32Lu-329" value="id_proveedor" style="shape=partialRectangle;html=1;whiteSpace=wrap;connectable=0;strokeColor=inherit;overflow=hidden;fillColor=none;top=0;left=0;bottom=0;right=0;pointerEvents=1;" parent="f6QQn7eRvwNJcWND32Lu-328" vertex="1">
          <mxGeometry width="80" height="40" as="geometry">
            <mxRectangle width="80" height="40" as="alternateBounds" />
          </mxGeometry>
        </mxCell>
        <mxCell id="f6QQn7eRvwNJcWND32Lu-330" value="nombre" style="shape=partialRectangle;html=1;whiteSpace=wrap;connectable=0;strokeColor=inherit;overflow=hidden;fillColor=none;top=0;left=0;bottom=0;right=0;pointerEvents=1;" parent="f6QQn7eRvwNJcWND32Lu-328" vertex="1">
          <mxGeometry x="80" width="90" height="40" as="geometry">
            <mxRectangle width="90" height="40" as="alternateBounds" />
          </mxGeometry>
        </mxCell>
        <mxCell id="f6QQn7eRvwNJcWND32Lu-331" value="" style="shape=tableRow;horizontal=0;startSize=0;swimlaneHead=0;swimlaneBody=0;strokeColor=inherit;top=0;left=0;bottom=0;right=0;collapsible=0;dropTarget=0;fillColor=none;points=[[0,0.5],[1,0.5]];portConstraint=eastwest;" parent="f6QQn7eRvwNJcWND32Lu-327" vertex="1">
          <mxGeometry y="70" width="170" height="40" as="geometry" />
        </mxCell>
        <mxCell id="f6QQn7eRvwNJcWND32Lu-332" value="1" style="shape=partialRectangle;html=1;whiteSpace=wrap;connectable=0;strokeColor=inherit;overflow=hidden;fillColor=none;top=0;left=0;bottom=0;right=0;pointerEvents=1;" parent="f6QQn7eRvwNJcWND32Lu-331" vertex="1">
          <mxGeometry width="80" height="40" as="geometry">
            <mxRectangle width="80" height="40" as="alternateBounds" />
          </mxGeometry>
        </mxCell>
        <mxCell id="f6QQn7eRvwNJcWND32Lu-333" value="proveedor_1" style="shape=partialRectangle;html=1;whiteSpace=wrap;connectable=0;strokeColor=inherit;overflow=hidden;fillColor=none;top=0;left=0;bottom=0;right=0;pointerEvents=1;" parent="f6QQn7eRvwNJcWND32Lu-331" vertex="1">
          <mxGeometry x="80" width="90" height="40" as="geometry">
            <mxRectangle width="90" height="40" as="alternateBounds" />
          </mxGeometry>
        </mxCell>
        <mxCell id="f6QQn7eRvwNJcWND32Lu-334" value="" style="shape=tableRow;horizontal=0;startSize=0;swimlaneHead=0;swimlaneBody=0;strokeColor=inherit;top=0;left=0;bottom=0;right=0;collapsible=0;dropTarget=0;fillColor=none;points=[[0,0.5],[1,0.5]];portConstraint=eastwest;" parent="f6QQn7eRvwNJcWND32Lu-327" vertex="1">
          <mxGeometry y="110" width="170" height="40" as="geometry" />
        </mxCell>
        <mxCell id="f6QQn7eRvwNJcWND32Lu-335" value="2" style="shape=partialRectangle;html=1;whiteSpace=wrap;connectable=0;strokeColor=inherit;overflow=hidden;fillColor=none;top=0;left=0;bottom=0;right=0;pointerEvents=1;" parent="f6QQn7eRvwNJcWND32Lu-334" vertex="1">
          <mxGeometry width="80" height="40" as="geometry">
            <mxRectangle width="80" height="40" as="alternateBounds" />
          </mxGeometry>
        </mxCell>
        <mxCell id="f6QQn7eRvwNJcWND32Lu-336" value="proveedor_2" style="shape=partialRectangle;html=1;whiteSpace=wrap;connectable=0;strokeColor=inherit;overflow=hidden;fillColor=none;top=0;left=0;bottom=0;right=0;pointerEvents=1;" parent="f6QQn7eRvwNJcWND32Lu-334" vertex="1">
          <mxGeometry x="80" width="90" height="40" as="geometry">
            <mxRectangle width="90" height="40" as="alternateBounds" />
          </mxGeometry>
        </mxCell>
        <mxCell id="f6QQn7eRvwNJcWND32Lu-337" value="&lt;h2 tabindex=&quot;-1&quot; class=&quot;heading-element&quot; dir=&quot;auto&quot;&gt;Módulo 7: Redundancia de Datos en la vida real&lt;/h2&gt;" style="text;whiteSpace=wrap;html=1;" parent="1" vertex="1">
          <mxGeometry x="7570" y="2060" width="440" height="70" as="geometry" />
        </mxCell>
        <mxCell id="f6QQn7eRvwNJcWND32Lu-338" value="clientes" style="shape=table;startSize=30;container=1;collapsible=0;childLayout=tableLayout;" parent="1" vertex="1">
          <mxGeometry x="7600" y="2160" width="160" height="150" as="geometry" />
        </mxCell>
        <mxCell id="f6QQn7eRvwNJcWND32Lu-339" value="" style="shape=tableRow;horizontal=0;startSize=0;swimlaneHead=0;swimlaneBody=0;strokeColor=inherit;top=0;left=0;bottom=0;right=0;collapsible=0;dropTarget=0;fillColor=none;points=[[0,0.5],[1,0.5]];portConstraint=eastwest;" parent="f6QQn7eRvwNJcWND32Lu-338" vertex="1">
          <mxGeometry y="30" width="160" height="40" as="geometry" />
        </mxCell>
        <mxCell id="f6QQn7eRvwNJcWND32Lu-340" value="id_cliente" style="shape=partialRectangle;html=1;whiteSpace=wrap;connectable=0;strokeColor=inherit;overflow=hidden;fillColor=none;top=0;left=0;bottom=0;right=0;pointerEvents=1;" parent="f6QQn7eRvwNJcWND32Lu-339" vertex="1">
          <mxGeometry width="70" height="40" as="geometry">
            <mxRectangle width="70" height="40" as="alternateBounds" />
          </mxGeometry>
        </mxCell>
        <mxCell id="f6QQn7eRvwNJcWND32Lu-341" value="nombre" style="shape=partialRectangle;html=1;whiteSpace=wrap;connectable=0;strokeColor=inherit;overflow=hidden;fillColor=none;top=0;left=0;bottom=0;right=0;pointerEvents=1;" parent="f6QQn7eRvwNJcWND32Lu-339" vertex="1">
          <mxGeometry x="70" width="90" height="40" as="geometry">
            <mxRectangle width="90" height="40" as="alternateBounds" />
          </mxGeometry>
        </mxCell>
        <mxCell id="f6QQn7eRvwNJcWND32Lu-342" value="" style="shape=tableRow;horizontal=0;startSize=0;swimlaneHead=0;swimlaneBody=0;strokeColor=inherit;top=0;left=0;bottom=0;right=0;collapsible=0;dropTarget=0;fillColor=none;points=[[0,0.5],[1,0.5]];portConstraint=eastwest;" parent="f6QQn7eRvwNJcWND32Lu-338" vertex="1">
          <mxGeometry y="70" width="160" height="40" as="geometry" />
        </mxCell>
        <mxCell id="f6QQn7eRvwNJcWND32Lu-343" value="1" style="shape=partialRectangle;html=1;whiteSpace=wrap;connectable=0;strokeColor=inherit;overflow=hidden;fillColor=none;top=0;left=0;bottom=0;right=0;pointerEvents=1;" parent="f6QQn7eRvwNJcWND32Lu-342" vertex="1">
          <mxGeometry width="70" height="40" as="geometry">
            <mxRectangle width="70" height="40" as="alternateBounds" />
          </mxGeometry>
        </mxCell>
        <mxCell id="f6QQn7eRvwNJcWND32Lu-344" value="&lt;pre class=&quot;notranslate&quot; lang=&quot;plaintext&quot;&gt;&lt;code&gt;Juan_Pérez&lt;/code&gt;&lt;/pre&gt;" style="shape=partialRectangle;html=1;whiteSpace=wrap;connectable=0;strokeColor=inherit;overflow=hidden;fillColor=none;top=0;left=0;bottom=0;right=0;pointerEvents=1;" parent="f6QQn7eRvwNJcWND32Lu-342" vertex="1">
          <mxGeometry x="70" width="90" height="40" as="geometry">
            <mxRectangle width="90" height="40" as="alternateBounds" />
          </mxGeometry>
        </mxCell>
        <mxCell id="f6QQn7eRvwNJcWND32Lu-345" value="" style="shape=tableRow;horizontal=0;startSize=0;swimlaneHead=0;swimlaneBody=0;strokeColor=inherit;top=0;left=0;bottom=0;right=0;collapsible=0;dropTarget=0;fillColor=none;points=[[0,0.5],[1,0.5]];portConstraint=eastwest;" parent="f6QQn7eRvwNJcWND32Lu-338" vertex="1">
          <mxGeometry y="110" width="160" height="40" as="geometry" />
        </mxCell>
        <mxCell id="f6QQn7eRvwNJcWND32Lu-346" value="2" style="shape=partialRectangle;html=1;whiteSpace=wrap;connectable=0;strokeColor=inherit;overflow=hidden;fillColor=none;top=0;left=0;bottom=0;right=0;pointerEvents=1;" parent="f6QQn7eRvwNJcWND32Lu-345" vertex="1">
          <mxGeometry width="70" height="40" as="geometry">
            <mxRectangle width="70" height="40" as="alternateBounds" />
          </mxGeometry>
        </mxCell>
        <mxCell id="f6QQn7eRvwNJcWND32Lu-347" value="&lt;pre class=&quot;notranslate&quot; lang=&quot;plaintext&quot;&gt;&lt;code&gt;Ana_Gómez&lt;/code&gt;&lt;/pre&gt;" style="shape=partialRectangle;html=1;whiteSpace=wrap;connectable=0;strokeColor=inherit;overflow=hidden;fillColor=none;top=0;left=0;bottom=0;right=0;pointerEvents=1;" parent="f6QQn7eRvwNJcWND32Lu-345" vertex="1">
          <mxGeometry x="70" width="90" height="40" as="geometry">
            <mxRectangle width="90" height="40" as="alternateBounds" />
          </mxGeometry>
        </mxCell>
        <mxCell id="f6QQn7eRvwNJcWND32Lu-348" value="productos" style="shape=table;startSize=30;container=1;collapsible=0;childLayout=tableLayout;" parent="1" vertex="1">
          <mxGeometry x="7590" y="2350" width="260" height="150" as="geometry" />
        </mxCell>
        <mxCell id="f6QQn7eRvwNJcWND32Lu-349" value="" style="shape=tableRow;horizontal=0;startSize=0;swimlaneHead=0;swimlaneBody=0;strokeColor=inherit;top=0;left=0;bottom=0;right=0;collapsible=0;dropTarget=0;fillColor=none;points=[[0,0.5],[1,0.5]];portConstraint=eastwest;" parent="f6QQn7eRvwNJcWND32Lu-348" vertex="1">
          <mxGeometry y="30" width="260" height="40" as="geometry" />
        </mxCell>
        <mxCell id="f6QQn7eRvwNJcWND32Lu-350" value="id_producto" style="shape=partialRectangle;html=1;whiteSpace=wrap;connectable=0;strokeColor=inherit;overflow=hidden;fillColor=none;top=0;left=0;bottom=0;right=0;pointerEvents=1;" parent="f6QQn7eRvwNJcWND32Lu-349" vertex="1">
          <mxGeometry width="80" height="40" as="geometry">
            <mxRectangle width="80" height="40" as="alternateBounds" />
          </mxGeometry>
        </mxCell>
        <mxCell id="f6QQn7eRvwNJcWND32Lu-351" value="nombre" style="shape=partialRectangle;html=1;whiteSpace=wrap;connectable=0;strokeColor=inherit;overflow=hidden;fillColor=none;top=0;left=0;bottom=0;right=0;pointerEvents=1;" parent="f6QQn7eRvwNJcWND32Lu-349" vertex="1">
          <mxGeometry x="80" width="90" height="40" as="geometry">
            <mxRectangle width="90" height="40" as="alternateBounds" />
          </mxGeometry>
        </mxCell>
        <mxCell id="f6QQn7eRvwNJcWND32Lu-378" value="precio" style="shape=partialRectangle;html=1;whiteSpace=wrap;connectable=0;strokeColor=inherit;overflow=hidden;fillColor=none;top=0;left=0;bottom=0;right=0;pointerEvents=1;" parent="f6QQn7eRvwNJcWND32Lu-349" vertex="1">
          <mxGeometry x="170" width="90" height="40" as="geometry">
            <mxRectangle width="90" height="40" as="alternateBounds" />
          </mxGeometry>
        </mxCell>
        <mxCell id="f6QQn7eRvwNJcWND32Lu-352" value="" style="shape=tableRow;horizontal=0;startSize=0;swimlaneHead=0;swimlaneBody=0;strokeColor=inherit;top=0;left=0;bottom=0;right=0;collapsible=0;dropTarget=0;fillColor=none;points=[[0,0.5],[1,0.5]];portConstraint=eastwest;" parent="f6QQn7eRvwNJcWND32Lu-348" vertex="1">
          <mxGeometry y="70" width="260" height="40" as="geometry" />
        </mxCell>
        <mxCell id="f6QQn7eRvwNJcWND32Lu-353" value="1" style="shape=partialRectangle;html=1;whiteSpace=wrap;connectable=0;strokeColor=inherit;overflow=hidden;fillColor=none;top=0;left=0;bottom=0;right=0;pointerEvents=1;" parent="f6QQn7eRvwNJcWND32Lu-352" vertex="1">
          <mxGeometry width="80" height="40" as="geometry">
            <mxRectangle width="80" height="40" as="alternateBounds" />
          </mxGeometry>
        </mxCell>
        <mxCell id="f6QQn7eRvwNJcWND32Lu-354" value="&lt;pre class=&quot;notranslate&quot; lang=&quot;plaintext&quot;&gt;&lt;code&gt;Camiseta&lt;/code&gt;&lt;/pre&gt;" style="shape=partialRectangle;html=1;whiteSpace=wrap;connectable=0;strokeColor=inherit;overflow=hidden;fillColor=none;top=0;left=0;bottom=0;right=0;pointerEvents=1;" parent="f6QQn7eRvwNJcWND32Lu-352" vertex="1">
          <mxGeometry x="80" width="90" height="40" as="geometry">
            <mxRectangle width="90" height="40" as="alternateBounds" />
          </mxGeometry>
        </mxCell>
        <mxCell id="f6QQn7eRvwNJcWND32Lu-379" value="&lt;pre class=&quot;notranslate&quot; lang=&quot;plaintext&quot;&gt;&lt;code&gt;20.00&lt;/code&gt;&lt;/pre&gt;" style="shape=partialRectangle;html=1;whiteSpace=wrap;connectable=0;strokeColor=inherit;overflow=hidden;fillColor=none;top=0;left=0;bottom=0;right=0;pointerEvents=1;" parent="f6QQn7eRvwNJcWND32Lu-352" vertex="1">
          <mxGeometry x="170" width="90" height="40" as="geometry">
            <mxRectangle width="90" height="40" as="alternateBounds" />
          </mxGeometry>
        </mxCell>
        <mxCell id="f6QQn7eRvwNJcWND32Lu-355" value="" style="shape=tableRow;horizontal=0;startSize=0;swimlaneHead=0;swimlaneBody=0;strokeColor=inherit;top=0;left=0;bottom=0;right=0;collapsible=0;dropTarget=0;fillColor=none;points=[[0,0.5],[1,0.5]];portConstraint=eastwest;" parent="f6QQn7eRvwNJcWND32Lu-348" vertex="1">
          <mxGeometry y="110" width="260" height="40" as="geometry" />
        </mxCell>
        <mxCell id="f6QQn7eRvwNJcWND32Lu-356" value="2" style="shape=partialRectangle;html=1;whiteSpace=wrap;connectable=0;strokeColor=inherit;overflow=hidden;fillColor=none;top=0;left=0;bottom=0;right=0;pointerEvents=1;" parent="f6QQn7eRvwNJcWND32Lu-355" vertex="1">
          <mxGeometry width="80" height="40" as="geometry">
            <mxRectangle width="80" height="40" as="alternateBounds" />
          </mxGeometry>
        </mxCell>
        <mxCell id="f6QQn7eRvwNJcWND32Lu-357" value="&lt;pre class=&quot;notranslate&quot; lang=&quot;plaintext&quot;&gt;&lt;code&gt;Pantalones&lt;/code&gt;&lt;/pre&gt;" style="shape=partialRectangle;html=1;whiteSpace=wrap;connectable=0;strokeColor=inherit;overflow=hidden;fillColor=none;top=0;left=0;bottom=0;right=0;pointerEvents=1;" parent="f6QQn7eRvwNJcWND32Lu-355" vertex="1">
          <mxGeometry x="80" width="90" height="40" as="geometry">
            <mxRectangle width="90" height="40" as="alternateBounds" />
          </mxGeometry>
        </mxCell>
        <mxCell id="f6QQn7eRvwNJcWND32Lu-380" value="&lt;pre class=&quot;notranslate&quot; lang=&quot;plaintext&quot;&gt;&lt;code&gt;25.00&lt;/code&gt;&lt;/pre&gt;" style="shape=partialRectangle;html=1;whiteSpace=wrap;connectable=0;strokeColor=inherit;overflow=hidden;fillColor=none;top=0;left=0;bottom=0;right=0;pointerEvents=1;" parent="f6QQn7eRvwNJcWND32Lu-355" vertex="1">
          <mxGeometry x="170" width="90" height="40" as="geometry">
            <mxRectangle width="90" height="40" as="alternateBounds" />
          </mxGeometry>
        </mxCell>
        <mxCell id="f6QQn7eRvwNJcWND32Lu-368" value="ventas" style="shape=table;startSize=30;container=1;collapsible=0;childLayout=tableLayout;" parent="1" vertex="1">
          <mxGeometry x="7590" y="2540" width="350" height="190" as="geometry" />
        </mxCell>
        <mxCell id="f6QQn7eRvwNJcWND32Lu-369" value="" style="shape=tableRow;horizontal=0;startSize=0;swimlaneHead=0;swimlaneBody=0;strokeColor=inherit;top=0;left=0;bottom=0;right=0;collapsible=0;dropTarget=0;fillColor=none;points=[[0,0.5],[1,0.5]];portConstraint=eastwest;" parent="f6QQn7eRvwNJcWND32Lu-368" vertex="1">
          <mxGeometry y="30" width="350" height="40" as="geometry" />
        </mxCell>
        <mxCell id="f6QQn7eRvwNJcWND32Lu-370" value="id_venta" style="shape=partialRectangle;html=1;whiteSpace=wrap;connectable=0;strokeColor=inherit;overflow=hidden;fillColor=none;top=0;left=0;bottom=0;right=0;pointerEvents=1;" parent="f6QQn7eRvwNJcWND32Lu-369" vertex="1">
          <mxGeometry width="80" height="40" as="geometry">
            <mxRectangle width="80" height="40" as="alternateBounds" />
          </mxGeometry>
        </mxCell>
        <mxCell id="f6QQn7eRvwNJcWND32Lu-392" value="id_cliente" style="shape=partialRectangle;html=1;whiteSpace=wrap;connectable=0;strokeColor=inherit;overflow=hidden;fillColor=none;top=0;left=0;bottom=0;right=0;pointerEvents=1;" parent="f6QQn7eRvwNJcWND32Lu-369" vertex="1">
          <mxGeometry x="80" width="90" height="40" as="geometry">
            <mxRectangle width="90" height="40" as="alternateBounds" />
          </mxGeometry>
        </mxCell>
        <mxCell id="f6QQn7eRvwNJcWND32Lu-371" value="id_producto" style="shape=partialRectangle;html=1;whiteSpace=wrap;connectable=0;strokeColor=inherit;overflow=hidden;fillColor=none;top=0;left=0;bottom=0;right=0;pointerEvents=1;" parent="f6QQn7eRvwNJcWND32Lu-369" vertex="1">
          <mxGeometry x="170" width="90" height="40" as="geometry">
            <mxRectangle width="90" height="40" as="alternateBounds" />
          </mxGeometry>
        </mxCell>
        <mxCell id="f6QQn7eRvwNJcWND32Lu-381" value="fecha" style="shape=partialRectangle;html=1;whiteSpace=wrap;connectable=0;strokeColor=inherit;overflow=hidden;fillColor=none;top=0;left=0;bottom=0;right=0;pointerEvents=1;" parent="f6QQn7eRvwNJcWND32Lu-369" vertex="1">
          <mxGeometry x="260" width="90" height="40" as="geometry">
            <mxRectangle width="90" height="40" as="alternateBounds" />
          </mxGeometry>
        </mxCell>
        <mxCell id="f6QQn7eRvwNJcWND32Lu-372" value="" style="shape=tableRow;horizontal=0;startSize=0;swimlaneHead=0;swimlaneBody=0;strokeColor=inherit;top=0;left=0;bottom=0;right=0;collapsible=0;dropTarget=0;fillColor=none;points=[[0,0.5],[1,0.5]];portConstraint=eastwest;" parent="f6QQn7eRvwNJcWND32Lu-368" vertex="1">
          <mxGeometry y="70" width="350" height="40" as="geometry" />
        </mxCell>
        <mxCell id="f6QQn7eRvwNJcWND32Lu-373" value="1" style="shape=partialRectangle;html=1;whiteSpace=wrap;connectable=0;strokeColor=inherit;overflow=hidden;fillColor=none;top=0;left=0;bottom=0;right=0;pointerEvents=1;" parent="f6QQn7eRvwNJcWND32Lu-372" vertex="1">
          <mxGeometry width="80" height="40" as="geometry">
            <mxRectangle width="80" height="40" as="alternateBounds" />
          </mxGeometry>
        </mxCell>
        <mxCell id="f6QQn7eRvwNJcWND32Lu-393" value="1" style="shape=partialRectangle;html=1;whiteSpace=wrap;connectable=0;strokeColor=inherit;overflow=hidden;fillColor=none;top=0;left=0;bottom=0;right=0;pointerEvents=1;" parent="f6QQn7eRvwNJcWND32Lu-372" vertex="1">
          <mxGeometry x="80" width="90" height="40" as="geometry">
            <mxRectangle width="90" height="40" as="alternateBounds" />
          </mxGeometry>
        </mxCell>
        <mxCell id="f6QQn7eRvwNJcWND32Lu-374" value="1" style="shape=partialRectangle;html=1;whiteSpace=wrap;connectable=0;strokeColor=inherit;overflow=hidden;fillColor=none;top=0;left=0;bottom=0;right=0;pointerEvents=1;" parent="f6QQn7eRvwNJcWND32Lu-372" vertex="1">
          <mxGeometry x="170" width="90" height="40" as="geometry">
            <mxRectangle width="90" height="40" as="alternateBounds" />
          </mxGeometry>
        </mxCell>
        <mxCell id="f6QQn7eRvwNJcWND32Lu-382" value="&lt;pre class=&quot;notranslate&quot; lang=&quot;plaintext&quot;&gt;&lt;code&gt;2023-01-01&lt;/code&gt;&lt;/pre&gt;" style="shape=partialRectangle;html=1;whiteSpace=wrap;connectable=0;strokeColor=inherit;overflow=hidden;fillColor=none;top=0;left=0;bottom=0;right=0;pointerEvents=1;" parent="f6QQn7eRvwNJcWND32Lu-372" vertex="1">
          <mxGeometry x="260" width="90" height="40" as="geometry">
            <mxRectangle width="90" height="40" as="alternateBounds" />
          </mxGeometry>
        </mxCell>
        <mxCell id="f6QQn7eRvwNJcWND32Lu-375" value="" style="shape=tableRow;horizontal=0;startSize=0;swimlaneHead=0;swimlaneBody=0;strokeColor=inherit;top=0;left=0;bottom=0;right=0;collapsible=0;dropTarget=0;fillColor=none;points=[[0,0.5],[1,0.5]];portConstraint=eastwest;" parent="f6QQn7eRvwNJcWND32Lu-368" vertex="1">
          <mxGeometry y="110" width="350" height="40" as="geometry" />
        </mxCell>
        <mxCell id="f6QQn7eRvwNJcWND32Lu-376" value="2" style="shape=partialRectangle;html=1;whiteSpace=wrap;connectable=0;strokeColor=inherit;overflow=hidden;fillColor=none;top=0;left=0;bottom=0;right=0;pointerEvents=1;" parent="f6QQn7eRvwNJcWND32Lu-375" vertex="1">
          <mxGeometry width="80" height="40" as="geometry">
            <mxRectangle width="80" height="40" as="alternateBounds" />
          </mxGeometry>
        </mxCell>
        <mxCell id="f6QQn7eRvwNJcWND32Lu-394" value="2" style="shape=partialRectangle;html=1;whiteSpace=wrap;connectable=0;strokeColor=inherit;overflow=hidden;fillColor=none;top=0;left=0;bottom=0;right=0;pointerEvents=1;" parent="f6QQn7eRvwNJcWND32Lu-375" vertex="1">
          <mxGeometry x="80" width="90" height="40" as="geometry">
            <mxRectangle width="90" height="40" as="alternateBounds" />
          </mxGeometry>
        </mxCell>
        <mxCell id="f6QQn7eRvwNJcWND32Lu-377" value="2" style="shape=partialRectangle;html=1;whiteSpace=wrap;connectable=0;strokeColor=inherit;overflow=hidden;fillColor=none;top=0;left=0;bottom=0;right=0;pointerEvents=1;" parent="f6QQn7eRvwNJcWND32Lu-375" vertex="1">
          <mxGeometry x="170" width="90" height="40" as="geometry">
            <mxRectangle width="90" height="40" as="alternateBounds" />
          </mxGeometry>
        </mxCell>
        <mxCell id="f6QQn7eRvwNJcWND32Lu-383" value="&lt;pre class=&quot;notranslate&quot; lang=&quot;plaintext&quot;&gt;&lt;code&gt;2023-01-02&lt;/code&gt;&lt;/pre&gt;" style="shape=partialRectangle;html=1;whiteSpace=wrap;connectable=0;strokeColor=inherit;overflow=hidden;fillColor=none;top=0;left=0;bottom=0;right=0;pointerEvents=1;" parent="f6QQn7eRvwNJcWND32Lu-375" vertex="1">
          <mxGeometry x="260" width="90" height="40" as="geometry">
            <mxRectangle width="90" height="40" as="alternateBounds" />
          </mxGeometry>
        </mxCell>
        <mxCell id="f6QQn7eRvwNJcWND32Lu-388" value="" style="shape=tableRow;horizontal=0;startSize=0;swimlaneHead=0;swimlaneBody=0;strokeColor=inherit;top=0;left=0;bottom=0;right=0;collapsible=0;dropTarget=0;fillColor=none;points=[[0,0.5],[1,0.5]];portConstraint=eastwest;" parent="f6QQn7eRvwNJcWND32Lu-368" vertex="1">
          <mxGeometry y="150" width="350" height="40" as="geometry" />
        </mxCell>
        <mxCell id="f6QQn7eRvwNJcWND32Lu-389" value="3" style="shape=partialRectangle;html=1;whiteSpace=wrap;connectable=0;strokeColor=inherit;overflow=hidden;fillColor=none;top=0;left=0;bottom=0;right=0;pointerEvents=1;" parent="f6QQn7eRvwNJcWND32Lu-388" vertex="1">
          <mxGeometry width="80" height="40" as="geometry">
            <mxRectangle width="80" height="40" as="alternateBounds" />
          </mxGeometry>
        </mxCell>
        <mxCell id="f6QQn7eRvwNJcWND32Lu-395" value="1" style="shape=partialRectangle;html=1;whiteSpace=wrap;connectable=0;strokeColor=inherit;overflow=hidden;fillColor=none;top=0;left=0;bottom=0;right=0;pointerEvents=1;" parent="f6QQn7eRvwNJcWND32Lu-388" vertex="1">
          <mxGeometry x="80" width="90" height="40" as="geometry">
            <mxRectangle width="90" height="40" as="alternateBounds" />
          </mxGeometry>
        </mxCell>
        <mxCell id="f6QQn7eRvwNJcWND32Lu-390" value="1" style="shape=partialRectangle;html=1;whiteSpace=wrap;connectable=0;strokeColor=inherit;overflow=hidden;fillColor=none;top=0;left=0;bottom=0;right=0;pointerEvents=1;" parent="f6QQn7eRvwNJcWND32Lu-388" vertex="1">
          <mxGeometry x="170" width="90" height="40" as="geometry">
            <mxRectangle width="90" height="40" as="alternateBounds" />
          </mxGeometry>
        </mxCell>
        <mxCell id="f6QQn7eRvwNJcWND32Lu-391" value="&lt;pre class=&quot;notranslate&quot; lang=&quot;plaintext&quot;&gt;&lt;code&gt;2023-01-03&lt;/code&gt;&lt;/pre&gt;" style="shape=partialRectangle;html=1;whiteSpace=wrap;connectable=0;strokeColor=inherit;overflow=hidden;fillColor=none;top=0;left=0;bottom=0;right=0;pointerEvents=1;" parent="f6QQn7eRvwNJcWND32Lu-388" vertex="1">
          <mxGeometry x="260" width="90" height="40" as="geometry">
            <mxRectangle width="90" height="40" as="alternateBounds" />
          </mxGeometry>
        </mxCell>
        <mxCell id="f6QQn7eRvwNJcWND32Lu-396" value="&lt;h2 tabindex=&quot;-1&quot; class=&quot;heading-element&quot; dir=&quot;auto&quot;&gt;Módulo 8: Atomicidad de Datos en Bases de Datos en la vida real&lt;/h2&gt;" style="text;whiteSpace=wrap;html=1;" parent="1" vertex="1">
          <mxGeometry x="8090" y="2070" width="560" height="70" as="geometry" />
        </mxCell>
        <mxCell id="f6QQn7eRvwNJcWND32Lu-397" value="inventarios" style="shape=table;startSize=30;container=1;collapsible=0;childLayout=tableLayout;" parent="1" vertex="1">
          <mxGeometry x="8230" y="2160" width="190" height="150" as="geometry" />
        </mxCell>
        <mxCell id="f6QQn7eRvwNJcWND32Lu-398" value="" style="shape=tableRow;horizontal=0;startSize=0;swimlaneHead=0;swimlaneBody=0;strokeColor=inherit;top=0;left=0;bottom=0;right=0;collapsible=0;dropTarget=0;fillColor=none;points=[[0,0.5],[1,0.5]];portConstraint=eastwest;" parent="f6QQn7eRvwNJcWND32Lu-397" vertex="1">
          <mxGeometry y="30" width="190" height="40" as="geometry" />
        </mxCell>
        <mxCell id="f6QQn7eRvwNJcWND32Lu-399" value="id_inventario" style="shape=partialRectangle;html=1;whiteSpace=wrap;connectable=0;strokeColor=inherit;overflow=hidden;fillColor=none;top=0;left=0;bottom=0;right=0;pointerEvents=1;" parent="f6QQn7eRvwNJcWND32Lu-398" vertex="1">
          <mxGeometry width="90" height="40" as="geometry">
            <mxRectangle width="90" height="40" as="alternateBounds" />
          </mxGeometry>
        </mxCell>
        <mxCell id="f6QQn7eRvwNJcWND32Lu-400" value="producto" style="shape=partialRectangle;html=1;whiteSpace=wrap;connectable=0;strokeColor=inherit;overflow=hidden;fillColor=none;top=0;left=0;bottom=0;right=0;pointerEvents=1;" parent="f6QQn7eRvwNJcWND32Lu-398" vertex="1">
          <mxGeometry x="90" width="100" height="40" as="geometry">
            <mxRectangle width="100" height="40" as="alternateBounds" />
          </mxGeometry>
        </mxCell>
        <mxCell id="f6QQn7eRvwNJcWND32Lu-401" value="" style="shape=tableRow;horizontal=0;startSize=0;swimlaneHead=0;swimlaneBody=0;strokeColor=inherit;top=0;left=0;bottom=0;right=0;collapsible=0;dropTarget=0;fillColor=none;points=[[0,0.5],[1,0.5]];portConstraint=eastwest;" parent="f6QQn7eRvwNJcWND32Lu-397" vertex="1">
          <mxGeometry y="70" width="190" height="40" as="geometry" />
        </mxCell>
        <mxCell id="f6QQn7eRvwNJcWND32Lu-402" value="1" style="shape=partialRectangle;html=1;whiteSpace=wrap;connectable=0;strokeColor=inherit;overflow=hidden;fillColor=none;top=0;left=0;bottom=0;right=0;pointerEvents=1;" parent="f6QQn7eRvwNJcWND32Lu-401" vertex="1">
          <mxGeometry width="90" height="40" as="geometry">
            <mxRectangle width="90" height="40" as="alternateBounds" />
          </mxGeometry>
        </mxCell>
        <mxCell id="f6QQn7eRvwNJcWND32Lu-403" value="&lt;pre class=&quot;notranslate&quot; lang=&quot;plaintext&quot;&gt;&lt;code&gt;Tornillos&lt;/code&gt;&lt;/pre&gt;" style="shape=partialRectangle;html=1;whiteSpace=wrap;connectable=0;strokeColor=inherit;overflow=hidden;fillColor=none;top=0;left=0;bottom=0;right=0;pointerEvents=1;" parent="f6QQn7eRvwNJcWND32Lu-401" vertex="1">
          <mxGeometry x="90" width="100" height="40" as="geometry">
            <mxRectangle width="100" height="40" as="alternateBounds" />
          </mxGeometry>
        </mxCell>
        <mxCell id="f6QQn7eRvwNJcWND32Lu-404" value="" style="shape=tableRow;horizontal=0;startSize=0;swimlaneHead=0;swimlaneBody=0;strokeColor=inherit;top=0;left=0;bottom=0;right=0;collapsible=0;dropTarget=0;fillColor=none;points=[[0,0.5],[1,0.5]];portConstraint=eastwest;" parent="f6QQn7eRvwNJcWND32Lu-397" vertex="1">
          <mxGeometry y="110" width="190" height="40" as="geometry" />
        </mxCell>
        <mxCell id="f6QQn7eRvwNJcWND32Lu-405" value="2" style="shape=partialRectangle;html=1;whiteSpace=wrap;connectable=0;strokeColor=inherit;overflow=hidden;fillColor=none;top=0;left=0;bottom=0;right=0;pointerEvents=1;" parent="f6QQn7eRvwNJcWND32Lu-404" vertex="1">
          <mxGeometry width="90" height="40" as="geometry">
            <mxRectangle width="90" height="40" as="alternateBounds" />
          </mxGeometry>
        </mxCell>
        <mxCell id="f6QQn7eRvwNJcWND32Lu-406" value="&lt;pre class=&quot;notranslate&quot; lang=&quot;plaintext&quot;&gt;&lt;code&gt;Clavos&lt;/code&gt;&lt;/pre&gt;" style="shape=partialRectangle;html=1;whiteSpace=wrap;connectable=0;strokeColor=inherit;overflow=hidden;fillColor=none;top=0;left=0;bottom=0;right=0;pointerEvents=1;" parent="f6QQn7eRvwNJcWND32Lu-404" vertex="1">
          <mxGeometry x="90" width="100" height="40" as="geometry">
            <mxRectangle width="100" height="40" as="alternateBounds" />
          </mxGeometry>
        </mxCell>
        <mxCell id="f6QQn7eRvwNJcWND32Lu-407" value="detalle_ubicaciones" style="shape=table;startSize=30;container=1;collapsible=0;childLayout=tableLayout;" parent="1" vertex="1">
          <mxGeometry x="8230" y="2350" width="290" height="230" as="geometry" />
        </mxCell>
        <mxCell id="f6QQn7eRvwNJcWND32Lu-408" value="" style="shape=tableRow;horizontal=0;startSize=0;swimlaneHead=0;swimlaneBody=0;strokeColor=inherit;top=0;left=0;bottom=0;right=0;collapsible=0;dropTarget=0;fillColor=none;points=[[0,0.5],[1,0.5]];portConstraint=eastwest;" parent="f6QQn7eRvwNJcWND32Lu-407" vertex="1">
          <mxGeometry y="30" width="290" height="40" as="geometry" />
        </mxCell>
        <mxCell id="f6QQn7eRvwNJcWND32Lu-409" value="id_inventario" style="shape=partialRectangle;html=1;whiteSpace=wrap;connectable=0;strokeColor=inherit;overflow=hidden;fillColor=none;top=0;left=0;bottom=0;right=0;pointerEvents=1;" parent="f6QQn7eRvwNJcWND32Lu-408" vertex="1">
          <mxGeometry width="90" height="40" as="geometry">
            <mxRectangle width="90" height="40" as="alternateBounds" />
          </mxGeometry>
        </mxCell>
        <mxCell id="f6QQn7eRvwNJcWND32Lu-410" value="" style="shape=partialRectangle;html=1;whiteSpace=wrap;connectable=0;strokeColor=inherit;overflow=hidden;fillColor=none;top=0;left=0;bottom=0;right=0;pointerEvents=1;" parent="f6QQn7eRvwNJcWND32Lu-408" vertex="1">
          <mxGeometry x="90" width="100" height="40" as="geometry">
            <mxRectangle width="100" height="40" as="alternateBounds" />
          </mxGeometry>
        </mxCell>
        <mxCell id="f6QQn7eRvwNJcWND32Lu-417" value="" style="shape=partialRectangle;html=1;whiteSpace=wrap;connectable=0;strokeColor=inherit;overflow=hidden;fillColor=none;top=0;left=0;bottom=0;right=0;pointerEvents=1;" parent="f6QQn7eRvwNJcWND32Lu-408" vertex="1">
          <mxGeometry x="190" width="100" height="40" as="geometry">
            <mxRectangle width="100" height="40" as="alternateBounds" />
          </mxGeometry>
        </mxCell>
        <mxCell id="f6QQn7eRvwNJcWND32Lu-411" value="" style="shape=tableRow;horizontal=0;startSize=0;swimlaneHead=0;swimlaneBody=0;strokeColor=inherit;top=0;left=0;bottom=0;right=0;collapsible=0;dropTarget=0;fillColor=none;points=[[0,0.5],[1,0.5]];portConstraint=eastwest;" parent="f6QQn7eRvwNJcWND32Lu-407" vertex="1">
          <mxGeometry y="70" width="290" height="40" as="geometry" />
        </mxCell>
        <mxCell id="f6QQn7eRvwNJcWND32Lu-412" value="1" style="shape=partialRectangle;html=1;whiteSpace=wrap;connectable=0;strokeColor=inherit;overflow=hidden;fillColor=none;top=0;left=0;bottom=0;right=0;pointerEvents=1;" parent="f6QQn7eRvwNJcWND32Lu-411" vertex="1">
          <mxGeometry width="90" height="40" as="geometry">
            <mxRectangle width="90" height="40" as="alternateBounds" />
          </mxGeometry>
        </mxCell>
        <mxCell id="f6QQn7eRvwNJcWND32Lu-413" value="" style="shape=partialRectangle;html=1;whiteSpace=wrap;connectable=0;strokeColor=inherit;overflow=hidden;fillColor=none;top=0;left=0;bottom=0;right=0;pointerEvents=1;" parent="f6QQn7eRvwNJcWND32Lu-411" vertex="1">
          <mxGeometry x="90" width="100" height="40" as="geometry">
            <mxRectangle width="100" height="40" as="alternateBounds" />
          </mxGeometry>
        </mxCell>
        <mxCell id="f6QQn7eRvwNJcWND32Lu-418" value="" style="shape=partialRectangle;html=1;whiteSpace=wrap;connectable=0;strokeColor=inherit;overflow=hidden;fillColor=none;top=0;left=0;bottom=0;right=0;pointerEvents=1;" parent="f6QQn7eRvwNJcWND32Lu-411" vertex="1">
          <mxGeometry x="190" width="100" height="40" as="geometry">
            <mxRectangle width="100" height="40" as="alternateBounds" />
          </mxGeometry>
        </mxCell>
        <mxCell id="f6QQn7eRvwNJcWND32Lu-414" value="" style="shape=tableRow;horizontal=0;startSize=0;swimlaneHead=0;swimlaneBody=0;strokeColor=inherit;top=0;left=0;bottom=0;right=0;collapsible=0;dropTarget=0;fillColor=none;points=[[0,0.5],[1,0.5]];portConstraint=eastwest;" parent="f6QQn7eRvwNJcWND32Lu-407" vertex="1">
          <mxGeometry y="110" width="290" height="40" as="geometry" />
        </mxCell>
        <mxCell id="f6QQn7eRvwNJcWND32Lu-415" value="1" style="shape=partialRectangle;html=1;whiteSpace=wrap;connectable=0;strokeColor=inherit;overflow=hidden;fillColor=none;top=0;left=0;bottom=0;right=0;pointerEvents=1;" parent="f6QQn7eRvwNJcWND32Lu-414" vertex="1">
          <mxGeometry width="90" height="40" as="geometry">
            <mxRectangle width="90" height="40" as="alternateBounds" />
          </mxGeometry>
        </mxCell>
        <mxCell id="f6QQn7eRvwNJcWND32Lu-416" value="" style="shape=partialRectangle;html=1;whiteSpace=wrap;connectable=0;strokeColor=inherit;overflow=hidden;fillColor=none;top=0;left=0;bottom=0;right=0;pointerEvents=1;" parent="f6QQn7eRvwNJcWND32Lu-414" vertex="1">
          <mxGeometry x="90" width="100" height="40" as="geometry">
            <mxRectangle width="100" height="40" as="alternateBounds" />
          </mxGeometry>
        </mxCell>
        <mxCell id="f6QQn7eRvwNJcWND32Lu-419" value="" style="shape=partialRectangle;html=1;whiteSpace=wrap;connectable=0;strokeColor=inherit;overflow=hidden;fillColor=none;top=0;left=0;bottom=0;right=0;pointerEvents=1;" parent="f6QQn7eRvwNJcWND32Lu-414" vertex="1">
          <mxGeometry x="190" width="100" height="40" as="geometry">
            <mxRectangle width="100" height="40" as="alternateBounds" />
          </mxGeometry>
        </mxCell>
        <mxCell id="f6QQn7eRvwNJcWND32Lu-420" value="" style="shape=tableRow;horizontal=0;startSize=0;swimlaneHead=0;swimlaneBody=0;strokeColor=inherit;top=0;left=0;bottom=0;right=0;collapsible=0;dropTarget=0;fillColor=none;points=[[0,0.5],[1,0.5]];portConstraint=eastwest;" parent="f6QQn7eRvwNJcWND32Lu-407" vertex="1">
          <mxGeometry y="150" width="290" height="40" as="geometry" />
        </mxCell>
        <mxCell id="f6QQn7eRvwNJcWND32Lu-421" value="2" style="shape=partialRectangle;html=1;whiteSpace=wrap;connectable=0;strokeColor=inherit;overflow=hidden;fillColor=none;top=0;left=0;bottom=0;right=0;pointerEvents=1;" parent="f6QQn7eRvwNJcWND32Lu-420" vertex="1">
          <mxGeometry width="90" height="40" as="geometry">
            <mxRectangle width="90" height="40" as="alternateBounds" />
          </mxGeometry>
        </mxCell>
        <mxCell id="f6QQn7eRvwNJcWND32Lu-422" value="" style="shape=partialRectangle;html=1;whiteSpace=wrap;connectable=0;strokeColor=inherit;overflow=hidden;fillColor=none;top=0;left=0;bottom=0;right=0;pointerEvents=1;" parent="f6QQn7eRvwNJcWND32Lu-420" vertex="1">
          <mxGeometry x="90" width="100" height="40" as="geometry">
            <mxRectangle width="100" height="40" as="alternateBounds" />
          </mxGeometry>
        </mxCell>
        <mxCell id="f6QQn7eRvwNJcWND32Lu-423" value="" style="shape=partialRectangle;html=1;whiteSpace=wrap;connectable=0;strokeColor=inherit;overflow=hidden;fillColor=none;top=0;left=0;bottom=0;right=0;pointerEvents=1;" parent="f6QQn7eRvwNJcWND32Lu-420" vertex="1">
          <mxGeometry x="190" width="100" height="40" as="geometry">
            <mxRectangle width="100" height="40" as="alternateBounds" />
          </mxGeometry>
        </mxCell>
        <mxCell id="f6QQn7eRvwNJcWND32Lu-424" value="" style="shape=tableRow;horizontal=0;startSize=0;swimlaneHead=0;swimlaneBody=0;strokeColor=inherit;top=0;left=0;bottom=0;right=0;collapsible=0;dropTarget=0;fillColor=none;points=[[0,0.5],[1,0.5]];portConstraint=eastwest;" parent="f6QQn7eRvwNJcWND32Lu-407" vertex="1">
          <mxGeometry y="190" width="290" height="40" as="geometry" />
        </mxCell>
        <mxCell id="f6QQn7eRvwNJcWND32Lu-425" value="2" style="shape=partialRectangle;html=1;whiteSpace=wrap;connectable=0;strokeColor=inherit;overflow=hidden;fillColor=none;top=0;left=0;bottom=0;right=0;pointerEvents=1;" parent="f6QQn7eRvwNJcWND32Lu-424" vertex="1">
          <mxGeometry width="90" height="40" as="geometry">
            <mxRectangle width="90" height="40" as="alternateBounds" />
          </mxGeometry>
        </mxCell>
        <mxCell id="f6QQn7eRvwNJcWND32Lu-426" value="" style="shape=partialRectangle;html=1;whiteSpace=wrap;connectable=0;strokeColor=inherit;overflow=hidden;fillColor=none;top=0;left=0;bottom=0;right=0;pointerEvents=1;" parent="f6QQn7eRvwNJcWND32Lu-424" vertex="1">
          <mxGeometry x="90" width="100" height="40" as="geometry">
            <mxRectangle width="100" height="40" as="alternateBounds" />
          </mxGeometry>
        </mxCell>
        <mxCell id="f6QQn7eRvwNJcWND32Lu-427" value="" style="shape=partialRectangle;html=1;whiteSpace=wrap;connectable=0;strokeColor=inherit;overflow=hidden;fillColor=none;top=0;left=0;bottom=0;right=0;pointerEvents=1;" parent="f6QQn7eRvwNJcWND32Lu-424" vertex="1">
          <mxGeometry x="190" width="100" height="40" as="geometry">
            <mxRectangle width="100" height="40" as="alternateBounds" />
          </mxGeometry>
        </mxCell>
        <mxCell id="f6QQn7eRvwNJcWND32Lu-428" value="Ubicaciones" style="shape=partialRectangle;html=1;whiteSpace=wrap;connectable=0;strokeColor=inherit;overflow=hidden;fillColor=none;top=0;left=0;bottom=0;right=0;pointerEvents=1;" parent="1" vertex="1">
          <mxGeometry x="8320" y="2380" width="100" height="40" as="geometry">
            <mxRectangle width="100" height="40" as="alternateBounds" />
          </mxGeometry>
        </mxCell>
        <mxCell id="f6QQn7eRvwNJcWND32Lu-429" value="A1" style="shape=partialRectangle;html=1;whiteSpace=wrap;connectable=0;strokeColor=inherit;overflow=hidden;fillColor=none;top=0;left=0;bottom=0;right=0;pointerEvents=1;" parent="1" vertex="1">
          <mxGeometry x="8320" y="2420" width="100" height="40" as="geometry">
            <mxRectangle width="100" height="40" as="alternateBounds" />
          </mxGeometry>
        </mxCell>
        <mxCell id="f6QQn7eRvwNJcWND32Lu-430" value="B2" style="shape=partialRectangle;html=1;whiteSpace=wrap;connectable=0;strokeColor=inherit;overflow=hidden;fillColor=none;top=0;left=0;bottom=0;right=0;pointerEvents=1;" parent="1" vertex="1">
          <mxGeometry x="8320" y="2460" width="100" height="40" as="geometry">
            <mxRectangle width="100" height="40" as="alternateBounds" />
          </mxGeometry>
        </mxCell>
        <mxCell id="f6QQn7eRvwNJcWND32Lu-431" value="A3" style="shape=partialRectangle;html=1;whiteSpace=wrap;connectable=0;strokeColor=inherit;overflow=hidden;fillColor=none;top=0;left=0;bottom=0;right=0;pointerEvents=1;" parent="1" vertex="1">
          <mxGeometry x="8320" y="2500" width="100" height="40" as="geometry">
            <mxRectangle width="100" height="40" as="alternateBounds" />
          </mxGeometry>
        </mxCell>
        <mxCell id="f6QQn7eRvwNJcWND32Lu-432" value="B4" style="shape=partialRectangle;html=1;whiteSpace=wrap;connectable=0;strokeColor=inherit;overflow=hidden;fillColor=none;top=0;left=0;bottom=0;right=0;pointerEvents=1;" parent="1" vertex="1">
          <mxGeometry x="8320" y="2540" width="100" height="40" as="geometry">
            <mxRectangle width="100" height="40" as="alternateBounds" />
          </mxGeometry>
        </mxCell>
        <mxCell id="f6QQn7eRvwNJcWND32Lu-433" value="Cantidad" style="shape=partialRectangle;html=1;whiteSpace=wrap;connectable=0;strokeColor=inherit;overflow=hidden;fillColor=none;top=0;left=0;bottom=0;right=0;pointerEvents=1;" parent="1" vertex="1">
          <mxGeometry x="8420" y="2380" width="100" height="40" as="geometry">
            <mxRectangle width="100" height="40" as="alternateBounds" />
          </mxGeometry>
        </mxCell>
        <mxCell id="f6QQn7eRvwNJcWND32Lu-434" value="100" style="shape=partialRectangle;html=1;whiteSpace=wrap;connectable=0;strokeColor=inherit;overflow=hidden;fillColor=none;top=0;left=0;bottom=0;right=0;pointerEvents=1;" parent="1" vertex="1">
          <mxGeometry x="8420" y="2420" width="100" height="40" as="geometry">
            <mxRectangle width="100" height="40" as="alternateBounds" />
          </mxGeometry>
        </mxCell>
        <mxCell id="f6QQn7eRvwNJcWND32Lu-435" value="200" style="shape=partialRectangle;html=1;whiteSpace=wrap;connectable=0;strokeColor=inherit;overflow=hidden;fillColor=none;top=0;left=0;bottom=0;right=0;pointerEvents=1;" parent="1" vertex="1">
          <mxGeometry x="8420" y="2460" width="100" height="40" as="geometry">
            <mxRectangle width="100" height="40" as="alternateBounds" />
          </mxGeometry>
        </mxCell>
        <mxCell id="f6QQn7eRvwNJcWND32Lu-436" value="150" style="shape=partialRectangle;html=1;whiteSpace=wrap;connectable=0;strokeColor=inherit;overflow=hidden;fillColor=none;top=0;left=0;bottom=0;right=0;pointerEvents=1;" parent="1" vertex="1">
          <mxGeometry x="8420" y="2500" width="100" height="40" as="geometry">
            <mxRectangle width="100" height="40" as="alternateBounds" />
          </mxGeometry>
        </mxCell>
        <mxCell id="f6QQn7eRvwNJcWND32Lu-437" value="100" style="shape=partialRectangle;html=1;whiteSpace=wrap;connectable=0;strokeColor=inherit;overflow=hidden;fillColor=none;top=0;left=0;bottom=0;right=0;pointerEvents=1;" parent="1" vertex="1">
          <mxGeometry x="8420" y="2540" width="100" height="40" as="geometry">
            <mxRectangle width="100" height="40" as="alternateBounds" />
          </mxGeometry>
        </mxCell>
        <mxCell id="f6QQn7eRvwNJcWND32Lu-438" value="&amp;nbsp;" style="text;whiteSpace=wrap;html=1;" parent="1" vertex="1">
          <mxGeometry x="5250" y="2590" width="40" height="40" as="geometry" />
        </mxCell>
        <mxCell id="f6QQn7eRvwNJcWND32Lu-439" value="&amp;nbsp;" style="text;whiteSpace=wrap;html=1;" parent="1" vertex="1">
          <mxGeometry x="4800" y="2230" width="40" height="40" as="geometry" />
        </mxCell>
        <mxCell id="f6QQn7eRvwNJcWND32Lu-458" value="Empleado_Habilidades" style="shape=table;startSize=30;container=1;collapsible=0;childLayout=tableLayout;" parent="1" vertex="1">
          <mxGeometry x="6770" y="2600" width="190" height="230" as="geometry" />
        </mxCell>
        <mxCell id="f6QQn7eRvwNJcWND32Lu-459" value="" style="shape=tableRow;horizontal=0;startSize=0;swimlaneHead=0;swimlaneBody=0;strokeColor=inherit;top=0;left=0;bottom=0;right=0;collapsible=0;dropTarget=0;fillColor=none;points=[[0,0.5],[1,0.5]];portConstraint=eastwest;" parent="f6QQn7eRvwNJcWND32Lu-458" vertex="1">
          <mxGeometry y="30" width="190" height="40" as="geometry" />
        </mxCell>
        <mxCell id="f6QQn7eRvwNJcWND32Lu-460" value="id_empleado" style="shape=partialRectangle;html=1;whiteSpace=wrap;connectable=0;strokeColor=inherit;overflow=hidden;fillColor=none;top=0;left=0;bottom=0;right=0;pointerEvents=1;" parent="f6QQn7eRvwNJcWND32Lu-459" vertex="1">
          <mxGeometry width="90" height="40" as="geometry">
            <mxRectangle width="90" height="40" as="alternateBounds" />
          </mxGeometry>
        </mxCell>
        <mxCell id="f6QQn7eRvwNJcWND32Lu-461" value="id_habilidad" style="shape=partialRectangle;html=1;whiteSpace=wrap;connectable=0;strokeColor=inherit;overflow=hidden;fillColor=none;top=0;left=0;bottom=0;right=0;pointerEvents=1;" parent="f6QQn7eRvwNJcWND32Lu-459" vertex="1">
          <mxGeometry x="90" width="100" height="40" as="geometry">
            <mxRectangle width="100" height="40" as="alternateBounds" />
          </mxGeometry>
        </mxCell>
        <mxCell id="f6QQn7eRvwNJcWND32Lu-462" value="" style="shape=tableRow;horizontal=0;startSize=0;swimlaneHead=0;swimlaneBody=0;strokeColor=inherit;top=0;left=0;bottom=0;right=0;collapsible=0;dropTarget=0;fillColor=none;points=[[0,0.5],[1,0.5]];portConstraint=eastwest;" parent="f6QQn7eRvwNJcWND32Lu-458" vertex="1">
          <mxGeometry y="70" width="190" height="40" as="geometry" />
        </mxCell>
        <mxCell id="f6QQn7eRvwNJcWND32Lu-463" value="1" style="shape=partialRectangle;html=1;whiteSpace=wrap;connectable=0;strokeColor=inherit;overflow=hidden;fillColor=none;top=0;left=0;bottom=0;right=0;pointerEvents=1;" parent="f6QQn7eRvwNJcWND32Lu-462" vertex="1">
          <mxGeometry width="90" height="40" as="geometry">
            <mxRectangle width="90" height="40" as="alternateBounds" />
          </mxGeometry>
        </mxCell>
        <mxCell id="f6QQn7eRvwNJcWND32Lu-464" value="1" style="shape=partialRectangle;html=1;whiteSpace=wrap;connectable=0;strokeColor=inherit;overflow=hidden;fillColor=none;top=0;left=0;bottom=0;right=0;pointerEvents=1;" parent="f6QQn7eRvwNJcWND32Lu-462" vertex="1">
          <mxGeometry x="90" width="100" height="40" as="geometry">
            <mxRectangle width="100" height="40" as="alternateBounds" />
          </mxGeometry>
        </mxCell>
        <mxCell id="f6QQn7eRvwNJcWND32Lu-465" value="" style="shape=tableRow;horizontal=0;startSize=0;swimlaneHead=0;swimlaneBody=0;strokeColor=inherit;top=0;left=0;bottom=0;right=0;collapsible=0;dropTarget=0;fillColor=none;points=[[0,0.5],[1,0.5]];portConstraint=eastwest;" parent="f6QQn7eRvwNJcWND32Lu-458" vertex="1">
          <mxGeometry y="110" width="190" height="40" as="geometry" />
        </mxCell>
        <mxCell id="f6QQn7eRvwNJcWND32Lu-466" value="1" style="shape=partialRectangle;html=1;whiteSpace=wrap;connectable=0;strokeColor=inherit;overflow=hidden;fillColor=none;top=0;left=0;bottom=0;right=0;pointerEvents=1;" parent="f6QQn7eRvwNJcWND32Lu-465" vertex="1">
          <mxGeometry width="90" height="40" as="geometry">
            <mxRectangle width="90" height="40" as="alternateBounds" />
          </mxGeometry>
        </mxCell>
        <mxCell id="f6QQn7eRvwNJcWND32Lu-467" value="2" style="shape=partialRectangle;html=1;whiteSpace=wrap;connectable=0;strokeColor=inherit;overflow=hidden;fillColor=none;top=0;left=0;bottom=0;right=0;pointerEvents=1;" parent="f6QQn7eRvwNJcWND32Lu-465" vertex="1">
          <mxGeometry x="90" width="100" height="40" as="geometry">
            <mxRectangle width="100" height="40" as="alternateBounds" />
          </mxGeometry>
        </mxCell>
        <mxCell id="f6QQn7eRvwNJcWND32Lu-468" value="" style="shape=tableRow;horizontal=0;startSize=0;swimlaneHead=0;swimlaneBody=0;strokeColor=inherit;top=0;left=0;bottom=0;right=0;collapsible=0;dropTarget=0;fillColor=none;points=[[0,0.5],[1,0.5]];portConstraint=eastwest;" parent="f6QQn7eRvwNJcWND32Lu-458" vertex="1">
          <mxGeometry y="150" width="190" height="40" as="geometry" />
        </mxCell>
        <mxCell id="f6QQn7eRvwNJcWND32Lu-469" value="2" style="shape=partialRectangle;html=1;whiteSpace=wrap;connectable=0;strokeColor=inherit;overflow=hidden;fillColor=none;top=0;left=0;bottom=0;right=0;pointerEvents=1;" parent="f6QQn7eRvwNJcWND32Lu-468" vertex="1">
          <mxGeometry width="90" height="40" as="geometry">
            <mxRectangle width="90" height="40" as="alternateBounds" />
          </mxGeometry>
        </mxCell>
        <mxCell id="f6QQn7eRvwNJcWND32Lu-470" value="1" style="shape=partialRectangle;html=1;whiteSpace=wrap;connectable=0;strokeColor=inherit;overflow=hidden;fillColor=none;top=0;left=0;bottom=0;right=0;pointerEvents=1;" parent="f6QQn7eRvwNJcWND32Lu-468" vertex="1">
          <mxGeometry x="90" width="100" height="40" as="geometry">
            <mxRectangle width="100" height="40" as="alternateBounds" />
          </mxGeometry>
        </mxCell>
        <mxCell id="f6QQn7eRvwNJcWND32Lu-471" value="" style="shape=tableRow;horizontal=0;startSize=0;swimlaneHead=0;swimlaneBody=0;strokeColor=inherit;top=0;left=0;bottom=0;right=0;collapsible=0;dropTarget=0;fillColor=none;points=[[0,0.5],[1,0.5]];portConstraint=eastwest;" parent="f6QQn7eRvwNJcWND32Lu-458" vertex="1">
          <mxGeometry y="190" width="190" height="40" as="geometry" />
        </mxCell>
        <mxCell id="f6QQn7eRvwNJcWND32Lu-472" value="2" style="shape=partialRectangle;html=1;whiteSpace=wrap;connectable=0;strokeColor=inherit;overflow=hidden;fillColor=none;top=0;left=0;bottom=0;right=0;pointerEvents=1;" parent="f6QQn7eRvwNJcWND32Lu-471" vertex="1">
          <mxGeometry width="90" height="40" as="geometry">
            <mxRectangle width="90" height="40" as="alternateBounds" />
          </mxGeometry>
        </mxCell>
        <mxCell id="f6QQn7eRvwNJcWND32Lu-473" value="3" style="shape=partialRectangle;html=1;whiteSpace=wrap;connectable=0;strokeColor=inherit;overflow=hidden;fillColor=none;top=0;left=0;bottom=0;right=0;pointerEvents=1;" parent="f6QQn7eRvwNJcWND32Lu-471" vertex="1">
          <mxGeometry x="90" width="100" height="40" as="geometry">
            <mxRectangle width="100" height="40" as="alternateBounds" />
          </mxGeometry>
        </mxCell>
      </root>
    </mxGraphModel>
  </diagram>
</mxfile>
